M48
; DRILL file {KiCad (5.1.10)-1} date 02/22/22 01:11:55
; FORMAT={-:-/ absolute / metric / decimal}
; #@! TF.CreationDate,2022-02-22T01:11:55-03:00
; #@! TF.GenerationSoftware,Kicad,Pcbnew,(5.1.10)-1
; #@! TF.FileFunction,Plated,1,4,PTH
FMAT,2
METRIC
T1C0.200
T2C0.250
T3C0.300
T4C0.400
T5C0.500
T6C0.900
%
G90
G05
T1
X150.019Y-32.65
X150.019Y-33.75
X150.019Y-34.85
X151.119Y-32.65
X151.119Y-33.75
X151.119Y-34.85
X152.219Y-32.65
X152.219Y-33.75
X152.219Y-34.85
T2
X56.173Y-31.202
X56.515Y-35.37
X57.5Y-35.369
X58.483Y-35.37
X58.61Y-45.974
X59.7Y-30.49
X59.714Y-34.203
X60.261Y-45.974
X62.484Y-36.068
X72.32Y-51.59
X74.827Y-50.8
X76.216Y-59.284
X77.469Y-49.835
X80.466Y-49.835
X80.72Y-35.204
X80.72Y-36.246
X82.49Y-52.53
X84.088Y-35.712
X97.155Y-40.64
X99.922Y-40.691
X107.288Y-40.665
X111.049Y-31.344
X111.188Y-53.086
X111.823Y-53.086
X112.268Y-31.344
X114.3Y-43.434
X114.351Y-40.767
X114.351Y-42.037
X114.351Y-38.354
X114.351Y-39.395
X117.641Y-60.891
X118.72Y-38.176
X118.732Y-53.531
X119.52Y-44.57
X119.888Y-38.176
X120.65Y-45.593
X121.006Y-42.367
X121.006Y-38.151
X121.371Y-55.179
X122.6Y-50.325
X124.8Y-50.325
X125.9Y-52.825
X126.99Y-50.343
X128.087Y-50.353
X128.336Y-53.452
X129.175Y-50.35
X129.692Y-32.385
X130.325Y-50.375
X130.454Y-33.02
X130.505Y-32.156
X131.064Y-29.845
X131.267Y-32.766
X131.267Y-33.63
X131.318Y-59.69
X131.877Y-39.776
X131.877Y-40.691
X131.978Y-34.315
X131.978Y-35.382
X131.978Y-36.449
X132.253Y-57.866
X139.954Y-36.957
X140.737Y-30.577
X140.799Y-33.887
X140.913Y-56.896
X141.0Y-45.35
X141.802Y-56.07
X144.575Y-59.425
X144.716Y-43.866
X146.304Y-40.576
X146.5Y-59.9
X147.447Y-48.26
X149.157Y-35.807
X149.55Y-57.05
X151.46Y-36.6
X151.75Y-64.05
X152.8Y-60.0
X153.0Y-57.3
X153.15Y-50.042
T3
X55.88Y-48.514
X55.88Y-50.546
X55.88Y-52.578
X58.42Y-48.514
X58.42Y-50.546
X60.452Y-48.514
X60.452Y-50.546
X62.484Y-48.514
X62.484Y-50.546
X64.516Y-48.514
X64.516Y-50.546
X66.548Y-34.544
X66.548Y-39.624
X66.548Y-41.656
X66.548Y-43.688
X66.548Y-45.72
X66.548Y-48.514
X66.548Y-50.546
X68.58Y-32.512
X68.58Y-34.544
X68.58Y-39.624
X68.58Y-41.656
X68.58Y-43.688
X68.58Y-45.72
X68.58Y-48.514
X68.58Y-50.546
X68.58Y-52.578
X70.1Y-56.9
X70.612Y-32.512
X70.612Y-34.544
X70.612Y-39.624
X70.612Y-41.656
X70.612Y-43.688
X70.612Y-45.72
X70.612Y-48.514
X70.612Y-50.546
X70.612Y-52.578
X72.644Y-39.624
X72.644Y-41.656
X72.644Y-43.688
X72.644Y-45.72
X72.644Y-48.514
X72.644Y-50.546
X73.66Y-52.578
X74.676Y-39.624
X74.676Y-41.656
X74.676Y-43.688
X74.676Y-45.72
X74.676Y-48.514
X76.2Y-52.578
X76.708Y-39.624
X76.708Y-41.656
X76.708Y-43.688
X76.708Y-45.72
X76.708Y-48.514
X77.153Y-62.865
X78.74Y-39.624
X78.74Y-41.656
X78.74Y-43.688
X78.74Y-45.72
X78.74Y-52.578
X80.772Y-39.624
X80.772Y-41.656
X80.772Y-43.688
X80.772Y-45.72
X81.28Y-52.578
X82.804Y-39.624
X82.804Y-41.656
X82.804Y-43.688
X82.804Y-45.72
X85.02Y-40.64
X86.296Y-60.071
X86.296Y-63.436
X86.36Y-39.624
X86.36Y-41.656
X86.36Y-43.688
X87.58Y-40.64
X91.186Y-52.578
X93.218Y-39.624
X95.25Y-39.624
X98.65Y-31.275
X98.65Y-37.363
X99.946Y-37.363
X102.819Y-37.363
X102.87Y-45.593
X104.521Y-48.514
X106.172Y-45.593
X106.172Y-48.209
X109.117Y-45.593
X109.156Y-48.209
X109.474Y-40.64
X110.028Y-37.8
X112.014Y-38.1
X112.141Y-48.209
X112.165Y-45.593
X114.808Y-53.086
X115.125Y-48.209
X118.11Y-48.209
X118.427Y-56.578
X118.491Y-63.373
X118.618Y-40.132
X119.126Y-42.672
X119.38Y-51.752
X120.574Y-44.552
X120.642Y-51.765
X121.412Y-56.578
X121.742Y-44.552
X122.86Y-44.552
X123.622Y-42.393
X123.85Y-44.577
X124.249Y-63.398
X125.247Y-43.51
X126.555Y-56.642
X126.746Y-40.894
X127.0Y-58.864
X128.016Y-40.894
X128.333Y-56.642
X128.524Y-42.164
X129.794Y-43.18
X130.04Y-63.449
X130.81Y-56.642
X130.937Y-44.259
X132.398Y-50.419
X132.398Y-55.689
X135.953Y-59.436
X136.843Y-49.403
X136.843Y-50.99
X139.129Y-58.42
X139.75Y-32.45
X140.525Y-64.198
X142.177Y-64.198
X143.764Y-64.198
X144.716Y-44.831
X145.987Y-46.355
X147.2Y-52.451
X147.383Y-46.355
X147.725Y-52.975
X148.274Y-53.526
T4
X54.991Y-42.735
X54.991Y-44.005
X54.991Y-45.529
X55.417Y-61.023
X55.417Y-62.293
X55.417Y-63.563
X55.417Y-64.834
X55.499Y-43.37
X55.499Y-44.767
X55.658Y-59.741
X56.007Y-42.735
X56.007Y-44.005
X56.007Y-45.529
X56.07Y-33.02
X56.197Y-37.401
X56.56Y-58.864
X57.258Y-55.372
X57.258Y-56.642
X57.258Y-57.912
X57.893Y-54.229
X58.909Y-53.467
X60.095Y-60.681
X60.095Y-61.951
X60.095Y-63.221
X60.095Y-64.491
X60.183Y-53.467
X60.933Y-58.445
X60.933Y-59.715
X61.456Y-53.467
X62.73Y-53.467
X63.473Y-58.433
X63.473Y-59.703
X64.003Y-53.467
X64.312Y-60.668
X64.312Y-61.938
X64.312Y-63.208
X64.312Y-64.478
X65.277Y-53.467
X66.445Y-54.204
X66.548Y-32.512
X67.131Y-55.372
X67.131Y-56.642
X67.131Y-57.912
X67.829Y-58.864
X68.731Y-59.741
X68.972Y-61.023
X68.972Y-62.293
X68.972Y-63.563
X68.972Y-64.834
X82.5Y-59.0
X86.377Y-30.416
X87.137Y-30.416
X87.897Y-30.416
X88.657Y-30.416
X91.454Y-60.756
X91.454Y-62.106
X91.454Y-63.456
X91.454Y-64.806
X91.962Y-59.581
X92.853Y-58.687
X93.758Y-57.78
X94.657Y-56.883
X94.946Y-50.576
X94.946Y-51.846
X94.946Y-53.116
X94.946Y-54.386
X94.946Y-55.656
X95.431Y-49.337
X96.102Y-64.298
X96.11Y-61.758
X96.11Y-63.028
X96.262Y-48.519
X96.78Y-60.493
X97.187Y-52.873
X97.187Y-54.143
X97.187Y-55.413
X97.187Y-56.683
X97.187Y-57.953
X97.187Y-59.223
X97.463Y-48.453
X98.731Y-48.453
X99.186Y-59.223
X99.191Y-52.875
X99.191Y-54.145
X99.191Y-55.415
X99.668Y-60.488
X100.001Y-48.453
X100.359Y-61.76
X100.359Y-63.03
X100.359Y-64.3
X100.379Y-45.415
X100.768Y-57.836
X100.778Y-59.926
X101.271Y-48.453
X102.041Y-57.981
X102.051Y-59.987
X103.275Y-49.403
X103.308Y-57.981
X103.321Y-59.987
X103.707Y-53.111
X104.225Y-54.178
X104.581Y-57.981
X104.591Y-59.987
X105.023Y-65.138
X105.384Y-54.696
X105.525Y-57.264
X105.531Y-60.749
X106.293Y-65.138
X106.849Y-54.696
X107.563Y-65.138
X108.314Y-54.696
X108.833Y-65.138
X109.688Y-54.844
X109.879Y-64.287
X110.544Y-55.702
X110.826Y-63.236
X111.047Y-56.891
X111.047Y-58.161
X111.047Y-59.431
X111.047Y-60.701
X111.047Y-61.971
X130.937Y-45.212
X130.937Y-46.101
X135.28Y-31.369
X135.7Y-33.909
X135.712Y-30.124
X136.169Y-31.369
X136.601Y-30.124
X136.715Y-45.466
X137.058Y-31.369
X137.49Y-30.124
X137.986Y-34.671
X138.379Y-30.124
X139.065Y-36.957
X139.65Y-62.35
X140.151Y-56.07
X140.433Y-52.854
X141.605Y-48.323
X142.049Y-51.308
X143.827Y-50.673
X144.297Y-55.687
X149.098Y-46.482
X149.098Y-47.244
X149.098Y-48.006
X149.098Y-48.768
X151.13Y-30.416
X152.59Y-30.416
T5
X120.162Y-31.689
X123.795Y-31.689
X135.738Y-35.992
X135.738Y-38.735
X138.874Y-47.625
X139.827Y-47.625
X140.25Y-48.45
X140.25Y-49.3
X140.25Y-50.2
X140.779Y-47.625
X153.035Y-36.068
T6
X113.775Y-57.404
X113.775Y-59.563
X113.775Y-61.722
X113.775Y-63.881
T0
M30
