G04 #@! TF.GenerationSoftware,KiCad,Pcbnew,(5.1.10)-1*
G04 #@! TF.CreationDate,2022-02-22T01:10:42-03:00*
G04 #@! TF.ProjectId,Alcantara_v.1.0,416c6361-6e74-4617-9261-5f762e312e30,rev?*
G04 #@! TF.SameCoordinates,Original*
G04 #@! TF.FileFunction,Copper,L2,Inr*
G04 #@! TF.FilePolarity,Positive*
%FSLAX46Y46*%
G04 Gerber Fmt 4.6, Leading zero omitted, Abs format (unit mm)*
G04 Created by KiCad (PCBNEW (5.1.10)-1) date 2022-02-22 01:10:42*
%MOMM*%
%LPD*%
G01*
G04 APERTURE LIST*
G04 #@! TA.AperFunction,ComponentPad*
%ADD10C,1.800000*%
G04 #@! TD*
G04 #@! TA.AperFunction,ComponentPad*
%ADD11R,1.800000X1.800000*%
G04 #@! TD*
G04 #@! TA.AperFunction,ComponentPad*
%ADD12C,0.500000*%
G04 #@! TD*
G04 #@! TA.AperFunction,ViaPad*
%ADD13C,0.800000*%
G04 #@! TD*
G04 #@! TA.AperFunction,ViaPad*
%ADD14C,0.600000*%
G04 #@! TD*
G04 #@! TA.AperFunction,ViaPad*
%ADD15C,0.500000*%
G04 #@! TD*
G04 #@! TA.AperFunction,ViaPad*
%ADD16C,0.700000*%
G04 #@! TD*
G04 #@! TA.AperFunction,Conductor*
%ADD17C,0.300000*%
G04 #@! TD*
G04 #@! TA.AperFunction,Conductor*
%ADD18C,0.254000*%
G04 #@! TD*
G04 #@! TA.AperFunction,Conductor*
%ADD19C,0.100000*%
G04 #@! TD*
G04 APERTURE END LIST*
D10*
X113775000Y-57404000D03*
X113775000Y-59563000D03*
X113775000Y-61722000D03*
D11*
X113775000Y-63881000D03*
D12*
X150019000Y-34850000D03*
X150019000Y-33750000D03*
X150019000Y-32650000D03*
X151119000Y-34850000D03*
X151119000Y-33750000D03*
X151119000Y-32650000D03*
X152219000Y-34850000D03*
X152219000Y-33750000D03*
X152219000Y-32650000D03*
D13*
X100379400Y-45415200D03*
X55416520Y-61023500D03*
X55416520Y-62293500D03*
X55416520Y-63563500D03*
X55416520Y-64833500D03*
X56559520Y-58864500D03*
X58909020Y-53467000D03*
X57258020Y-57912000D03*
X55657820Y-59740800D03*
X57258020Y-55372000D03*
X57258020Y-56642000D03*
X57893020Y-54229000D03*
X106848779Y-54696360D03*
X108313512Y-54696360D03*
X105384046Y-54696360D03*
X109688500Y-54843680D03*
X91453840Y-63455550D03*
X91453840Y-62105540D03*
X91453840Y-60755530D03*
X91453840Y-64805560D03*
X67829500Y-58864500D03*
X68972500Y-61023500D03*
X68972500Y-62293500D03*
X68972500Y-63563500D03*
X68972500Y-64833500D03*
X67131000Y-57912000D03*
X110826420Y-63235840D03*
X111047400Y-61970920D03*
X65276800Y-53467000D03*
X68731200Y-59740800D03*
X67131000Y-55372000D03*
X66445200Y-54203600D03*
X60182576Y-53467000D03*
X61456132Y-53467000D03*
X62729688Y-53467000D03*
X64003244Y-53467000D03*
X106292520Y-65138300D03*
X107562520Y-65138300D03*
X108832520Y-65138300D03*
X109879000Y-64287400D03*
X111047400Y-60700920D03*
X111047400Y-59430920D03*
X111047400Y-56890920D03*
X110544480Y-55702200D03*
X104224960Y-54178200D03*
X103706800Y-53111400D03*
X91961840Y-59580780D03*
X92853380Y-58686700D03*
X93757620Y-57779920D03*
X94656780Y-56883300D03*
X94946340Y-55656480D03*
X94946340Y-54386480D03*
X94946340Y-53116480D03*
X94946340Y-51846480D03*
X94946340Y-50576480D03*
X95431480Y-49336960D03*
X96262060Y-48519080D03*
X97463480Y-48453040D03*
X98730940Y-48453040D03*
X100000940Y-48453040D03*
X101270940Y-48453040D03*
X103275000Y-49403000D03*
X105022520Y-65138300D03*
X111047400Y-58160920D03*
D14*
X99946400Y-37363400D03*
X102819200Y-37363400D03*
X120573800Y-44551600D03*
X121742200Y-44551600D03*
X122859800Y-44551600D03*
X123850400Y-44577000D03*
X126746000Y-40894000D03*
X128016000Y-40894000D03*
X125247400Y-43510200D03*
X123621800Y-42392600D03*
X132397500Y-50419000D03*
D15*
X130505200Y-32156400D03*
X131267200Y-32766000D03*
D14*
X135712200Y-30124400D03*
X136601200Y-30124400D03*
X137490200Y-30124400D03*
X138379200Y-30124400D03*
X118110000Y-48209200D03*
X115125500Y-48209200D03*
X119126000Y-42672000D03*
X118618000Y-40132000D03*
D15*
X114350800Y-38354000D03*
X114300000Y-43434000D03*
X107288200Y-40665400D03*
X111048800Y-31343600D03*
X112268000Y-31343600D03*
D14*
X124248800Y-63398400D03*
X130040000Y-63449200D03*
X120642000Y-51765200D03*
X112141000Y-48209200D03*
X109156500Y-48209200D03*
X109117000Y-45593000D03*
X112165000Y-45593000D03*
D15*
X99922200Y-40690800D03*
D14*
X130937000Y-46101000D03*
X130937000Y-45212000D03*
X143827500Y-50673000D03*
D15*
X149550000Y-57050000D03*
D16*
X153035000Y-36068000D03*
D14*
X139750000Y-32450000D03*
D16*
X135737600Y-38735000D03*
D14*
X86377298Y-30416498D03*
X87137365Y-30416498D03*
X87897432Y-30416498D03*
X149098000Y-46482000D03*
X149098000Y-47244000D03*
X149098000Y-48006000D03*
X149098000Y-48768000D03*
X88657500Y-30416498D03*
X147200000Y-52451000D03*
X147724500Y-52975500D03*
X148274500Y-53525500D03*
X135280400Y-31369000D03*
X137058400Y-31369000D03*
X136169400Y-31369000D03*
D16*
X120162320Y-31689040D03*
X123794520Y-31689040D03*
D15*
X125900000Y-52825000D03*
D16*
X138874500Y-47625000D03*
X139827000Y-47625000D03*
X140779500Y-47625000D03*
D14*
X140151006Y-56070500D03*
X139650000Y-62350000D03*
D16*
X140250000Y-48450000D03*
X140250000Y-49300000D03*
X140250000Y-50200000D03*
D13*
X67131000Y-56642000D03*
D14*
X54991000Y-42735500D03*
X56007000Y-42735500D03*
X55499000Y-43370500D03*
X54991000Y-44005500D03*
X56007000Y-44005500D03*
X55499000Y-44767500D03*
X54991000Y-45529500D03*
X56007000Y-45529500D03*
D15*
X62484000Y-36068000D03*
D14*
X56070500Y-33020000D03*
D15*
X128087120Y-50352960D03*
D14*
X144297400Y-55686960D03*
X140433500Y-52854300D03*
X66548000Y-32512000D03*
X70612000Y-32512000D03*
X68580000Y-32512000D03*
X66548000Y-34544000D03*
X68580000Y-34544000D03*
X70612000Y-34544000D03*
X70612000Y-41656000D03*
X68580000Y-41656000D03*
X66548000Y-41656000D03*
X66548000Y-43688000D03*
X68580000Y-43688000D03*
X70612000Y-43688000D03*
X66548000Y-45720000D03*
X68580000Y-45720000D03*
X70612000Y-45720000D03*
X72644000Y-41656000D03*
X72644000Y-43688000D03*
X72644000Y-45720000D03*
X74676000Y-45720000D03*
X74676000Y-43688000D03*
X74676000Y-41656000D03*
X76708000Y-41656000D03*
X76708000Y-43688000D03*
X76708000Y-45720000D03*
X78740000Y-45720000D03*
X78740000Y-43688000D03*
X78740000Y-41656000D03*
X80772000Y-41656000D03*
X80772000Y-43688000D03*
X80772000Y-45720000D03*
X82804000Y-41656000D03*
X82804000Y-43688000D03*
X82804000Y-45720000D03*
X66548000Y-48514000D03*
X68580000Y-48514000D03*
X70612000Y-48514000D03*
X72644000Y-48514000D03*
X74676000Y-48514000D03*
X76708000Y-48514000D03*
X66548000Y-50546000D03*
X68580000Y-50546000D03*
X70612000Y-50546000D03*
X72644000Y-50546000D03*
X68580000Y-52578000D03*
X70612000Y-52578000D03*
X64516000Y-50546000D03*
X64516000Y-48514000D03*
X62484000Y-48514000D03*
X62484000Y-50546000D03*
X60452000Y-50546000D03*
X58420000Y-50546000D03*
X55880000Y-50546000D03*
X55880000Y-48514000D03*
X66548000Y-39624000D03*
X68580000Y-39624000D03*
X70612000Y-39624000D03*
X72644000Y-39624000D03*
X74676000Y-39624000D03*
X76708000Y-39624000D03*
X78740000Y-39624000D03*
X80772000Y-39624000D03*
X82804000Y-39624000D03*
X73660000Y-52578000D03*
X76200000Y-52578000D03*
X78740000Y-52578000D03*
X81280000Y-52578000D03*
X55880000Y-52578000D03*
X58420000Y-48514000D03*
X60452000Y-48514000D03*
D15*
X146304000Y-40576500D03*
D14*
X139128500Y-58420000D03*
X136842500Y-50990500D03*
X91186000Y-52578000D03*
X95250000Y-39624000D03*
X93218000Y-39624000D03*
X86360000Y-39624000D03*
X86360000Y-41656000D03*
X86360000Y-43688000D03*
X106172000Y-45593000D03*
X102870000Y-45593000D03*
X106172000Y-48209200D03*
X128524000Y-42164000D03*
X129794000Y-43180000D03*
X130937000Y-44259500D03*
X145986500Y-46355000D03*
X147383500Y-46355000D03*
X144716500Y-44831000D03*
X141605000Y-48323500D03*
X142049500Y-51308000D03*
X136842500Y-49403000D03*
X126555500Y-56642000D03*
X128333500Y-56642000D03*
X130810000Y-56642000D03*
X132397500Y-55689500D03*
X142176500Y-64198500D03*
X140525500Y-64198500D03*
X143764000Y-64198500D03*
X118491000Y-63373000D03*
X77152500Y-62865000D03*
X86296500Y-60071000D03*
X86296500Y-63436500D03*
X135953500Y-59436000D03*
X121412000Y-56578500D03*
X127000000Y-58864500D03*
X118427500Y-56578500D03*
X114808000Y-53086000D03*
X135699500Y-33909000D03*
X137985500Y-34671000D03*
X139065000Y-36957000D03*
X151130000Y-30416500D03*
X152590500Y-30416500D03*
X109474000Y-40640000D03*
X98650000Y-37363400D03*
X82500000Y-59000000D03*
X98650000Y-31275000D03*
X70100000Y-56900000D03*
D15*
X76216400Y-59283600D03*
D14*
X56197500Y-37401500D03*
D15*
X128336040Y-53451760D03*
X121371360Y-55178960D03*
X132252720Y-57866280D03*
D14*
X110028200Y-37799800D03*
D15*
X144716500Y-43865800D03*
D16*
X135737600Y-35991800D03*
D15*
X139954000Y-36957000D03*
D14*
X119380000Y-51752500D03*
X136715500Y-45466000D03*
D15*
X131064000Y-29845000D03*
X152800002Y-59999998D03*
X140736800Y-30577000D03*
X151750000Y-64050000D03*
X140799000Y-33887000D03*
X153000000Y-57300000D03*
X149156507Y-35806507D03*
X56173500Y-31202500D03*
X59700000Y-30490000D03*
X141000000Y-45350000D03*
X147447000Y-48260000D03*
X117640588Y-60890588D03*
X119888000Y-38176200D03*
X141802000Y-56070500D03*
X118719600Y-38176200D03*
X140913000Y-56896000D03*
X146500000Y-59900000D03*
X130454394Y-33020000D03*
X80720000Y-36245800D03*
X80720000Y-35204400D03*
X129692400Y-32385004D03*
X119520000Y-44570002D03*
X131978402Y-35382201D03*
X120650000Y-45593000D03*
X131876798Y-39776400D03*
X131876800Y-40690800D03*
X131978402Y-36449000D03*
X131267200Y-33629600D03*
X131978402Y-34315402D03*
X114350796Y-42037000D03*
X131317986Y-59690000D03*
X58483500Y-35369508D03*
X57500000Y-35369500D03*
X82490000Y-52530000D03*
D14*
X85020000Y-40640000D03*
X87580000Y-40640000D03*
D15*
X84087602Y-35712398D03*
X144575002Y-59424986D03*
X72320000Y-51590000D03*
X59714000Y-34202500D03*
X58610500Y-45974000D03*
X56515000Y-35369508D03*
X60261500Y-45974000D03*
X80466000Y-49834800D03*
X114350800Y-39395400D03*
X129175000Y-50350000D03*
X74827200Y-50800000D03*
X114350796Y-40766996D03*
X126989840Y-50342800D03*
X77468800Y-49834800D03*
X121005602Y-38150800D03*
X121005600Y-42367199D03*
X124800000Y-50325000D03*
D13*
X60933400Y-58445400D03*
X60933400Y-59715400D03*
X63473400Y-58432700D03*
X63473400Y-59702700D03*
X64311600Y-60667900D03*
X64311600Y-61937900D03*
X64311600Y-63207900D03*
X64311600Y-64477900D03*
X60095200Y-60680600D03*
X60095200Y-61950600D03*
X60095200Y-63220600D03*
X60095200Y-64490600D03*
X104590720Y-59987180D03*
X105530520Y-60749180D03*
X100768020Y-57835800D03*
X99190680Y-52875180D03*
X99190680Y-54145180D03*
X99190680Y-55415180D03*
X97186620Y-52872640D03*
X97186620Y-54142640D03*
X97186620Y-55412640D03*
X97186620Y-56682640D03*
X97186620Y-57952640D03*
X97186620Y-59222640D03*
X96780220Y-60492640D03*
X99185600Y-59222640D03*
X99668200Y-60487560D03*
X100778180Y-59926220D03*
X102050720Y-59987180D03*
X103320720Y-59987180D03*
X105525440Y-57264300D03*
X102040560Y-57980580D03*
X103308020Y-57980580D03*
X104580560Y-57980580D03*
X96109660Y-61757720D03*
X96109660Y-63027720D03*
X96102040Y-64297720D03*
X100359080Y-61760100D03*
X100359080Y-63030100D03*
X100359080Y-64300100D03*
D15*
X118731794Y-53530994D03*
X151460000Y-36600000D03*
X153150000Y-50042000D03*
X111823500Y-53086000D03*
X111188500Y-53086000D03*
X97155000Y-40640000D03*
D14*
X104521000Y-48514000D03*
X112014000Y-38100000D03*
D15*
X130325000Y-50375000D03*
X122600000Y-50325000D03*
D17*
X97155000Y-40640000D02*
X97155000Y-41148000D01*
X97155000Y-41148000D02*
X99568000Y-43561000D01*
X99568000Y-43561000D02*
X102489000Y-43561000D01*
X104521000Y-45593000D02*
X104521000Y-48514000D01*
X102489000Y-43561000D02*
X104521000Y-45593000D01*
X112014000Y-40767000D02*
X112014000Y-38100000D01*
X109728000Y-43053000D02*
X112014000Y-40767000D01*
X107061000Y-43053000D02*
X109728000Y-43053000D01*
X104521000Y-45593000D02*
X107061000Y-43053000D01*
D18*
X140677739Y-29241460D02*
X140710640Y-29275848D01*
X140732756Y-29294848D01*
X140753155Y-29315678D01*
X140758889Y-29320422D01*
X140911807Y-29445139D01*
X140952033Y-29471865D01*
X140991906Y-29499166D01*
X140998452Y-29502706D01*
X141172682Y-29595345D01*
X141217372Y-29613765D01*
X141261745Y-29632783D01*
X141268853Y-29634983D01*
X141268857Y-29634985D01*
X141268861Y-29634986D01*
X141457759Y-29692018D01*
X141505126Y-29701397D01*
X141552400Y-29711445D01*
X141559802Y-29712223D01*
X141756188Y-29731479D01*
X141766582Y-29731479D01*
X141782025Y-29733000D01*
X152937947Y-29733000D01*
X153261116Y-29780300D01*
X153552621Y-29883682D01*
X153818493Y-30041714D01*
X154048612Y-30248382D01*
X154234203Y-30495807D01*
X154368200Y-30774567D01*
X154446708Y-31078724D01*
X154467000Y-31348481D01*
X154465448Y-63965459D01*
X154415055Y-64280824D01*
X154307821Y-64571050D01*
X154146253Y-64834923D01*
X153936513Y-65062386D01*
X153686587Y-65244778D01*
X153405987Y-65375155D01*
X153098404Y-65450257D01*
X152862559Y-65467000D01*
X104507000Y-65467000D01*
X104507000Y-64617000D01*
X108680000Y-64617000D01*
X108704776Y-64614560D01*
X108728601Y-64607333D01*
X108750557Y-64595597D01*
X108769542Y-64580062D01*
X110377900Y-62981000D01*
X112364543Y-62981000D01*
X112364543Y-64781000D01*
X112374351Y-64880585D01*
X112403399Y-64976343D01*
X112450571Y-65064595D01*
X112514052Y-65141948D01*
X112591405Y-65205429D01*
X112679657Y-65252601D01*
X112775415Y-65281649D01*
X112875000Y-65291457D01*
X114675000Y-65291457D01*
X114774585Y-65281649D01*
X114870343Y-65252601D01*
X114958595Y-65205429D01*
X115035948Y-65141948D01*
X115099429Y-65064595D01*
X115146601Y-64976343D01*
X115175649Y-64880585D01*
X115185457Y-64781000D01*
X115185457Y-62981000D01*
X115180689Y-62932583D01*
X120507000Y-62932583D01*
X120507000Y-63126217D01*
X120544776Y-63316130D01*
X120618877Y-63495025D01*
X120726454Y-63656026D01*
X120863374Y-63792946D01*
X121024375Y-63900523D01*
X121203270Y-63974624D01*
X121393183Y-64012400D01*
X121586817Y-64012400D01*
X121776730Y-63974624D01*
X121955625Y-63900523D01*
X122116626Y-63792946D01*
X122253546Y-63656026D01*
X122361123Y-63495025D01*
X122435224Y-63316130D01*
X122473000Y-63126217D01*
X122473000Y-62932583D01*
X127107000Y-62932583D01*
X127107000Y-63126217D01*
X127144776Y-63316130D01*
X127218877Y-63495025D01*
X127326454Y-63656026D01*
X127463374Y-63792946D01*
X127624375Y-63900523D01*
X127803270Y-63974624D01*
X127993183Y-64012400D01*
X128186817Y-64012400D01*
X128373115Y-63975343D01*
X150992000Y-63975343D01*
X150992000Y-64124657D01*
X151021129Y-64271101D01*
X151078269Y-64409048D01*
X151161223Y-64533197D01*
X151266803Y-64638777D01*
X151390952Y-64721731D01*
X151528899Y-64778871D01*
X151675343Y-64808000D01*
X151824657Y-64808000D01*
X151971101Y-64778871D01*
X152109048Y-64721731D01*
X152233197Y-64638777D01*
X152338777Y-64533197D01*
X152421731Y-64409048D01*
X152478871Y-64271101D01*
X152508000Y-64124657D01*
X152508000Y-63975343D01*
X152478871Y-63828899D01*
X152421731Y-63690952D01*
X152338777Y-63566803D01*
X152233197Y-63461223D01*
X152109048Y-63378269D01*
X151971101Y-63321129D01*
X151824657Y-63292000D01*
X151675343Y-63292000D01*
X151528899Y-63321129D01*
X151390952Y-63378269D01*
X151266803Y-63461223D01*
X151161223Y-63566803D01*
X151078269Y-63690952D01*
X151021129Y-63828899D01*
X150992000Y-63975343D01*
X128373115Y-63975343D01*
X128376730Y-63974624D01*
X128555625Y-63900523D01*
X128716626Y-63792946D01*
X128853546Y-63656026D01*
X128961123Y-63495025D01*
X129035224Y-63316130D01*
X129073000Y-63126217D01*
X129073000Y-62932583D01*
X129035224Y-62742670D01*
X128961123Y-62563775D01*
X128853546Y-62402774D01*
X128721191Y-62270419D01*
X138842000Y-62270419D01*
X138842000Y-62429581D01*
X138873051Y-62585685D01*
X138933959Y-62732732D01*
X139022385Y-62865070D01*
X139134930Y-62977615D01*
X139267268Y-63066041D01*
X139414315Y-63126949D01*
X139570419Y-63158000D01*
X139729581Y-63158000D01*
X139885685Y-63126949D01*
X140032732Y-63066041D01*
X140165070Y-62977615D01*
X140277615Y-62865070D01*
X140366041Y-62732732D01*
X140426949Y-62585685D01*
X140458000Y-62429581D01*
X140458000Y-62270419D01*
X140426949Y-62114315D01*
X140366041Y-61967268D01*
X140277615Y-61834930D01*
X140165070Y-61722385D01*
X140032732Y-61633959D01*
X139885685Y-61573051D01*
X139729581Y-61542000D01*
X139570419Y-61542000D01*
X139414315Y-61573051D01*
X139267268Y-61633959D01*
X139134930Y-61722385D01*
X139022385Y-61834930D01*
X138933959Y-61967268D01*
X138873051Y-62114315D01*
X138842000Y-62270419D01*
X128721191Y-62270419D01*
X128716626Y-62265854D01*
X128555625Y-62158277D01*
X128376730Y-62084176D01*
X128186817Y-62046400D01*
X127993183Y-62046400D01*
X127803270Y-62084176D01*
X127624375Y-62158277D01*
X127463374Y-62265854D01*
X127326454Y-62402774D01*
X127218877Y-62563775D01*
X127144776Y-62742670D01*
X127107000Y-62932583D01*
X122473000Y-62932583D01*
X122435224Y-62742670D01*
X122361123Y-62563775D01*
X122253546Y-62402774D01*
X122116626Y-62265854D01*
X121955625Y-62158277D01*
X121776730Y-62084176D01*
X121586817Y-62046400D01*
X121393183Y-62046400D01*
X121203270Y-62084176D01*
X121024375Y-62158277D01*
X120863374Y-62265854D01*
X120726454Y-62402774D01*
X120618877Y-62563775D01*
X120544776Y-62742670D01*
X120507000Y-62932583D01*
X115180689Y-62932583D01*
X115175649Y-62881415D01*
X115146601Y-62785657D01*
X115099429Y-62697405D01*
X115035948Y-62620052D01*
X114958595Y-62556571D01*
X114923337Y-62537725D01*
X115022754Y-62388938D01*
X115128892Y-62132699D01*
X115183000Y-61860676D01*
X115183000Y-61583324D01*
X115128892Y-61311301D01*
X115022754Y-61055062D01*
X114868665Y-60824452D01*
X114860144Y-60815931D01*
X116882588Y-60815931D01*
X116882588Y-60965245D01*
X116911717Y-61111689D01*
X116968857Y-61249636D01*
X117051811Y-61373785D01*
X117157391Y-61479365D01*
X117281540Y-61562319D01*
X117419487Y-61619459D01*
X117565931Y-61648588D01*
X117715245Y-61648588D01*
X117861689Y-61619459D01*
X117999636Y-61562319D01*
X118123785Y-61479365D01*
X118229365Y-61373785D01*
X118312319Y-61249636D01*
X118369459Y-61111689D01*
X118398588Y-60965245D01*
X118398588Y-60815931D01*
X118369459Y-60669487D01*
X118312319Y-60531540D01*
X118229365Y-60407391D01*
X118123785Y-60301811D01*
X117999636Y-60218857D01*
X117861689Y-60161717D01*
X117715245Y-60132588D01*
X117565931Y-60132588D01*
X117419487Y-60161717D01*
X117281540Y-60218857D01*
X117157391Y-60301811D01*
X117051811Y-60407391D01*
X116968857Y-60531540D01*
X116911717Y-60669487D01*
X116882588Y-60815931D01*
X114860144Y-60815931D01*
X114686713Y-60642500D01*
X114868665Y-60460548D01*
X115022754Y-60229938D01*
X115128892Y-59973699D01*
X115183000Y-59701676D01*
X115183000Y-59615343D01*
X130559986Y-59615343D01*
X130559986Y-59764657D01*
X130589115Y-59911101D01*
X130646255Y-60049048D01*
X130729209Y-60173197D01*
X130834789Y-60278777D01*
X130958938Y-60361731D01*
X131096885Y-60418871D01*
X131243329Y-60448000D01*
X131392643Y-60448000D01*
X131539087Y-60418871D01*
X131677034Y-60361731D01*
X131801183Y-60278777D01*
X131906763Y-60173197D01*
X131989717Y-60049048D01*
X132046857Y-59911101D01*
X132075986Y-59764657D01*
X132075986Y-59615343D01*
X132046857Y-59468899D01*
X131997744Y-59350329D01*
X143817002Y-59350329D01*
X143817002Y-59499643D01*
X143846131Y-59646087D01*
X143903271Y-59784034D01*
X143986225Y-59908183D01*
X144091805Y-60013763D01*
X144215954Y-60096717D01*
X144353901Y-60153857D01*
X144500345Y-60182986D01*
X144649659Y-60182986D01*
X144796103Y-60153857D01*
X144934050Y-60096717D01*
X145058199Y-60013763D01*
X145163779Y-59908183D01*
X145219131Y-59825343D01*
X145742000Y-59825343D01*
X145742000Y-59974657D01*
X145771129Y-60121101D01*
X145828269Y-60259048D01*
X145911223Y-60383197D01*
X146016803Y-60488777D01*
X146140952Y-60571731D01*
X146278899Y-60628871D01*
X146425343Y-60658000D01*
X146574657Y-60658000D01*
X146721101Y-60628871D01*
X146859048Y-60571731D01*
X146983197Y-60488777D01*
X147088777Y-60383197D01*
X147171731Y-60259048D01*
X147228871Y-60121101D01*
X147258000Y-59974657D01*
X147258000Y-59925341D01*
X152042002Y-59925341D01*
X152042002Y-60074655D01*
X152071131Y-60221099D01*
X152128271Y-60359046D01*
X152211225Y-60483195D01*
X152316805Y-60588775D01*
X152440954Y-60671729D01*
X152578901Y-60728869D01*
X152725345Y-60757998D01*
X152874659Y-60757998D01*
X153021103Y-60728869D01*
X153159050Y-60671729D01*
X153283199Y-60588775D01*
X153388779Y-60483195D01*
X153471733Y-60359046D01*
X153528873Y-60221099D01*
X153558002Y-60074655D01*
X153558002Y-59925341D01*
X153528873Y-59778897D01*
X153471733Y-59640950D01*
X153388779Y-59516801D01*
X153283199Y-59411221D01*
X153159050Y-59328267D01*
X153021103Y-59271127D01*
X152874659Y-59241998D01*
X152725345Y-59241998D01*
X152578901Y-59271127D01*
X152440954Y-59328267D01*
X152316805Y-59411221D01*
X152211225Y-59516801D01*
X152128271Y-59640950D01*
X152071131Y-59778897D01*
X152042002Y-59925341D01*
X147258000Y-59925341D01*
X147258000Y-59825343D01*
X147228871Y-59678899D01*
X147171731Y-59540952D01*
X147088777Y-59416803D01*
X146983197Y-59311223D01*
X146859048Y-59228269D01*
X146721101Y-59171129D01*
X146574657Y-59142000D01*
X146425343Y-59142000D01*
X146278899Y-59171129D01*
X146140952Y-59228269D01*
X146016803Y-59311223D01*
X145911223Y-59416803D01*
X145828269Y-59540952D01*
X145771129Y-59678899D01*
X145742000Y-59825343D01*
X145219131Y-59825343D01*
X145246733Y-59784034D01*
X145303873Y-59646087D01*
X145333002Y-59499643D01*
X145333002Y-59350329D01*
X145303873Y-59203885D01*
X145246733Y-59065938D01*
X145163779Y-58941789D01*
X145058199Y-58836209D01*
X144934050Y-58753255D01*
X144796103Y-58696115D01*
X144649659Y-58666986D01*
X144500345Y-58666986D01*
X144353901Y-58696115D01*
X144215954Y-58753255D01*
X144091805Y-58836209D01*
X143986225Y-58941789D01*
X143903271Y-59065938D01*
X143846131Y-59203885D01*
X143817002Y-59350329D01*
X131997744Y-59350329D01*
X131989717Y-59330952D01*
X131906763Y-59206803D01*
X131801183Y-59101223D01*
X131677034Y-59018269D01*
X131539087Y-58961129D01*
X131392643Y-58932000D01*
X131243329Y-58932000D01*
X131096885Y-58961129D01*
X130958938Y-59018269D01*
X130834789Y-59101223D01*
X130729209Y-59206803D01*
X130646255Y-59330952D01*
X130589115Y-59468899D01*
X130559986Y-59615343D01*
X115183000Y-59615343D01*
X115183000Y-59424324D01*
X115128892Y-59152301D01*
X115022754Y-58896062D01*
X114868665Y-58665452D01*
X114686713Y-58483500D01*
X114868665Y-58301548D01*
X115022754Y-58070938D01*
X115128892Y-57814699D01*
X115133482Y-57791623D01*
X131494720Y-57791623D01*
X131494720Y-57940937D01*
X131523849Y-58087381D01*
X131580989Y-58225328D01*
X131663943Y-58349477D01*
X131769523Y-58455057D01*
X131893672Y-58538011D01*
X132031619Y-58595151D01*
X132178063Y-58624280D01*
X132327377Y-58624280D01*
X132473821Y-58595151D01*
X132611768Y-58538011D01*
X132735917Y-58455057D01*
X132841497Y-58349477D01*
X132924451Y-58225328D01*
X132981591Y-58087381D01*
X133010720Y-57940937D01*
X133010720Y-57791623D01*
X132981591Y-57645179D01*
X132924451Y-57507232D01*
X132841497Y-57383083D01*
X132735917Y-57277503D01*
X132611768Y-57194549D01*
X132473821Y-57137409D01*
X132327377Y-57108280D01*
X132178063Y-57108280D01*
X132031619Y-57137409D01*
X131893672Y-57194549D01*
X131769523Y-57277503D01*
X131663943Y-57383083D01*
X131580989Y-57507232D01*
X131523849Y-57645179D01*
X131494720Y-57791623D01*
X115133482Y-57791623D01*
X115183000Y-57542676D01*
X115183000Y-57265324D01*
X115128892Y-56993301D01*
X115022754Y-56737062D01*
X114868665Y-56506452D01*
X114672548Y-56310335D01*
X114441938Y-56156246D01*
X114185699Y-56050108D01*
X113913676Y-55996000D01*
X113636324Y-55996000D01*
X113364301Y-56050108D01*
X113108062Y-56156246D01*
X112877452Y-56310335D01*
X112681335Y-56506452D01*
X112527246Y-56737062D01*
X112421108Y-56993301D01*
X112367000Y-57265324D01*
X112367000Y-57542676D01*
X112421108Y-57814699D01*
X112527246Y-58070938D01*
X112681335Y-58301548D01*
X112863287Y-58483500D01*
X112681335Y-58665452D01*
X112527246Y-58896062D01*
X112421108Y-59152301D01*
X112367000Y-59424324D01*
X112367000Y-59701676D01*
X112421108Y-59973699D01*
X112527246Y-60229938D01*
X112681335Y-60460548D01*
X112863287Y-60642500D01*
X112681335Y-60824452D01*
X112527246Y-61055062D01*
X112421108Y-61311301D01*
X112367000Y-61583324D01*
X112367000Y-61860676D01*
X112421108Y-62132699D01*
X112527246Y-62388938D01*
X112626663Y-62537725D01*
X112591405Y-62556571D01*
X112514052Y-62620052D01*
X112450571Y-62697405D01*
X112403399Y-62785657D01*
X112374351Y-62881415D01*
X112364543Y-62981000D01*
X110377900Y-62981000D01*
X110499542Y-62860062D01*
X110515392Y-62840863D01*
X110527191Y-62818941D01*
X110534487Y-62795137D01*
X110537000Y-62770000D01*
X110537000Y-56460000D01*
X110534560Y-56435224D01*
X110527333Y-56411399D01*
X110515597Y-56389443D01*
X110499406Y-56369803D01*
X110117170Y-55990919D01*
X139343006Y-55990919D01*
X139343006Y-56150081D01*
X139374057Y-56306185D01*
X139434965Y-56453232D01*
X139523391Y-56585570D01*
X139635936Y-56698115D01*
X139768274Y-56786541D01*
X139915321Y-56847449D01*
X140071425Y-56878500D01*
X140155000Y-56878500D01*
X140155000Y-56970657D01*
X140184129Y-57117101D01*
X140241269Y-57255048D01*
X140324223Y-57379197D01*
X140429803Y-57484777D01*
X140553952Y-57567731D01*
X140691899Y-57624871D01*
X140838343Y-57654000D01*
X140987657Y-57654000D01*
X141134101Y-57624871D01*
X141272048Y-57567731D01*
X141396197Y-57484777D01*
X141501777Y-57379197D01*
X141584731Y-57255048D01*
X141597035Y-57225343D01*
X152242000Y-57225343D01*
X152242000Y-57374657D01*
X152271129Y-57521101D01*
X152328269Y-57659048D01*
X152411223Y-57783197D01*
X152516803Y-57888777D01*
X152640952Y-57971731D01*
X152778899Y-58028871D01*
X152925343Y-58058000D01*
X153074657Y-58058000D01*
X153221101Y-58028871D01*
X153359048Y-57971731D01*
X153483197Y-57888777D01*
X153588777Y-57783197D01*
X153671731Y-57659048D01*
X153728871Y-57521101D01*
X153758000Y-57374657D01*
X153758000Y-57225343D01*
X153728871Y-57078899D01*
X153671731Y-56940952D01*
X153588777Y-56816803D01*
X153483197Y-56711223D01*
X153359048Y-56628269D01*
X153221101Y-56571129D01*
X153074657Y-56542000D01*
X152925343Y-56542000D01*
X152778899Y-56571129D01*
X152640952Y-56628269D01*
X152516803Y-56711223D01*
X152411223Y-56816803D01*
X152328269Y-56940952D01*
X152271129Y-57078899D01*
X152242000Y-57225343D01*
X141597035Y-57225343D01*
X141641871Y-57117101D01*
X141671000Y-56970657D01*
X141671000Y-56821343D01*
X141670161Y-56817126D01*
X141727343Y-56828500D01*
X141876657Y-56828500D01*
X142023101Y-56799371D01*
X142161048Y-56742231D01*
X142285197Y-56659277D01*
X142390777Y-56553697D01*
X142473731Y-56429548D01*
X142530871Y-56291601D01*
X142560000Y-56145157D01*
X142560000Y-55995843D01*
X142530871Y-55849399D01*
X142473731Y-55711452D01*
X142390777Y-55587303D01*
X142285197Y-55481723D01*
X142161048Y-55398769D01*
X142023101Y-55341629D01*
X141876657Y-55312500D01*
X141727343Y-55312500D01*
X141580899Y-55341629D01*
X141442952Y-55398769D01*
X141318803Y-55481723D01*
X141213223Y-55587303D01*
X141130269Y-55711452D01*
X141073129Y-55849399D01*
X141044000Y-55995843D01*
X141044000Y-56145157D01*
X141044839Y-56149374D01*
X140987657Y-56138000D01*
X140959006Y-56138000D01*
X140959006Y-55990919D01*
X140927955Y-55834815D01*
X140867047Y-55687768D01*
X140778621Y-55555430D01*
X140666076Y-55442885D01*
X140533738Y-55354459D01*
X140386691Y-55293551D01*
X140230587Y-55262500D01*
X140071425Y-55262500D01*
X139915321Y-55293551D01*
X139768274Y-55354459D01*
X139635936Y-55442885D01*
X139523391Y-55555430D01*
X139434965Y-55687768D01*
X139374057Y-55834815D01*
X139343006Y-55990919D01*
X110117170Y-55990919D01*
X109359406Y-55239803D01*
X109340092Y-55224094D01*
X109318083Y-55212454D01*
X109294228Y-55205332D01*
X109270000Y-55203000D01*
X104522870Y-55203000D01*
X104424874Y-55104303D01*
X120613360Y-55104303D01*
X120613360Y-55253617D01*
X120642489Y-55400061D01*
X120699629Y-55538008D01*
X120782583Y-55662157D01*
X120888163Y-55767737D01*
X121012312Y-55850691D01*
X121150259Y-55907831D01*
X121296703Y-55936960D01*
X121446017Y-55936960D01*
X121592461Y-55907831D01*
X121730408Y-55850691D01*
X121854557Y-55767737D01*
X121960137Y-55662157D01*
X122043091Y-55538008D01*
X122100231Y-55400061D01*
X122129360Y-55253617D01*
X122129360Y-55104303D01*
X122100231Y-54957859D01*
X122043091Y-54819912D01*
X121960137Y-54695763D01*
X121854557Y-54590183D01*
X121730408Y-54507229D01*
X121592461Y-54450089D01*
X121446017Y-54420960D01*
X121296703Y-54420960D01*
X121150259Y-54450089D01*
X121012312Y-54507229D01*
X120888163Y-54590183D01*
X120782583Y-54695763D01*
X120699629Y-54819912D01*
X120642489Y-54957859D01*
X120613360Y-55104303D01*
X104424874Y-55104303D01*
X103197000Y-53867659D01*
X103197000Y-53011343D01*
X110430500Y-53011343D01*
X110430500Y-53160657D01*
X110459629Y-53307101D01*
X110516769Y-53445048D01*
X110599723Y-53569197D01*
X110705303Y-53674777D01*
X110829452Y-53757731D01*
X110967399Y-53814871D01*
X111113843Y-53844000D01*
X111263157Y-53844000D01*
X111409601Y-53814871D01*
X111506000Y-53774941D01*
X111602399Y-53814871D01*
X111748843Y-53844000D01*
X111898157Y-53844000D01*
X112044601Y-53814871D01*
X112182548Y-53757731D01*
X112306697Y-53674777D01*
X112412277Y-53569197D01*
X112487687Y-53456337D01*
X117973794Y-53456337D01*
X117973794Y-53605651D01*
X118002923Y-53752095D01*
X118060063Y-53890042D01*
X118143017Y-54014191D01*
X118248597Y-54119771D01*
X118372746Y-54202725D01*
X118510693Y-54259865D01*
X118657137Y-54288994D01*
X118806451Y-54288994D01*
X118952895Y-54259865D01*
X119090842Y-54202725D01*
X119214991Y-54119771D01*
X119320571Y-54014191D01*
X119403525Y-53890042D01*
X119460665Y-53752095D01*
X119489794Y-53605651D01*
X119489794Y-53456337D01*
X119460665Y-53309893D01*
X119403525Y-53171946D01*
X119320571Y-53047797D01*
X119214991Y-52942217D01*
X119090842Y-52859263D01*
X118952895Y-52802123D01*
X118806451Y-52772994D01*
X118657137Y-52772994D01*
X118510693Y-52802123D01*
X118372746Y-52859263D01*
X118248597Y-52942217D01*
X118143017Y-53047797D01*
X118060063Y-53171946D01*
X118002923Y-53309893D01*
X117973794Y-53456337D01*
X112487687Y-53456337D01*
X112495231Y-53445048D01*
X112552371Y-53307101D01*
X112581500Y-53160657D01*
X112581500Y-53011343D01*
X112552371Y-52864899D01*
X112504920Y-52750343D01*
X125142000Y-52750343D01*
X125142000Y-52899657D01*
X125171129Y-53046101D01*
X125228269Y-53184048D01*
X125311223Y-53308197D01*
X125416803Y-53413777D01*
X125540952Y-53496731D01*
X125678899Y-53553871D01*
X125825343Y-53583000D01*
X125974657Y-53583000D01*
X126121101Y-53553871D01*
X126259048Y-53496731D01*
X126383197Y-53413777D01*
X126419871Y-53377103D01*
X127578040Y-53377103D01*
X127578040Y-53526417D01*
X127607169Y-53672861D01*
X127664309Y-53810808D01*
X127747263Y-53934957D01*
X127852843Y-54040537D01*
X127976992Y-54123491D01*
X128114939Y-54180631D01*
X128261383Y-54209760D01*
X128410697Y-54209760D01*
X128557141Y-54180631D01*
X128695088Y-54123491D01*
X128819237Y-54040537D01*
X128924817Y-53934957D01*
X129007771Y-53810808D01*
X129064911Y-53672861D01*
X129094040Y-53526417D01*
X129094040Y-53377103D01*
X129064911Y-53230659D01*
X129007771Y-53092712D01*
X128924817Y-52968563D01*
X128819237Y-52862983D01*
X128695088Y-52780029D01*
X128557141Y-52722889D01*
X128410697Y-52693760D01*
X128261383Y-52693760D01*
X128114939Y-52722889D01*
X127976992Y-52780029D01*
X127852843Y-52862983D01*
X127747263Y-52968563D01*
X127664309Y-53092712D01*
X127607169Y-53230659D01*
X127578040Y-53377103D01*
X126419871Y-53377103D01*
X126488777Y-53308197D01*
X126571731Y-53184048D01*
X126628871Y-53046101D01*
X126658000Y-52899657D01*
X126658000Y-52750343D01*
X126628871Y-52603899D01*
X126571731Y-52465952D01*
X126508566Y-52371419D01*
X146392000Y-52371419D01*
X146392000Y-52530581D01*
X146423051Y-52686685D01*
X146483959Y-52833732D01*
X146572385Y-52966070D01*
X146684930Y-53078615D01*
X146817268Y-53167041D01*
X146952461Y-53223039D01*
X147008459Y-53358232D01*
X147096885Y-53490570D01*
X147209430Y-53603115D01*
X147341768Y-53691541D01*
X147488815Y-53752449D01*
X147496102Y-53753898D01*
X147497551Y-53761185D01*
X147558459Y-53908232D01*
X147646885Y-54040570D01*
X147759430Y-54153115D01*
X147891768Y-54241541D01*
X148038815Y-54302449D01*
X148194919Y-54333500D01*
X148354081Y-54333500D01*
X148510185Y-54302449D01*
X148657232Y-54241541D01*
X148789570Y-54153115D01*
X148902115Y-54040570D01*
X148990541Y-53908232D01*
X149051449Y-53761185D01*
X149082500Y-53605081D01*
X149082500Y-53445919D01*
X149051449Y-53289815D01*
X148990541Y-53142768D01*
X148902115Y-53010430D01*
X148789570Y-52897885D01*
X148657232Y-52809459D01*
X148510185Y-52748551D01*
X148502898Y-52747102D01*
X148501449Y-52739815D01*
X148440541Y-52592768D01*
X148352115Y-52460430D01*
X148239570Y-52347885D01*
X148107232Y-52259459D01*
X147972039Y-52203461D01*
X147916041Y-52068268D01*
X147827615Y-51935930D01*
X147715070Y-51823385D01*
X147582732Y-51734959D01*
X147435685Y-51674051D01*
X147279581Y-51643000D01*
X147120419Y-51643000D01*
X146964315Y-51674051D01*
X146817268Y-51734959D01*
X146684930Y-51823385D01*
X146572385Y-51935930D01*
X146483959Y-52068268D01*
X146423051Y-52215315D01*
X146392000Y-52371419D01*
X126508566Y-52371419D01*
X126488777Y-52341803D01*
X126383197Y-52236223D01*
X126259048Y-52153269D01*
X126121101Y-52096129D01*
X125974657Y-52067000D01*
X125825343Y-52067000D01*
X125678899Y-52096129D01*
X125540952Y-52153269D01*
X125416803Y-52236223D01*
X125311223Y-52341803D01*
X125228269Y-52465952D01*
X125171129Y-52603899D01*
X125142000Y-52750343D01*
X112504920Y-52750343D01*
X112495231Y-52726952D01*
X112412277Y-52602803D01*
X112306697Y-52497223D01*
X112182548Y-52414269D01*
X112044601Y-52357129D01*
X111898157Y-52328000D01*
X111748843Y-52328000D01*
X111602399Y-52357129D01*
X111506000Y-52397059D01*
X111409601Y-52357129D01*
X111263157Y-52328000D01*
X111113843Y-52328000D01*
X110967399Y-52357129D01*
X110829452Y-52414269D01*
X110705303Y-52497223D01*
X110599723Y-52602803D01*
X110516769Y-52726952D01*
X110459629Y-52864899D01*
X110430500Y-53011343D01*
X103197000Y-53011343D01*
X103197000Y-51672919D01*
X118572000Y-51672919D01*
X118572000Y-51832081D01*
X118603051Y-51988185D01*
X118663959Y-52135232D01*
X118752385Y-52267570D01*
X118864930Y-52380115D01*
X118997268Y-52468541D01*
X119144315Y-52529449D01*
X119300419Y-52560500D01*
X119459581Y-52560500D01*
X119615685Y-52529449D01*
X119762732Y-52468541D01*
X119895070Y-52380115D01*
X120007615Y-52267570D01*
X120096041Y-52135232D01*
X120156949Y-51988185D01*
X120188000Y-51832081D01*
X120188000Y-51672919D01*
X120156949Y-51516815D01*
X120096041Y-51369768D01*
X120007615Y-51237430D01*
X119895070Y-51124885D01*
X119762732Y-51036459D01*
X119615685Y-50975551D01*
X119459581Y-50944500D01*
X119300419Y-50944500D01*
X119144315Y-50975551D01*
X118997268Y-51036459D01*
X118864930Y-51124885D01*
X118752385Y-51237430D01*
X118663959Y-51369768D01*
X118603051Y-51516815D01*
X118572000Y-51672919D01*
X103197000Y-51672919D01*
X103197000Y-50250343D01*
X121842000Y-50250343D01*
X121842000Y-50399657D01*
X121871129Y-50546101D01*
X121928269Y-50684048D01*
X122011223Y-50808197D01*
X122116803Y-50913777D01*
X122240952Y-50996731D01*
X122378899Y-51053871D01*
X122525343Y-51083000D01*
X122674657Y-51083000D01*
X122821101Y-51053871D01*
X122959048Y-50996731D01*
X123083197Y-50913777D01*
X123188777Y-50808197D01*
X123271731Y-50684048D01*
X123328871Y-50546101D01*
X123358000Y-50399657D01*
X123358000Y-50250343D01*
X124042000Y-50250343D01*
X124042000Y-50399657D01*
X124071129Y-50546101D01*
X124128269Y-50684048D01*
X124211223Y-50808197D01*
X124316803Y-50913777D01*
X124440952Y-50996731D01*
X124578899Y-51053871D01*
X124725343Y-51083000D01*
X124874657Y-51083000D01*
X125021101Y-51053871D01*
X125159048Y-50996731D01*
X125283197Y-50913777D01*
X125388777Y-50808197D01*
X125471731Y-50684048D01*
X125528871Y-50546101D01*
X125558000Y-50399657D01*
X125558000Y-50268143D01*
X126231840Y-50268143D01*
X126231840Y-50417457D01*
X126260969Y-50563901D01*
X126318109Y-50701848D01*
X126401063Y-50825997D01*
X126506643Y-50931577D01*
X126630792Y-51014531D01*
X126768739Y-51071671D01*
X126915183Y-51100800D01*
X127064497Y-51100800D01*
X127210941Y-51071671D01*
X127348888Y-51014531D01*
X127473037Y-50931577D01*
X127578617Y-50825997D01*
X127661571Y-50701848D01*
X127718711Y-50563901D01*
X127747840Y-50417457D01*
X127747840Y-50275343D01*
X128417000Y-50275343D01*
X128417000Y-50424657D01*
X128446129Y-50571101D01*
X128503269Y-50709048D01*
X128586223Y-50833197D01*
X128691803Y-50938777D01*
X128815952Y-51021731D01*
X128953899Y-51078871D01*
X129100343Y-51108000D01*
X129249657Y-51108000D01*
X129396101Y-51078871D01*
X129534048Y-51021731D01*
X129658197Y-50938777D01*
X129737500Y-50859474D01*
X129841803Y-50963777D01*
X129965952Y-51046731D01*
X130103899Y-51103871D01*
X130250343Y-51133000D01*
X130399657Y-51133000D01*
X130546101Y-51103871D01*
X130684048Y-51046731D01*
X130808197Y-50963777D01*
X130913777Y-50858197D01*
X130996731Y-50734048D01*
X131053871Y-50596101D01*
X131083000Y-50449657D01*
X131083000Y-50300343D01*
X131053871Y-50153899D01*
X130996731Y-50015952D01*
X130913777Y-49891803D01*
X130808197Y-49786223D01*
X130684048Y-49703269D01*
X130546101Y-49646129D01*
X130399657Y-49617000D01*
X130250343Y-49617000D01*
X130103899Y-49646129D01*
X129965952Y-49703269D01*
X129841803Y-49786223D01*
X129762500Y-49865526D01*
X129658197Y-49761223D01*
X129534048Y-49678269D01*
X129396101Y-49621129D01*
X129249657Y-49592000D01*
X129100343Y-49592000D01*
X128953899Y-49621129D01*
X128815952Y-49678269D01*
X128691803Y-49761223D01*
X128586223Y-49866803D01*
X128503269Y-49990952D01*
X128446129Y-50128899D01*
X128417000Y-50275343D01*
X127747840Y-50275343D01*
X127747840Y-50268143D01*
X127718711Y-50121699D01*
X127661571Y-49983752D01*
X127578617Y-49859603D01*
X127473037Y-49754023D01*
X127348888Y-49671069D01*
X127210941Y-49613929D01*
X127064497Y-49584800D01*
X126915183Y-49584800D01*
X126768739Y-49613929D01*
X126630792Y-49671069D01*
X126506643Y-49754023D01*
X126401063Y-49859603D01*
X126318109Y-49983752D01*
X126260969Y-50121699D01*
X126231840Y-50268143D01*
X125558000Y-50268143D01*
X125558000Y-50250343D01*
X125528871Y-50103899D01*
X125471731Y-49965952D01*
X125388777Y-49841803D01*
X125283197Y-49736223D01*
X125159048Y-49653269D01*
X125021101Y-49596129D01*
X124874657Y-49567000D01*
X124725343Y-49567000D01*
X124578899Y-49596129D01*
X124440952Y-49653269D01*
X124316803Y-49736223D01*
X124211223Y-49841803D01*
X124128269Y-49965952D01*
X124071129Y-50103899D01*
X124042000Y-50250343D01*
X123358000Y-50250343D01*
X123328871Y-50103899D01*
X123271731Y-49965952D01*
X123188777Y-49841803D01*
X123083197Y-49736223D01*
X122959048Y-49653269D01*
X122821101Y-49596129D01*
X122674657Y-49567000D01*
X122525343Y-49567000D01*
X122378899Y-49596129D01*
X122240952Y-49653269D01*
X122116803Y-49736223D01*
X122011223Y-49841803D01*
X121928269Y-49965952D01*
X121871129Y-50103899D01*
X121842000Y-50250343D01*
X103197000Y-50250343D01*
X103197000Y-50090000D01*
X103194560Y-50065224D01*
X103187333Y-50041399D01*
X103175597Y-50019443D01*
X103159359Y-49999756D01*
X102139359Y-48989756D01*
X102120036Y-48974057D01*
X102098022Y-48962429D01*
X102074163Y-48955320D01*
X102050000Y-48953000D01*
X96590000Y-48953000D01*
X96565224Y-48955440D01*
X96541399Y-48962667D01*
X96519443Y-48974403D01*
X96499321Y-48991082D01*
X95489321Y-50021082D01*
X95473717Y-50040481D01*
X95462196Y-50062552D01*
X95455203Y-50086446D01*
X95453000Y-50110000D01*
X95453000Y-56807288D01*
X92000326Y-60250069D01*
X91984505Y-60269291D01*
X91972737Y-60291231D01*
X91965476Y-60315045D01*
X91963000Y-60340000D01*
X91963000Y-65467000D01*
X68463160Y-65467000D01*
X68463160Y-60256420D01*
X68460720Y-60231644D01*
X68453493Y-60207819D01*
X68441757Y-60185863D01*
X68425900Y-60166555D01*
X67466964Y-59208943D01*
X75458400Y-59208943D01*
X75458400Y-59358257D01*
X75487529Y-59504701D01*
X75544669Y-59642648D01*
X75627623Y-59766797D01*
X75733203Y-59872377D01*
X75857352Y-59955331D01*
X75995299Y-60012471D01*
X76141743Y-60041600D01*
X76291057Y-60041600D01*
X76437501Y-60012471D01*
X76575448Y-59955331D01*
X76699597Y-59872377D01*
X76805177Y-59766797D01*
X76888131Y-59642648D01*
X76945271Y-59504701D01*
X76974400Y-59358257D01*
X76974400Y-59208943D01*
X76945271Y-59062499D01*
X76888131Y-58924552D01*
X76885370Y-58920419D01*
X81692000Y-58920419D01*
X81692000Y-59079581D01*
X81723051Y-59235685D01*
X81783959Y-59382732D01*
X81872385Y-59515070D01*
X81984930Y-59627615D01*
X82117268Y-59716041D01*
X82264315Y-59776949D01*
X82420419Y-59808000D01*
X82579581Y-59808000D01*
X82735685Y-59776949D01*
X82882732Y-59716041D01*
X83015070Y-59627615D01*
X83127615Y-59515070D01*
X83216041Y-59382732D01*
X83276949Y-59235685D01*
X83308000Y-59079581D01*
X83308000Y-58920419D01*
X83276949Y-58764315D01*
X83216041Y-58617268D01*
X83127615Y-58484930D01*
X83015070Y-58372385D01*
X82882732Y-58283959D01*
X82735685Y-58223051D01*
X82579581Y-58192000D01*
X82420419Y-58192000D01*
X82264315Y-58223051D01*
X82117268Y-58283959D01*
X81984930Y-58372385D01*
X81872385Y-58484930D01*
X81783959Y-58617268D01*
X81723051Y-58764315D01*
X81692000Y-58920419D01*
X76885370Y-58920419D01*
X76805177Y-58800403D01*
X76699597Y-58694823D01*
X76575448Y-58611869D01*
X76437501Y-58554729D01*
X76291057Y-58525600D01*
X76141743Y-58525600D01*
X75995299Y-58554729D01*
X75857352Y-58611869D01*
X75733203Y-58694823D01*
X75627623Y-58800403D01*
X75544669Y-58924552D01*
X75487529Y-59062499D01*
X75458400Y-59208943D01*
X67466964Y-59208943D01*
X66624200Y-58367344D01*
X66624200Y-56820419D01*
X69292000Y-56820419D01*
X69292000Y-56979581D01*
X69323051Y-57135685D01*
X69383959Y-57282732D01*
X69472385Y-57415070D01*
X69584930Y-57527615D01*
X69717268Y-57616041D01*
X69864315Y-57676949D01*
X70020419Y-57708000D01*
X70179581Y-57708000D01*
X70335685Y-57676949D01*
X70482732Y-57616041D01*
X70615070Y-57527615D01*
X70727615Y-57415070D01*
X70816041Y-57282732D01*
X70876949Y-57135685D01*
X70908000Y-56979581D01*
X70908000Y-56820419D01*
X70876949Y-56664315D01*
X70816041Y-56517268D01*
X70727615Y-56384930D01*
X70615070Y-56272385D01*
X70482732Y-56183959D01*
X70335685Y-56123051D01*
X70179581Y-56092000D01*
X70020419Y-56092000D01*
X69864315Y-56123051D01*
X69717268Y-56183959D01*
X69584930Y-56272385D01*
X69472385Y-56384930D01*
X69383959Y-56517268D01*
X69323051Y-56664315D01*
X69292000Y-56820419D01*
X66624200Y-56820419D01*
X66624200Y-55118000D01*
X66621760Y-55093224D01*
X66614533Y-55069399D01*
X66602797Y-55047443D01*
X66586890Y-55028085D01*
X65568350Y-54012085D01*
X65549086Y-53996315D01*
X65527114Y-53984607D01*
X65503281Y-53977409D01*
X65478660Y-53975000D01*
X58877200Y-53975000D01*
X58852424Y-53977440D01*
X58828599Y-53984667D01*
X58806643Y-53996403D01*
X58787397Y-54012197D01*
X57771397Y-55028197D01*
X57755603Y-55047443D01*
X57743867Y-55069399D01*
X57736640Y-55093224D01*
X57734200Y-55118000D01*
X57734200Y-58397874D01*
X55962917Y-60169157D01*
X55947123Y-60188403D01*
X55935387Y-60210359D01*
X55928160Y-60234184D01*
X55925720Y-60258960D01*
X55925720Y-65467000D01*
X55742355Y-65467000D01*
X55393309Y-65450833D01*
X55092830Y-65376740D01*
X54812463Y-65245693D01*
X54562897Y-65062690D01*
X54353621Y-64834690D01*
X54192620Y-64570389D01*
X54086021Y-64279850D01*
X54034634Y-63953490D01*
X54033000Y-63911234D01*
X54033000Y-52455343D01*
X81732000Y-52455343D01*
X81732000Y-52604657D01*
X81761129Y-52751101D01*
X81818269Y-52889048D01*
X81901223Y-53013197D01*
X82006803Y-53118777D01*
X82130952Y-53201731D01*
X82268899Y-53258871D01*
X82415343Y-53288000D01*
X82564657Y-53288000D01*
X82711101Y-53258871D01*
X82849048Y-53201731D01*
X82973197Y-53118777D01*
X83078777Y-53013197D01*
X83161731Y-52889048D01*
X83218871Y-52751101D01*
X83248000Y-52604657D01*
X83248000Y-52455343D01*
X83218871Y-52308899D01*
X83161731Y-52170952D01*
X83078777Y-52046803D01*
X82973197Y-51941223D01*
X82849048Y-51858269D01*
X82711101Y-51801129D01*
X82564657Y-51772000D01*
X82415343Y-51772000D01*
X82268899Y-51801129D01*
X82130952Y-51858269D01*
X82006803Y-51941223D01*
X81901223Y-52046803D01*
X81818269Y-52170952D01*
X81761129Y-52308899D01*
X81732000Y-52455343D01*
X54033000Y-52455343D01*
X54033000Y-51515343D01*
X71562000Y-51515343D01*
X71562000Y-51664657D01*
X71591129Y-51811101D01*
X71648269Y-51949048D01*
X71731223Y-52073197D01*
X71836803Y-52178777D01*
X71960952Y-52261731D01*
X72098899Y-52318871D01*
X72245343Y-52348000D01*
X72394657Y-52348000D01*
X72541101Y-52318871D01*
X72679048Y-52261731D01*
X72803197Y-52178777D01*
X72908777Y-52073197D01*
X72991731Y-51949048D01*
X73048871Y-51811101D01*
X73078000Y-51664657D01*
X73078000Y-51515343D01*
X73048871Y-51368899D01*
X72991731Y-51230952D01*
X72908777Y-51106803D01*
X72803197Y-51001223D01*
X72679048Y-50918269D01*
X72541101Y-50861129D01*
X72394657Y-50832000D01*
X72245343Y-50832000D01*
X72098899Y-50861129D01*
X71960952Y-50918269D01*
X71836803Y-51001223D01*
X71731223Y-51106803D01*
X71648269Y-51230952D01*
X71591129Y-51368899D01*
X71562000Y-51515343D01*
X54033000Y-51515343D01*
X54033000Y-50725343D01*
X74069200Y-50725343D01*
X74069200Y-50874657D01*
X74098329Y-51021101D01*
X74155469Y-51159048D01*
X74238423Y-51283197D01*
X74344003Y-51388777D01*
X74468152Y-51471731D01*
X74606099Y-51528871D01*
X74752543Y-51558000D01*
X74901857Y-51558000D01*
X75048301Y-51528871D01*
X75186248Y-51471731D01*
X75310397Y-51388777D01*
X75415977Y-51283197D01*
X75498931Y-51159048D01*
X75556071Y-51021101D01*
X75585200Y-50874657D01*
X75585200Y-50725343D01*
X75556071Y-50578899D01*
X75498931Y-50440952D01*
X75415977Y-50316803D01*
X75310397Y-50211223D01*
X75186248Y-50128269D01*
X75048301Y-50071129D01*
X74901857Y-50042000D01*
X74752543Y-50042000D01*
X74606099Y-50071129D01*
X74468152Y-50128269D01*
X74344003Y-50211223D01*
X74238423Y-50316803D01*
X74155469Y-50440952D01*
X74098329Y-50578899D01*
X74069200Y-50725343D01*
X54033000Y-50725343D01*
X54033000Y-49760143D01*
X76710800Y-49760143D01*
X76710800Y-49909457D01*
X76739929Y-50055901D01*
X76797069Y-50193848D01*
X76880023Y-50317997D01*
X76985603Y-50423577D01*
X77109752Y-50506531D01*
X77247699Y-50563671D01*
X77394143Y-50592800D01*
X77543457Y-50592800D01*
X77689901Y-50563671D01*
X77827848Y-50506531D01*
X77951997Y-50423577D01*
X78057577Y-50317997D01*
X78140531Y-50193848D01*
X78197671Y-50055901D01*
X78226800Y-49909457D01*
X78226800Y-49760143D01*
X79708000Y-49760143D01*
X79708000Y-49909457D01*
X79737129Y-50055901D01*
X79794269Y-50193848D01*
X79877223Y-50317997D01*
X79982803Y-50423577D01*
X80106952Y-50506531D01*
X80244899Y-50563671D01*
X80391343Y-50592800D01*
X80540657Y-50592800D01*
X80687101Y-50563671D01*
X80825048Y-50506531D01*
X80949197Y-50423577D01*
X81054777Y-50317997D01*
X81137731Y-50193848D01*
X81194871Y-50055901D01*
X81224000Y-49909457D01*
X81224000Y-49760143D01*
X81194871Y-49613699D01*
X81137731Y-49475752D01*
X81054777Y-49351603D01*
X80949197Y-49246023D01*
X80825048Y-49163069D01*
X80687101Y-49105929D01*
X80540657Y-49076800D01*
X80391343Y-49076800D01*
X80244899Y-49105929D01*
X80106952Y-49163069D01*
X79982803Y-49246023D01*
X79877223Y-49351603D01*
X79794269Y-49475752D01*
X79737129Y-49613699D01*
X79708000Y-49760143D01*
X78226800Y-49760143D01*
X78197671Y-49613699D01*
X78140531Y-49475752D01*
X78057577Y-49351603D01*
X77951997Y-49246023D01*
X77827848Y-49163069D01*
X77689901Y-49105929D01*
X77543457Y-49076800D01*
X77394143Y-49076800D01*
X77247699Y-49105929D01*
X77109752Y-49163069D01*
X76985603Y-49246023D01*
X76880023Y-49351603D01*
X76797069Y-49475752D01*
X76739929Y-49613699D01*
X76710800Y-49760143D01*
X54033000Y-49760143D01*
X54033000Y-45899343D01*
X57852500Y-45899343D01*
X57852500Y-46048657D01*
X57881629Y-46195101D01*
X57938769Y-46333048D01*
X58021723Y-46457197D01*
X58127303Y-46562777D01*
X58251452Y-46645731D01*
X58389399Y-46702871D01*
X58535843Y-46732000D01*
X58685157Y-46732000D01*
X58831601Y-46702871D01*
X58969548Y-46645731D01*
X59093697Y-46562777D01*
X59199277Y-46457197D01*
X59282231Y-46333048D01*
X59339371Y-46195101D01*
X59368500Y-46048657D01*
X59368500Y-45899343D01*
X59503500Y-45899343D01*
X59503500Y-46048657D01*
X59532629Y-46195101D01*
X59589769Y-46333048D01*
X59672723Y-46457197D01*
X59778303Y-46562777D01*
X59902452Y-46645731D01*
X60040399Y-46702871D01*
X60186843Y-46732000D01*
X60336157Y-46732000D01*
X60482601Y-46702871D01*
X60620548Y-46645731D01*
X60744697Y-46562777D01*
X60850277Y-46457197D01*
X60933231Y-46333048D01*
X60990371Y-46195101D01*
X61019500Y-46048657D01*
X61019500Y-45899343D01*
X60990371Y-45752899D01*
X60933231Y-45614952D01*
X60850277Y-45490803D01*
X60744697Y-45385223D01*
X60655720Y-45325770D01*
X99471400Y-45325770D01*
X99471400Y-45504630D01*
X99506294Y-45680054D01*
X99574741Y-45845299D01*
X99674111Y-45994016D01*
X99800584Y-46120489D01*
X99949301Y-46219859D01*
X100114546Y-46288306D01*
X100289970Y-46323200D01*
X100468830Y-46323200D01*
X100644254Y-46288306D01*
X100809499Y-46219859D01*
X100958216Y-46120489D01*
X101084689Y-45994016D01*
X101184059Y-45845299D01*
X101252506Y-45680054D01*
X101287400Y-45504630D01*
X101287400Y-45325770D01*
X101252506Y-45150346D01*
X101184059Y-44985101D01*
X101084689Y-44836384D01*
X100958216Y-44709911D01*
X100809499Y-44610541D01*
X100644254Y-44542094D01*
X100468830Y-44507200D01*
X100289970Y-44507200D01*
X100114546Y-44542094D01*
X99949301Y-44610541D01*
X99800584Y-44709911D01*
X99674111Y-44836384D01*
X99574741Y-44985101D01*
X99506294Y-45150346D01*
X99471400Y-45325770D01*
X60655720Y-45325770D01*
X60620548Y-45302269D01*
X60482601Y-45245129D01*
X60336157Y-45216000D01*
X60186843Y-45216000D01*
X60040399Y-45245129D01*
X59902452Y-45302269D01*
X59778303Y-45385223D01*
X59672723Y-45490803D01*
X59589769Y-45614952D01*
X59532629Y-45752899D01*
X59503500Y-45899343D01*
X59368500Y-45899343D01*
X59339371Y-45752899D01*
X59282231Y-45614952D01*
X59199277Y-45490803D01*
X59093697Y-45385223D01*
X58969548Y-45302269D01*
X58831601Y-45245129D01*
X58685157Y-45216000D01*
X58535843Y-45216000D01*
X58389399Y-45245129D01*
X58251452Y-45302269D01*
X58127303Y-45385223D01*
X58021723Y-45490803D01*
X57938769Y-45614952D01*
X57881629Y-45752899D01*
X57852500Y-45899343D01*
X54033000Y-45899343D01*
X54033000Y-40560419D01*
X84212000Y-40560419D01*
X84212000Y-40719581D01*
X84243051Y-40875685D01*
X84303959Y-41022732D01*
X84392385Y-41155070D01*
X84504930Y-41267615D01*
X84637268Y-41356041D01*
X84784315Y-41416949D01*
X84940419Y-41448000D01*
X85099581Y-41448000D01*
X85255685Y-41416949D01*
X85402732Y-41356041D01*
X85535070Y-41267615D01*
X85647615Y-41155070D01*
X85736041Y-41022732D01*
X85796949Y-40875685D01*
X85828000Y-40719581D01*
X85828000Y-40560419D01*
X86772000Y-40560419D01*
X86772000Y-40719581D01*
X86803051Y-40875685D01*
X86863959Y-41022732D01*
X86952385Y-41155070D01*
X87064930Y-41267615D01*
X87197268Y-41356041D01*
X87344315Y-41416949D01*
X87500419Y-41448000D01*
X87659581Y-41448000D01*
X87815685Y-41416949D01*
X87962732Y-41356041D01*
X88095070Y-41267615D01*
X88207615Y-41155070D01*
X88296041Y-41022732D01*
X88356949Y-40875685D01*
X88388000Y-40719581D01*
X88388000Y-40565343D01*
X96397000Y-40565343D01*
X96397000Y-40714657D01*
X96426129Y-40861101D01*
X96483269Y-40999048D01*
X96497000Y-41019598D01*
X96497000Y-41115681D01*
X96493817Y-41148000D01*
X96497000Y-41180319D01*
X96506521Y-41276990D01*
X96544147Y-41401024D01*
X96605246Y-41515334D01*
X96687474Y-41615527D01*
X96712575Y-41636127D01*
X99079870Y-44003423D01*
X99100473Y-44028527D01*
X99200666Y-44110754D01*
X99314976Y-44171853D01*
X99439010Y-44209479D01*
X99535681Y-44219000D01*
X99535691Y-44219000D01*
X99567999Y-44222182D01*
X99600308Y-44219000D01*
X102216448Y-44219000D01*
X103863000Y-45865553D01*
X103863001Y-48044403D01*
X103804959Y-48131268D01*
X103744051Y-48278315D01*
X103713000Y-48434419D01*
X103713000Y-48593581D01*
X103744051Y-48749685D01*
X103804959Y-48896732D01*
X103893385Y-49029070D01*
X104005930Y-49141615D01*
X104138268Y-49230041D01*
X104285315Y-49290949D01*
X104441419Y-49322000D01*
X104600581Y-49322000D01*
X104756685Y-49290949D01*
X104903732Y-49230041D01*
X105036070Y-49141615D01*
X105148615Y-49029070D01*
X105237041Y-48896732D01*
X105297949Y-48749685D01*
X105329000Y-48593581D01*
X105329000Y-48434419D01*
X105297949Y-48278315D01*
X105237041Y-48131268D01*
X105179000Y-48044404D01*
X105179000Y-47540494D01*
X138016500Y-47540494D01*
X138016500Y-47709506D01*
X138049473Y-47875269D01*
X138114151Y-48031415D01*
X138208048Y-48171943D01*
X138327557Y-48291452D01*
X138468085Y-48385349D01*
X138624231Y-48450027D01*
X138789994Y-48483000D01*
X138959006Y-48483000D01*
X139124769Y-48450027D01*
X139280915Y-48385349D01*
X139350750Y-48338687D01*
X139392000Y-48366249D01*
X139392000Y-48534506D01*
X139424973Y-48700269D01*
X139489651Y-48856415D01*
X139502069Y-48875000D01*
X139489651Y-48893585D01*
X139424973Y-49049731D01*
X139392000Y-49215494D01*
X139392000Y-49384506D01*
X139424973Y-49550269D01*
X139489651Y-49706415D01*
X139518773Y-49750000D01*
X139489651Y-49793585D01*
X139424973Y-49949731D01*
X139392000Y-50115494D01*
X139392000Y-50284506D01*
X139424973Y-50450269D01*
X139489651Y-50606415D01*
X139583548Y-50746943D01*
X139703057Y-50866452D01*
X139843585Y-50960349D01*
X139999731Y-51025027D01*
X140165494Y-51058000D01*
X140334506Y-51058000D01*
X140500269Y-51025027D01*
X140656415Y-50960349D01*
X140796943Y-50866452D01*
X140916452Y-50746943D01*
X141010349Y-50606415D01*
X141075027Y-50450269D01*
X141108000Y-50284506D01*
X141108000Y-50115494D01*
X141078531Y-49967343D01*
X152392000Y-49967343D01*
X152392000Y-50116657D01*
X152421129Y-50263101D01*
X152478269Y-50401048D01*
X152561223Y-50525197D01*
X152666803Y-50630777D01*
X152790952Y-50713731D01*
X152928899Y-50770871D01*
X153075343Y-50800000D01*
X153224657Y-50800000D01*
X153371101Y-50770871D01*
X153509048Y-50713731D01*
X153633197Y-50630777D01*
X153738777Y-50525197D01*
X153821731Y-50401048D01*
X153878871Y-50263101D01*
X153908000Y-50116657D01*
X153908000Y-49967343D01*
X153878871Y-49820899D01*
X153821731Y-49682952D01*
X153738777Y-49558803D01*
X153633197Y-49453223D01*
X153509048Y-49370269D01*
X153371101Y-49313129D01*
X153224657Y-49284000D01*
X153075343Y-49284000D01*
X152928899Y-49313129D01*
X152790952Y-49370269D01*
X152666803Y-49453223D01*
X152561223Y-49558803D01*
X152478269Y-49682952D01*
X152421129Y-49820899D01*
X152392000Y-49967343D01*
X141078531Y-49967343D01*
X141075027Y-49949731D01*
X141010349Y-49793585D01*
X140981227Y-49750000D01*
X141010349Y-49706415D01*
X141075027Y-49550269D01*
X141108000Y-49384506D01*
X141108000Y-49215494D01*
X141075027Y-49049731D01*
X141010349Y-48893585D01*
X140997931Y-48875000D01*
X141010349Y-48856415D01*
X141075027Y-48700269D01*
X141108000Y-48534506D01*
X141108000Y-48417623D01*
X141185915Y-48385349D01*
X141326443Y-48291452D01*
X141432552Y-48185343D01*
X146689000Y-48185343D01*
X146689000Y-48334657D01*
X146718129Y-48481101D01*
X146775269Y-48619048D01*
X146858223Y-48743197D01*
X146963803Y-48848777D01*
X147087952Y-48931731D01*
X147225899Y-48988871D01*
X147372343Y-49018000D01*
X147521657Y-49018000D01*
X147668101Y-48988871D01*
X147806048Y-48931731D01*
X147930197Y-48848777D01*
X148035777Y-48743197D01*
X148118731Y-48619048D01*
X148175871Y-48481101D01*
X148205000Y-48334657D01*
X148205000Y-48185343D01*
X148175871Y-48038899D01*
X148118731Y-47900952D01*
X148035777Y-47776803D01*
X147930197Y-47671223D01*
X147806048Y-47588269D01*
X147668101Y-47531129D01*
X147521657Y-47502000D01*
X147372343Y-47502000D01*
X147225899Y-47531129D01*
X147087952Y-47588269D01*
X146963803Y-47671223D01*
X146858223Y-47776803D01*
X146775269Y-47900952D01*
X146718129Y-48038899D01*
X146689000Y-48185343D01*
X141432552Y-48185343D01*
X141445952Y-48171943D01*
X141539849Y-48031415D01*
X141604527Y-47875269D01*
X141637500Y-47709506D01*
X141637500Y-47540494D01*
X141604527Y-47374731D01*
X141539849Y-47218585D01*
X141445952Y-47078057D01*
X141326443Y-46958548D01*
X141185915Y-46864651D01*
X141029769Y-46799973D01*
X140864006Y-46767000D01*
X140694994Y-46767000D01*
X140529231Y-46799973D01*
X140373085Y-46864651D01*
X140303250Y-46911313D01*
X140233415Y-46864651D01*
X140077269Y-46799973D01*
X139911506Y-46767000D01*
X139742494Y-46767000D01*
X139576731Y-46799973D01*
X139420585Y-46864651D01*
X139350750Y-46911313D01*
X139280915Y-46864651D01*
X139124769Y-46799973D01*
X138959006Y-46767000D01*
X138789994Y-46767000D01*
X138624231Y-46799973D01*
X138468085Y-46864651D01*
X138327557Y-46958548D01*
X138208048Y-47078057D01*
X138114151Y-47218585D01*
X138049473Y-47374731D01*
X138016500Y-47540494D01*
X105179000Y-47540494D01*
X105179000Y-46402419D01*
X148290000Y-46402419D01*
X148290000Y-46561581D01*
X148321051Y-46717685D01*
X148381242Y-46863000D01*
X148321051Y-47008315D01*
X148290000Y-47164419D01*
X148290000Y-47323581D01*
X148321051Y-47479685D01*
X148381242Y-47625000D01*
X148321051Y-47770315D01*
X148290000Y-47926419D01*
X148290000Y-48085581D01*
X148321051Y-48241685D01*
X148381242Y-48387000D01*
X148321051Y-48532315D01*
X148290000Y-48688419D01*
X148290000Y-48847581D01*
X148321051Y-49003685D01*
X148381959Y-49150732D01*
X148470385Y-49283070D01*
X148582930Y-49395615D01*
X148715268Y-49484041D01*
X148862315Y-49544949D01*
X149018419Y-49576000D01*
X149177581Y-49576000D01*
X149333685Y-49544949D01*
X149480732Y-49484041D01*
X149613070Y-49395615D01*
X149725615Y-49283070D01*
X149814041Y-49150732D01*
X149874949Y-49003685D01*
X149906000Y-48847581D01*
X149906000Y-48688419D01*
X149874949Y-48532315D01*
X149814758Y-48387000D01*
X149874949Y-48241685D01*
X149906000Y-48085581D01*
X149906000Y-47926419D01*
X149874949Y-47770315D01*
X149814758Y-47625000D01*
X149874949Y-47479685D01*
X149906000Y-47323581D01*
X149906000Y-47164419D01*
X149874949Y-47008315D01*
X149814758Y-46863000D01*
X149874949Y-46717685D01*
X149906000Y-46561581D01*
X149906000Y-46402419D01*
X149874949Y-46246315D01*
X149814041Y-46099268D01*
X149725615Y-45966930D01*
X149613070Y-45854385D01*
X149480732Y-45765959D01*
X149333685Y-45705051D01*
X149177581Y-45674000D01*
X149018419Y-45674000D01*
X148862315Y-45705051D01*
X148715268Y-45765959D01*
X148582930Y-45854385D01*
X148470385Y-45966930D01*
X148381959Y-46099268D01*
X148321051Y-46246315D01*
X148290000Y-46402419D01*
X105179000Y-46402419D01*
X105179000Y-45865552D01*
X105526209Y-45518343D01*
X119892000Y-45518343D01*
X119892000Y-45667657D01*
X119921129Y-45814101D01*
X119978269Y-45952048D01*
X120061223Y-46076197D01*
X120166803Y-46181777D01*
X120290952Y-46264731D01*
X120428899Y-46321871D01*
X120575343Y-46351000D01*
X120724657Y-46351000D01*
X120871101Y-46321871D01*
X121009048Y-46264731D01*
X121133197Y-46181777D01*
X121238777Y-46076197D01*
X121321731Y-45952048D01*
X121378871Y-45814101D01*
X121408000Y-45667657D01*
X121408000Y-45518343D01*
X121381760Y-45386419D01*
X135907500Y-45386419D01*
X135907500Y-45545581D01*
X135938551Y-45701685D01*
X135999459Y-45848732D01*
X136087885Y-45981070D01*
X136200430Y-46093615D01*
X136332768Y-46182041D01*
X136479815Y-46242949D01*
X136635919Y-46274000D01*
X136795081Y-46274000D01*
X136951185Y-46242949D01*
X137098232Y-46182041D01*
X137230570Y-46093615D01*
X137343115Y-45981070D01*
X137431541Y-45848732D01*
X137492449Y-45701685D01*
X137523500Y-45545581D01*
X137523500Y-45386419D01*
X137501406Y-45275343D01*
X140242000Y-45275343D01*
X140242000Y-45424657D01*
X140271129Y-45571101D01*
X140328269Y-45709048D01*
X140411223Y-45833197D01*
X140516803Y-45938777D01*
X140640952Y-46021731D01*
X140778899Y-46078871D01*
X140925343Y-46108000D01*
X141074657Y-46108000D01*
X141221101Y-46078871D01*
X141359048Y-46021731D01*
X141483197Y-45938777D01*
X141588777Y-45833197D01*
X141671731Y-45709048D01*
X141728871Y-45571101D01*
X141758000Y-45424657D01*
X141758000Y-45275343D01*
X141728871Y-45128899D01*
X141671731Y-44990952D01*
X141588777Y-44866803D01*
X141483197Y-44761223D01*
X141359048Y-44678269D01*
X141221101Y-44621129D01*
X141074657Y-44592000D01*
X140925343Y-44592000D01*
X140778899Y-44621129D01*
X140640952Y-44678269D01*
X140516803Y-44761223D01*
X140411223Y-44866803D01*
X140328269Y-44990952D01*
X140271129Y-45128899D01*
X140242000Y-45275343D01*
X137501406Y-45275343D01*
X137492449Y-45230315D01*
X137431541Y-45083268D01*
X137343115Y-44950930D01*
X137230570Y-44838385D01*
X137098232Y-44749959D01*
X136951185Y-44689051D01*
X136795081Y-44658000D01*
X136635919Y-44658000D01*
X136479815Y-44689051D01*
X136332768Y-44749959D01*
X136200430Y-44838385D01*
X136087885Y-44950930D01*
X135999459Y-45083268D01*
X135938551Y-45230315D01*
X135907500Y-45386419D01*
X121381760Y-45386419D01*
X121378871Y-45371899D01*
X121321731Y-45233952D01*
X121238777Y-45109803D01*
X121133197Y-45004223D01*
X121009048Y-44921269D01*
X120871101Y-44864129D01*
X120724657Y-44835000D01*
X120575343Y-44835000D01*
X120428899Y-44864129D01*
X120290952Y-44921269D01*
X120166803Y-45004223D01*
X120061223Y-45109803D01*
X119978269Y-45233952D01*
X119921129Y-45371899D01*
X119892000Y-45518343D01*
X105526209Y-45518343D01*
X106549207Y-44495345D01*
X118762000Y-44495345D01*
X118762000Y-44644659D01*
X118791129Y-44791103D01*
X118848269Y-44929050D01*
X118931223Y-45053199D01*
X119036803Y-45158779D01*
X119160952Y-45241733D01*
X119298899Y-45298873D01*
X119445343Y-45328002D01*
X119594657Y-45328002D01*
X119741101Y-45298873D01*
X119879048Y-45241733D01*
X120003197Y-45158779D01*
X120108777Y-45053199D01*
X120191731Y-44929050D01*
X120248871Y-44791103D01*
X120278000Y-44644659D01*
X120278000Y-44495345D01*
X120248871Y-44348901D01*
X120191731Y-44210954D01*
X120108777Y-44086805D01*
X120003197Y-43981225D01*
X119879048Y-43898271D01*
X119741101Y-43841131D01*
X119594657Y-43812002D01*
X119445343Y-43812002D01*
X119298899Y-43841131D01*
X119160952Y-43898271D01*
X119036803Y-43981225D01*
X118931223Y-44086805D01*
X118848269Y-44210954D01*
X118791129Y-44348901D01*
X118762000Y-44495345D01*
X106549207Y-44495345D01*
X107253409Y-43791143D01*
X143958500Y-43791143D01*
X143958500Y-43940457D01*
X143987629Y-44086901D01*
X144044769Y-44224848D01*
X144127723Y-44348997D01*
X144233303Y-44454577D01*
X144357452Y-44537531D01*
X144495399Y-44594671D01*
X144641843Y-44623800D01*
X144791157Y-44623800D01*
X144937601Y-44594671D01*
X145075548Y-44537531D01*
X145199697Y-44454577D01*
X145305277Y-44348997D01*
X145388231Y-44224848D01*
X145445371Y-44086901D01*
X145474500Y-43940457D01*
X145474500Y-43791143D01*
X145445371Y-43644699D01*
X145388231Y-43506752D01*
X145305277Y-43382603D01*
X145199697Y-43277023D01*
X145075548Y-43194069D01*
X144937601Y-43136929D01*
X144791157Y-43107800D01*
X144641843Y-43107800D01*
X144495399Y-43136929D01*
X144357452Y-43194069D01*
X144233303Y-43277023D01*
X144127723Y-43382603D01*
X144044769Y-43506752D01*
X143987629Y-43644699D01*
X143958500Y-43791143D01*
X107253409Y-43791143D01*
X107333552Y-43711000D01*
X109695681Y-43711000D01*
X109728000Y-43714183D01*
X109856990Y-43701479D01*
X109894863Y-43689990D01*
X109981024Y-43663853D01*
X110095334Y-43602754D01*
X110195527Y-43520527D01*
X110216132Y-43495420D01*
X112456427Y-41255126D01*
X112481527Y-41234527D01*
X112563754Y-41134334D01*
X112624853Y-41020024D01*
X112662479Y-40895990D01*
X112672000Y-40799319D01*
X112672000Y-40799309D01*
X112675182Y-40767001D01*
X112672000Y-40734692D01*
X112672000Y-40692339D01*
X113592796Y-40692339D01*
X113592796Y-40841653D01*
X113621925Y-40988097D01*
X113679065Y-41126044D01*
X113762019Y-41250193D01*
X113867599Y-41355773D01*
X113936779Y-41401998D01*
X113867599Y-41448223D01*
X113762019Y-41553803D01*
X113679065Y-41677952D01*
X113621925Y-41815899D01*
X113592796Y-41962343D01*
X113592796Y-42111657D01*
X113621925Y-42258101D01*
X113679065Y-42396048D01*
X113762019Y-42520197D01*
X113867599Y-42625777D01*
X113991748Y-42708731D01*
X114129695Y-42765871D01*
X114276139Y-42795000D01*
X114425453Y-42795000D01*
X114571897Y-42765871D01*
X114709844Y-42708731D01*
X114833993Y-42625777D01*
X114939573Y-42520197D01*
X115022527Y-42396048D01*
X115065400Y-42292542D01*
X120247600Y-42292542D01*
X120247600Y-42441856D01*
X120276729Y-42588300D01*
X120333869Y-42726247D01*
X120416823Y-42850396D01*
X120522403Y-42955976D01*
X120646552Y-43038930D01*
X120784499Y-43096070D01*
X120930943Y-43125199D01*
X121080257Y-43125199D01*
X121226701Y-43096070D01*
X121364648Y-43038930D01*
X121488797Y-42955976D01*
X121594377Y-42850396D01*
X121677331Y-42726247D01*
X121734471Y-42588300D01*
X121763600Y-42441856D01*
X121763600Y-42292542D01*
X121734471Y-42146098D01*
X121677331Y-42008151D01*
X121594377Y-41884002D01*
X121488797Y-41778422D01*
X121364648Y-41695468D01*
X121226701Y-41638328D01*
X121080257Y-41609199D01*
X120930943Y-41609199D01*
X120784499Y-41638328D01*
X120646552Y-41695468D01*
X120522403Y-41778422D01*
X120416823Y-41884002D01*
X120333869Y-42008151D01*
X120276729Y-42146098D01*
X120247600Y-42292542D01*
X115065400Y-42292542D01*
X115079667Y-42258101D01*
X115108796Y-42111657D01*
X115108796Y-41962343D01*
X115079667Y-41815899D01*
X115022527Y-41677952D01*
X114939573Y-41553803D01*
X114833993Y-41448223D01*
X114764813Y-41401998D01*
X114833993Y-41355773D01*
X114939573Y-41250193D01*
X115022527Y-41126044D01*
X115079667Y-40988097D01*
X115108796Y-40841653D01*
X115108796Y-40692339D01*
X115079667Y-40545895D01*
X115022527Y-40407948D01*
X114939573Y-40283799D01*
X114833993Y-40178219D01*
X114709844Y-40095265D01*
X114675886Y-40081199D01*
X114709848Y-40067131D01*
X114833997Y-39984177D01*
X114939577Y-39878597D01*
X115022531Y-39754448D01*
X115044362Y-39701743D01*
X131118798Y-39701743D01*
X131118798Y-39851057D01*
X131147927Y-39997501D01*
X131205067Y-40135448D01*
X131270651Y-40233601D01*
X131205069Y-40331752D01*
X131147929Y-40469699D01*
X131118800Y-40616143D01*
X131118800Y-40765457D01*
X131147929Y-40911901D01*
X131205069Y-41049848D01*
X131288023Y-41173997D01*
X131393603Y-41279577D01*
X131517752Y-41362531D01*
X131655699Y-41419671D01*
X131802143Y-41448800D01*
X131951457Y-41448800D01*
X132097901Y-41419671D01*
X132235848Y-41362531D01*
X132359997Y-41279577D01*
X132465577Y-41173997D01*
X132548531Y-41049848D01*
X132605671Y-40911901D01*
X132634800Y-40765457D01*
X132634800Y-40616143D01*
X132605671Y-40469699D01*
X132548531Y-40331752D01*
X132482947Y-40233599D01*
X132548529Y-40135448D01*
X132605669Y-39997501D01*
X132634798Y-39851057D01*
X132634798Y-39701743D01*
X132605669Y-39555299D01*
X132548529Y-39417352D01*
X132465575Y-39293203D01*
X132359995Y-39187623D01*
X132235846Y-39104669D01*
X132097899Y-39047529D01*
X131951455Y-39018400D01*
X131802141Y-39018400D01*
X131655697Y-39047529D01*
X131517750Y-39104669D01*
X131393601Y-39187623D01*
X131288021Y-39293203D01*
X131205067Y-39417352D01*
X131147927Y-39555299D01*
X131118798Y-39701743D01*
X115044362Y-39701743D01*
X115079671Y-39616501D01*
X115108800Y-39470057D01*
X115108800Y-39320743D01*
X115079671Y-39174299D01*
X115022531Y-39036352D01*
X114939577Y-38912203D01*
X114833997Y-38806623D01*
X114709848Y-38723669D01*
X114571901Y-38666529D01*
X114425457Y-38637400D01*
X114276143Y-38637400D01*
X114129699Y-38666529D01*
X113991752Y-38723669D01*
X113867603Y-38806623D01*
X113762023Y-38912203D01*
X113679069Y-39036352D01*
X113621929Y-39174299D01*
X113592800Y-39320743D01*
X113592800Y-39470057D01*
X113621929Y-39616501D01*
X113679069Y-39754448D01*
X113762023Y-39878597D01*
X113867603Y-39984177D01*
X113991752Y-40067131D01*
X114025710Y-40081197D01*
X113991748Y-40095265D01*
X113867599Y-40178219D01*
X113762019Y-40283799D01*
X113679065Y-40407948D01*
X113621925Y-40545895D01*
X113592796Y-40692339D01*
X112672000Y-40692339D01*
X112672000Y-38569596D01*
X112730041Y-38482732D01*
X112790949Y-38335685D01*
X112822000Y-38179581D01*
X112822000Y-38101543D01*
X117961600Y-38101543D01*
X117961600Y-38250857D01*
X117990729Y-38397301D01*
X118047869Y-38535248D01*
X118130823Y-38659397D01*
X118236403Y-38764977D01*
X118360552Y-38847931D01*
X118498499Y-38905071D01*
X118644943Y-38934200D01*
X118794257Y-38934200D01*
X118940701Y-38905071D01*
X119078648Y-38847931D01*
X119202797Y-38764977D01*
X119303800Y-38663974D01*
X119404803Y-38764977D01*
X119528952Y-38847931D01*
X119666899Y-38905071D01*
X119813343Y-38934200D01*
X119962657Y-38934200D01*
X120109101Y-38905071D01*
X120247048Y-38847931D01*
X120371197Y-38764977D01*
X120459501Y-38676673D01*
X120522405Y-38739577D01*
X120646554Y-38822531D01*
X120784501Y-38879671D01*
X120930945Y-38908800D01*
X121080259Y-38908800D01*
X121226703Y-38879671D01*
X121364650Y-38822531D01*
X121488799Y-38739577D01*
X121577882Y-38650494D01*
X134879600Y-38650494D01*
X134879600Y-38819506D01*
X134912573Y-38985269D01*
X134977251Y-39141415D01*
X135071148Y-39281943D01*
X135190657Y-39401452D01*
X135331185Y-39495349D01*
X135487331Y-39560027D01*
X135653094Y-39593000D01*
X135822106Y-39593000D01*
X135987869Y-39560027D01*
X136144015Y-39495349D01*
X136284543Y-39401452D01*
X136404052Y-39281943D01*
X136497949Y-39141415D01*
X136562627Y-38985269D01*
X136595600Y-38819506D01*
X136595600Y-38650494D01*
X136562627Y-38484731D01*
X136497949Y-38328585D01*
X136404052Y-38188057D01*
X136284543Y-38068548D01*
X136144015Y-37974651D01*
X135987869Y-37909973D01*
X135822106Y-37877000D01*
X135653094Y-37877000D01*
X135487331Y-37909973D01*
X135331185Y-37974651D01*
X135190657Y-38068548D01*
X135071148Y-38188057D01*
X134977251Y-38328585D01*
X134912573Y-38484731D01*
X134879600Y-38650494D01*
X121577882Y-38650494D01*
X121594379Y-38633997D01*
X121677333Y-38509848D01*
X121734473Y-38371901D01*
X121763602Y-38225457D01*
X121763602Y-38076143D01*
X121734473Y-37929699D01*
X121677333Y-37791752D01*
X121594379Y-37667603D01*
X121488799Y-37562023D01*
X121364650Y-37479069D01*
X121226703Y-37421929D01*
X121080259Y-37392800D01*
X120930945Y-37392800D01*
X120784501Y-37421929D01*
X120646554Y-37479069D01*
X120522405Y-37562023D01*
X120434101Y-37650327D01*
X120371197Y-37587423D01*
X120247048Y-37504469D01*
X120109101Y-37447329D01*
X119962657Y-37418200D01*
X119813343Y-37418200D01*
X119666899Y-37447329D01*
X119528952Y-37504469D01*
X119404803Y-37587423D01*
X119303800Y-37688426D01*
X119202797Y-37587423D01*
X119078648Y-37504469D01*
X118940701Y-37447329D01*
X118794257Y-37418200D01*
X118644943Y-37418200D01*
X118498499Y-37447329D01*
X118360552Y-37504469D01*
X118236403Y-37587423D01*
X118130823Y-37693003D01*
X118047869Y-37817152D01*
X117990729Y-37955099D01*
X117961600Y-38101543D01*
X112822000Y-38101543D01*
X112822000Y-38020419D01*
X112790949Y-37864315D01*
X112730041Y-37717268D01*
X112641615Y-37584930D01*
X112529070Y-37472385D01*
X112396732Y-37383959D01*
X112249685Y-37323051D01*
X112093581Y-37292000D01*
X111934419Y-37292000D01*
X111778315Y-37323051D01*
X111631268Y-37383959D01*
X111498930Y-37472385D01*
X111386385Y-37584930D01*
X111297959Y-37717268D01*
X111237051Y-37864315D01*
X111206000Y-38020419D01*
X111206000Y-38179581D01*
X111237051Y-38335685D01*
X111297959Y-38482732D01*
X111356001Y-38569597D01*
X111356000Y-40494447D01*
X109455448Y-42395000D01*
X107093308Y-42395000D01*
X107060999Y-42391818D01*
X107028691Y-42395000D01*
X107028681Y-42395000D01*
X106932010Y-42404521D01*
X106807976Y-42442147D01*
X106693666Y-42503246D01*
X106593473Y-42585473D01*
X106572868Y-42610580D01*
X104521000Y-44662448D01*
X102977132Y-43118580D01*
X102956527Y-43093473D01*
X102856334Y-43011246D01*
X102742024Y-42950147D01*
X102617990Y-42912521D01*
X102521319Y-42903000D01*
X102489000Y-42899817D01*
X102456681Y-42903000D01*
X99840553Y-42903000D01*
X97858911Y-40921359D01*
X97883871Y-40861101D01*
X97913000Y-40714657D01*
X97913000Y-40565343D01*
X97912021Y-40560419D01*
X108666000Y-40560419D01*
X108666000Y-40719581D01*
X108697051Y-40875685D01*
X108757959Y-41022732D01*
X108846385Y-41155070D01*
X108958930Y-41267615D01*
X109091268Y-41356041D01*
X109238315Y-41416949D01*
X109394419Y-41448000D01*
X109553581Y-41448000D01*
X109709685Y-41416949D01*
X109856732Y-41356041D01*
X109989070Y-41267615D01*
X110101615Y-41155070D01*
X110190041Y-41022732D01*
X110250949Y-40875685D01*
X110282000Y-40719581D01*
X110282000Y-40560419D01*
X110250949Y-40404315D01*
X110190041Y-40257268D01*
X110101615Y-40124930D01*
X109989070Y-40012385D01*
X109856732Y-39923959D01*
X109709685Y-39863051D01*
X109553581Y-39832000D01*
X109394419Y-39832000D01*
X109238315Y-39863051D01*
X109091268Y-39923959D01*
X108958930Y-40012385D01*
X108846385Y-40124930D01*
X108757959Y-40257268D01*
X108697051Y-40404315D01*
X108666000Y-40560419D01*
X97912021Y-40560419D01*
X97883871Y-40418899D01*
X97826731Y-40280952D01*
X97743777Y-40156803D01*
X97638197Y-40051223D01*
X97514048Y-39968269D01*
X97376101Y-39911129D01*
X97229657Y-39882000D01*
X97080343Y-39882000D01*
X96933899Y-39911129D01*
X96795952Y-39968269D01*
X96671803Y-40051223D01*
X96566223Y-40156803D01*
X96483269Y-40280952D01*
X96426129Y-40418899D01*
X96397000Y-40565343D01*
X88388000Y-40565343D01*
X88388000Y-40560419D01*
X88356949Y-40404315D01*
X88296041Y-40257268D01*
X88207615Y-40124930D01*
X88095070Y-40012385D01*
X87962732Y-39923959D01*
X87815685Y-39863051D01*
X87659581Y-39832000D01*
X87500419Y-39832000D01*
X87344315Y-39863051D01*
X87197268Y-39923959D01*
X87064930Y-40012385D01*
X86952385Y-40124930D01*
X86863959Y-40257268D01*
X86803051Y-40404315D01*
X86772000Y-40560419D01*
X85828000Y-40560419D01*
X85796949Y-40404315D01*
X85736041Y-40257268D01*
X85647615Y-40124930D01*
X85535070Y-40012385D01*
X85402732Y-39923959D01*
X85255685Y-39863051D01*
X85099581Y-39832000D01*
X84940419Y-39832000D01*
X84784315Y-39863051D01*
X84637268Y-39923959D01*
X84504930Y-40012385D01*
X84392385Y-40124930D01*
X84303959Y-40257268D01*
X84243051Y-40404315D01*
X84212000Y-40560419D01*
X54033000Y-40560419D01*
X54033000Y-37321919D01*
X55389500Y-37321919D01*
X55389500Y-37481081D01*
X55420551Y-37637185D01*
X55481459Y-37784232D01*
X55569885Y-37916570D01*
X55682430Y-38029115D01*
X55814768Y-38117541D01*
X55961815Y-38178449D01*
X56117919Y-38209500D01*
X56277081Y-38209500D01*
X56433185Y-38178449D01*
X56580232Y-38117541D01*
X56712570Y-38029115D01*
X56825115Y-37916570D01*
X56913541Y-37784232D01*
X56974449Y-37637185D01*
X57005500Y-37481081D01*
X57005500Y-37321919D01*
X56997922Y-37283819D01*
X97842000Y-37283819D01*
X97842000Y-37442981D01*
X97873051Y-37599085D01*
X97933959Y-37746132D01*
X98022385Y-37878470D01*
X98134930Y-37991015D01*
X98267268Y-38079441D01*
X98414315Y-38140349D01*
X98570419Y-38171400D01*
X98729581Y-38171400D01*
X98885685Y-38140349D01*
X99032732Y-38079441D01*
X99165070Y-37991015D01*
X99277615Y-37878470D01*
X99366041Y-37746132D01*
X99376774Y-37720219D01*
X109220200Y-37720219D01*
X109220200Y-37879381D01*
X109251251Y-38035485D01*
X109312159Y-38182532D01*
X109400585Y-38314870D01*
X109513130Y-38427415D01*
X109645468Y-38515841D01*
X109792515Y-38576749D01*
X109948619Y-38607800D01*
X110107781Y-38607800D01*
X110263885Y-38576749D01*
X110410932Y-38515841D01*
X110543270Y-38427415D01*
X110655815Y-38314870D01*
X110744241Y-38182532D01*
X110805149Y-38035485D01*
X110836200Y-37879381D01*
X110836200Y-37720219D01*
X110805149Y-37564115D01*
X110744241Y-37417068D01*
X110655815Y-37284730D01*
X110543270Y-37172185D01*
X110410932Y-37083759D01*
X110263885Y-37022851D01*
X110107781Y-36991800D01*
X109948619Y-36991800D01*
X109792515Y-37022851D01*
X109645468Y-37083759D01*
X109513130Y-37172185D01*
X109400585Y-37284730D01*
X109312159Y-37417068D01*
X109251251Y-37564115D01*
X109220200Y-37720219D01*
X99376774Y-37720219D01*
X99426949Y-37599085D01*
X99458000Y-37442981D01*
X99458000Y-37283819D01*
X99426949Y-37127715D01*
X99366041Y-36980668D01*
X99277615Y-36848330D01*
X99165070Y-36735785D01*
X99032732Y-36647359D01*
X98885685Y-36586451D01*
X98729581Y-36555400D01*
X98570419Y-36555400D01*
X98414315Y-36586451D01*
X98267268Y-36647359D01*
X98134930Y-36735785D01*
X98022385Y-36848330D01*
X97933959Y-36980668D01*
X97873051Y-37127715D01*
X97842000Y-37283819D01*
X56997922Y-37283819D01*
X56974449Y-37165815D01*
X56913541Y-37018768D01*
X56825115Y-36886430D01*
X56712570Y-36773885D01*
X56580232Y-36685459D01*
X56433185Y-36624551D01*
X56277081Y-36593500D01*
X56117919Y-36593500D01*
X55961815Y-36624551D01*
X55814768Y-36685459D01*
X55682430Y-36773885D01*
X55569885Y-36886430D01*
X55481459Y-37018768D01*
X55420551Y-37165815D01*
X55389500Y-37321919D01*
X54033000Y-37321919D01*
X54033000Y-35294851D01*
X55757000Y-35294851D01*
X55757000Y-35444165D01*
X55786129Y-35590609D01*
X55843269Y-35728556D01*
X55926223Y-35852705D01*
X56031803Y-35958285D01*
X56155952Y-36041239D01*
X56293899Y-36098379D01*
X56440343Y-36127508D01*
X56589657Y-36127508D01*
X56736101Y-36098379D01*
X56874048Y-36041239D01*
X56998197Y-35958285D01*
X57007504Y-35948978D01*
X57016803Y-35958277D01*
X57140952Y-36041231D01*
X57278899Y-36098371D01*
X57425343Y-36127500D01*
X57574657Y-36127500D01*
X57721101Y-36098371D01*
X57859048Y-36041231D01*
X57983197Y-35958277D01*
X57991746Y-35949728D01*
X58000303Y-35958285D01*
X58124452Y-36041239D01*
X58262399Y-36098379D01*
X58408843Y-36127508D01*
X58558157Y-36127508D01*
X58704601Y-36098379D01*
X58842548Y-36041239D01*
X58966697Y-35958285D01*
X59072277Y-35852705D01*
X59155231Y-35728556D01*
X59212371Y-35590609D01*
X59241500Y-35444165D01*
X59241500Y-35294851D01*
X59212371Y-35148407D01*
X59204641Y-35129743D01*
X79962000Y-35129743D01*
X79962000Y-35279057D01*
X79991129Y-35425501D01*
X80048269Y-35563448D01*
X80131223Y-35687597D01*
X80168726Y-35725100D01*
X80131223Y-35762603D01*
X80048269Y-35886752D01*
X79991129Y-36024699D01*
X79962000Y-36171143D01*
X79962000Y-36320457D01*
X79991129Y-36466901D01*
X80048269Y-36604848D01*
X80131223Y-36728997D01*
X80236803Y-36834577D01*
X80360952Y-36917531D01*
X80498899Y-36974671D01*
X80645343Y-37003800D01*
X80794657Y-37003800D01*
X80941101Y-36974671D01*
X81079048Y-36917531D01*
X81203197Y-36834577D01*
X81308777Y-36728997D01*
X81391731Y-36604848D01*
X81448871Y-36466901D01*
X81478000Y-36320457D01*
X81478000Y-36171143D01*
X81448871Y-36024699D01*
X81391731Y-35886752D01*
X81308777Y-35762603D01*
X81271274Y-35725100D01*
X81308777Y-35687597D01*
X81342089Y-35637741D01*
X83329602Y-35637741D01*
X83329602Y-35787055D01*
X83358731Y-35933499D01*
X83415871Y-36071446D01*
X83498825Y-36195595D01*
X83604405Y-36301175D01*
X83728554Y-36384129D01*
X83866501Y-36441269D01*
X84012945Y-36470398D01*
X84162259Y-36470398D01*
X84308703Y-36441269D01*
X84446650Y-36384129D01*
X84570799Y-36301175D01*
X84676379Y-36195595D01*
X84759333Y-36071446D01*
X84816473Y-35933499D01*
X84845602Y-35787055D01*
X84845602Y-35637741D01*
X84816473Y-35491297D01*
X84759333Y-35353350D01*
X84676379Y-35229201D01*
X84570799Y-35123621D01*
X84446650Y-35040667D01*
X84308703Y-34983527D01*
X84162259Y-34954398D01*
X84012945Y-34954398D01*
X83866501Y-34983527D01*
X83728554Y-35040667D01*
X83604405Y-35123621D01*
X83498825Y-35229201D01*
X83415871Y-35353350D01*
X83358731Y-35491297D01*
X83329602Y-35637741D01*
X81342089Y-35637741D01*
X81391731Y-35563448D01*
X81448871Y-35425501D01*
X81478000Y-35279057D01*
X81478000Y-35129743D01*
X81448871Y-34983299D01*
X81391731Y-34845352D01*
X81308777Y-34721203D01*
X81203197Y-34615623D01*
X81079048Y-34532669D01*
X80941101Y-34475529D01*
X80794657Y-34446400D01*
X80645343Y-34446400D01*
X80498899Y-34475529D01*
X80360952Y-34532669D01*
X80236803Y-34615623D01*
X80131223Y-34721203D01*
X80048269Y-34845352D01*
X79991129Y-34983299D01*
X79962000Y-35129743D01*
X59204641Y-35129743D01*
X59155231Y-35010460D01*
X59072277Y-34886311D01*
X58966697Y-34780731D01*
X58842548Y-34697777D01*
X58704601Y-34640637D01*
X58558157Y-34611508D01*
X58408843Y-34611508D01*
X58262399Y-34640637D01*
X58124452Y-34697777D01*
X58000303Y-34780731D01*
X57991754Y-34789280D01*
X57983197Y-34780723D01*
X57859048Y-34697769D01*
X57721101Y-34640629D01*
X57574657Y-34611500D01*
X57425343Y-34611500D01*
X57278899Y-34640629D01*
X57140952Y-34697769D01*
X57016803Y-34780723D01*
X57007496Y-34790030D01*
X56998197Y-34780731D01*
X56874048Y-34697777D01*
X56736101Y-34640637D01*
X56589657Y-34611508D01*
X56440343Y-34611508D01*
X56293899Y-34640637D01*
X56155952Y-34697777D01*
X56031803Y-34780731D01*
X55926223Y-34886311D01*
X55843269Y-35010460D01*
X55786129Y-35148407D01*
X55757000Y-35294851D01*
X54033000Y-35294851D01*
X54033000Y-34127843D01*
X58956000Y-34127843D01*
X58956000Y-34277157D01*
X58985129Y-34423601D01*
X59042269Y-34561548D01*
X59125223Y-34685697D01*
X59230803Y-34791277D01*
X59354952Y-34874231D01*
X59492899Y-34931371D01*
X59639343Y-34960500D01*
X59788657Y-34960500D01*
X59935101Y-34931371D01*
X60073048Y-34874231D01*
X60197197Y-34791277D01*
X60302777Y-34685697D01*
X60385731Y-34561548D01*
X60442871Y-34423601D01*
X60472000Y-34277157D01*
X60472000Y-34127843D01*
X60442871Y-33981399D01*
X60385731Y-33843452D01*
X60302777Y-33719303D01*
X60197197Y-33613723D01*
X60073048Y-33530769D01*
X59935101Y-33473629D01*
X59788657Y-33444500D01*
X59639343Y-33444500D01*
X59492899Y-33473629D01*
X59354952Y-33530769D01*
X59230803Y-33613723D01*
X59125223Y-33719303D01*
X59042269Y-33843452D01*
X58985129Y-33981399D01*
X58956000Y-34127843D01*
X54033000Y-34127843D01*
X54033000Y-31264270D01*
X54052357Y-31127843D01*
X55415500Y-31127843D01*
X55415500Y-31277157D01*
X55444629Y-31423601D01*
X55501769Y-31561548D01*
X55584723Y-31685697D01*
X55690303Y-31791277D01*
X55814452Y-31874231D01*
X55952399Y-31931371D01*
X56098843Y-31960500D01*
X56248157Y-31960500D01*
X56394601Y-31931371D01*
X56532548Y-31874231D01*
X56656697Y-31791277D01*
X56762277Y-31685697D01*
X56845231Y-31561548D01*
X56902371Y-31423601D01*
X56931500Y-31277157D01*
X56931500Y-31127843D01*
X56902371Y-30981399D01*
X56845231Y-30843452D01*
X56762277Y-30719303D01*
X56656697Y-30613723D01*
X56532548Y-30530769D01*
X56394601Y-30473629D01*
X56248157Y-30444500D01*
X56098843Y-30444500D01*
X55952399Y-30473629D01*
X55814452Y-30530769D01*
X55690303Y-30613723D01*
X55584723Y-30719303D01*
X55501769Y-30843452D01*
X55444629Y-30981399D01*
X55415500Y-31127843D01*
X54052357Y-31127843D01*
X54078147Y-30946083D01*
X54180285Y-30654026D01*
X54337210Y-30387364D01*
X54542938Y-30156262D01*
X54789631Y-29969525D01*
X55067908Y-29834255D01*
X55371858Y-29754378D01*
X55639774Y-29733000D01*
X59620316Y-29733000D01*
X59478899Y-29761129D01*
X59340952Y-29818269D01*
X59216803Y-29901223D01*
X59111223Y-30006803D01*
X59028269Y-30130952D01*
X58971129Y-30268899D01*
X58942000Y-30415343D01*
X58942000Y-30564657D01*
X58971129Y-30711101D01*
X59028269Y-30849048D01*
X59111223Y-30973197D01*
X59216803Y-31078777D01*
X59340952Y-31161731D01*
X59478899Y-31218871D01*
X59625343Y-31248000D01*
X59774657Y-31248000D01*
X59921101Y-31218871D01*
X60059048Y-31161731D01*
X60183197Y-31078777D01*
X60288777Y-30973197D01*
X60371731Y-30849048D01*
X60428871Y-30711101D01*
X60458000Y-30564657D01*
X60458000Y-30415343D01*
X60428871Y-30268899D01*
X60371731Y-30130952D01*
X60288777Y-30006803D01*
X60183197Y-29901223D01*
X60059048Y-29818269D01*
X59921101Y-29761129D01*
X59779684Y-29733000D01*
X85945862Y-29733000D01*
X85862228Y-29788883D01*
X85749683Y-29901428D01*
X85661257Y-30033766D01*
X85600349Y-30180813D01*
X85569298Y-30336917D01*
X85569298Y-30496079D01*
X85600349Y-30652183D01*
X85661257Y-30799230D01*
X85749683Y-30931568D01*
X85862228Y-31044113D01*
X85994566Y-31132539D01*
X86141613Y-31193447D01*
X86297717Y-31224498D01*
X86456879Y-31224498D01*
X86612983Y-31193447D01*
X86757332Y-31133657D01*
X86901680Y-31193447D01*
X87057784Y-31224498D01*
X87216946Y-31224498D01*
X87373050Y-31193447D01*
X87517399Y-31133657D01*
X87661747Y-31193447D01*
X87817851Y-31224498D01*
X87977013Y-31224498D01*
X88133117Y-31193447D01*
X88277466Y-31133657D01*
X88421815Y-31193447D01*
X88577919Y-31224498D01*
X88737081Y-31224498D01*
X88883271Y-31195419D01*
X97842000Y-31195419D01*
X97842000Y-31354581D01*
X97873051Y-31510685D01*
X97933959Y-31657732D01*
X98022385Y-31790070D01*
X98134930Y-31902615D01*
X98267268Y-31991041D01*
X98414315Y-32051949D01*
X98570419Y-32083000D01*
X98729581Y-32083000D01*
X98885685Y-32051949D01*
X99032732Y-31991041D01*
X99165070Y-31902615D01*
X99277615Y-31790070D01*
X99366041Y-31657732D01*
X99388076Y-31604534D01*
X119304320Y-31604534D01*
X119304320Y-31773546D01*
X119337293Y-31939309D01*
X119401971Y-32095455D01*
X119495868Y-32235983D01*
X119615377Y-32355492D01*
X119755905Y-32449389D01*
X119912051Y-32514067D01*
X120077814Y-32547040D01*
X120246826Y-32547040D01*
X120412589Y-32514067D01*
X120568735Y-32449389D01*
X120709263Y-32355492D01*
X120828772Y-32235983D01*
X120922669Y-32095455D01*
X120987347Y-31939309D01*
X121020320Y-31773546D01*
X121020320Y-31604534D01*
X122936520Y-31604534D01*
X122936520Y-31773546D01*
X122969493Y-31939309D01*
X123034171Y-32095455D01*
X123128068Y-32235983D01*
X123247577Y-32355492D01*
X123388105Y-32449389D01*
X123544251Y-32514067D01*
X123710014Y-32547040D01*
X123879026Y-32547040D01*
X124044789Y-32514067D01*
X124200935Y-32449389D01*
X124341463Y-32355492D01*
X124386608Y-32310347D01*
X128934400Y-32310347D01*
X128934400Y-32459661D01*
X128963529Y-32606105D01*
X129020669Y-32744052D01*
X129103623Y-32868201D01*
X129209203Y-32973781D01*
X129333352Y-33056735D01*
X129471299Y-33113875D01*
X129617743Y-33143004D01*
X129706011Y-33143004D01*
X129725523Y-33241101D01*
X129782663Y-33379048D01*
X129865617Y-33503197D01*
X129971197Y-33608777D01*
X130095346Y-33691731D01*
X130233293Y-33748871D01*
X130379737Y-33778000D01*
X130523868Y-33778000D01*
X130538329Y-33850701D01*
X130595469Y-33988648D01*
X130678423Y-34112797D01*
X130784003Y-34218377D01*
X130908152Y-34301331D01*
X131046099Y-34358471D01*
X131192543Y-34387600D01*
X131220402Y-34387600D01*
X131220402Y-34390059D01*
X131249531Y-34536503D01*
X131306671Y-34674450D01*
X131389625Y-34798599D01*
X131439828Y-34848802D01*
X131389625Y-34899004D01*
X131306671Y-35023153D01*
X131249531Y-35161100D01*
X131220402Y-35307544D01*
X131220402Y-35456858D01*
X131249531Y-35603302D01*
X131306671Y-35741249D01*
X131389625Y-35865398D01*
X131439828Y-35915601D01*
X131389625Y-35965803D01*
X131306671Y-36089952D01*
X131249531Y-36227899D01*
X131220402Y-36374343D01*
X131220402Y-36523657D01*
X131249531Y-36670101D01*
X131306671Y-36808048D01*
X131389625Y-36932197D01*
X131495205Y-37037777D01*
X131619354Y-37120731D01*
X131757301Y-37177871D01*
X131903745Y-37207000D01*
X132053059Y-37207000D01*
X132199503Y-37177871D01*
X132337450Y-37120731D01*
X132461599Y-37037777D01*
X132567179Y-36932197D01*
X132600490Y-36882343D01*
X139196000Y-36882343D01*
X139196000Y-37031657D01*
X139225129Y-37178101D01*
X139282269Y-37316048D01*
X139365223Y-37440197D01*
X139470803Y-37545777D01*
X139594952Y-37628731D01*
X139732899Y-37685871D01*
X139879343Y-37715000D01*
X140028657Y-37715000D01*
X140175101Y-37685871D01*
X140313048Y-37628731D01*
X140437197Y-37545777D01*
X140542777Y-37440197D01*
X140625731Y-37316048D01*
X140682871Y-37178101D01*
X140712000Y-37031657D01*
X140712000Y-36882343D01*
X140682871Y-36735899D01*
X140625731Y-36597952D01*
X140542777Y-36473803D01*
X140437197Y-36368223D01*
X140313048Y-36285269D01*
X140175101Y-36228129D01*
X140028657Y-36199000D01*
X139879343Y-36199000D01*
X139732899Y-36228129D01*
X139594952Y-36285269D01*
X139470803Y-36368223D01*
X139365223Y-36473803D01*
X139282269Y-36597952D01*
X139225129Y-36735899D01*
X139196000Y-36882343D01*
X132600490Y-36882343D01*
X132650133Y-36808048D01*
X132707273Y-36670101D01*
X132736402Y-36523657D01*
X132736402Y-36374343D01*
X132707273Y-36227899D01*
X132650133Y-36089952D01*
X132567179Y-35965803D01*
X132516977Y-35915601D01*
X132525283Y-35907294D01*
X134879600Y-35907294D01*
X134879600Y-36076306D01*
X134912573Y-36242069D01*
X134977251Y-36398215D01*
X135071148Y-36538743D01*
X135190657Y-36658252D01*
X135331185Y-36752149D01*
X135487331Y-36816827D01*
X135653094Y-36849800D01*
X135822106Y-36849800D01*
X135987869Y-36816827D01*
X136144015Y-36752149D01*
X136284543Y-36658252D01*
X136404052Y-36538743D01*
X136497949Y-36398215D01*
X136562627Y-36242069D01*
X136595600Y-36076306D01*
X136595600Y-35907294D01*
X136562627Y-35741531D01*
X136558617Y-35731850D01*
X148398507Y-35731850D01*
X148398507Y-35881164D01*
X148427636Y-36027608D01*
X148484776Y-36165555D01*
X148567730Y-36289704D01*
X148673310Y-36395284D01*
X148797459Y-36478238D01*
X148935406Y-36535378D01*
X149081850Y-36564507D01*
X149231164Y-36564507D01*
X149377608Y-36535378D01*
X149401834Y-36525343D01*
X150702000Y-36525343D01*
X150702000Y-36674657D01*
X150731129Y-36821101D01*
X150788269Y-36959048D01*
X150871223Y-37083197D01*
X150976803Y-37188777D01*
X151100952Y-37271731D01*
X151238899Y-37328871D01*
X151385343Y-37358000D01*
X151534657Y-37358000D01*
X151681101Y-37328871D01*
X151819048Y-37271731D01*
X151943197Y-37188777D01*
X152048777Y-37083197D01*
X152131731Y-36959048D01*
X152188871Y-36821101D01*
X152218000Y-36674657D01*
X152218000Y-36525343D01*
X152188871Y-36378899D01*
X152131731Y-36240952D01*
X152048777Y-36116803D01*
X151943197Y-36011223D01*
X151819048Y-35928269D01*
X151681101Y-35871129D01*
X151534657Y-35842000D01*
X151385343Y-35842000D01*
X151238899Y-35871129D01*
X151100952Y-35928269D01*
X150976803Y-36011223D01*
X150871223Y-36116803D01*
X150788269Y-36240952D01*
X150731129Y-36378899D01*
X150702000Y-36525343D01*
X149401834Y-36525343D01*
X149515555Y-36478238D01*
X149639704Y-36395284D01*
X149745284Y-36289704D01*
X149828238Y-36165555D01*
X149885378Y-36027608D01*
X149914507Y-35881164D01*
X149914507Y-35731850D01*
X149885378Y-35585406D01*
X149828238Y-35447459D01*
X149745284Y-35323310D01*
X149639704Y-35217730D01*
X149515555Y-35134776D01*
X149377608Y-35077636D01*
X149231164Y-35048507D01*
X149081850Y-35048507D01*
X148935406Y-35077636D01*
X148797459Y-35134776D01*
X148673310Y-35217730D01*
X148567730Y-35323310D01*
X148484776Y-35447459D01*
X148427636Y-35585406D01*
X148398507Y-35731850D01*
X136558617Y-35731850D01*
X136497949Y-35585385D01*
X136404052Y-35444857D01*
X136284543Y-35325348D01*
X136144015Y-35231451D01*
X135987869Y-35166773D01*
X135822106Y-35133800D01*
X135653094Y-35133800D01*
X135487331Y-35166773D01*
X135331185Y-35231451D01*
X135190657Y-35325348D01*
X135071148Y-35444857D01*
X134977251Y-35585385D01*
X134912573Y-35741531D01*
X134879600Y-35907294D01*
X132525283Y-35907294D01*
X132567179Y-35865398D01*
X132650133Y-35741249D01*
X132707273Y-35603302D01*
X132736402Y-35456858D01*
X132736402Y-35307544D01*
X132707273Y-35161100D01*
X132650133Y-35023153D01*
X132567179Y-34899004D01*
X132516977Y-34848802D01*
X132567179Y-34798599D01*
X132650133Y-34674450D01*
X132707273Y-34536503D01*
X132736402Y-34390059D01*
X132736402Y-34240745D01*
X132707273Y-34094301D01*
X132650133Y-33956354D01*
X132567179Y-33832205D01*
X132547317Y-33812343D01*
X140041000Y-33812343D01*
X140041000Y-33961657D01*
X140070129Y-34108101D01*
X140127269Y-34246048D01*
X140210223Y-34370197D01*
X140315803Y-34475777D01*
X140439952Y-34558731D01*
X140577899Y-34615871D01*
X140724343Y-34645000D01*
X140873657Y-34645000D01*
X141020101Y-34615871D01*
X141158048Y-34558731D01*
X141282197Y-34475777D01*
X141387777Y-34370197D01*
X141470731Y-34246048D01*
X141527871Y-34108101D01*
X141557000Y-33961657D01*
X141557000Y-33812343D01*
X141527871Y-33665899D01*
X141470731Y-33527952D01*
X141387777Y-33403803D01*
X141282197Y-33298223D01*
X141158048Y-33215269D01*
X141020101Y-33158129D01*
X140873657Y-33129000D01*
X140724343Y-33129000D01*
X140577899Y-33158129D01*
X140439952Y-33215269D01*
X140315803Y-33298223D01*
X140210223Y-33403803D01*
X140127269Y-33527952D01*
X140070129Y-33665899D01*
X140041000Y-33812343D01*
X132547317Y-33812343D01*
X132461599Y-33726625D01*
X132337450Y-33643671D01*
X132199503Y-33586531D01*
X132053059Y-33557402D01*
X132025200Y-33557402D01*
X132025200Y-33554943D01*
X131996071Y-33408499D01*
X131938931Y-33270552D01*
X131855977Y-33146403D01*
X131750397Y-33040823D01*
X131626248Y-32957869D01*
X131488301Y-32900729D01*
X131341857Y-32871600D01*
X131197726Y-32871600D01*
X131183265Y-32798899D01*
X131126125Y-32660952D01*
X131043171Y-32536803D01*
X130937591Y-32431223D01*
X130813442Y-32348269D01*
X130675495Y-32291129D01*
X130529051Y-32262000D01*
X130440783Y-32262000D01*
X130421271Y-32163903D01*
X130364131Y-32025956D01*
X130281177Y-31901807D01*
X130175597Y-31796227D01*
X130051448Y-31713273D01*
X129913501Y-31656133D01*
X129767057Y-31627004D01*
X129617743Y-31627004D01*
X129471299Y-31656133D01*
X129333352Y-31713273D01*
X129209203Y-31796227D01*
X129103623Y-31901807D01*
X129020669Y-32025956D01*
X128963529Y-32163903D01*
X128934400Y-32310347D01*
X124386608Y-32310347D01*
X124460972Y-32235983D01*
X124554869Y-32095455D01*
X124619547Y-31939309D01*
X124652520Y-31773546D01*
X124652520Y-31604534D01*
X124619547Y-31438771D01*
X124557684Y-31289419D01*
X134472400Y-31289419D01*
X134472400Y-31448581D01*
X134503451Y-31604685D01*
X134564359Y-31751732D01*
X134652785Y-31884070D01*
X134765330Y-31996615D01*
X134897668Y-32085041D01*
X135044715Y-32145949D01*
X135200819Y-32177000D01*
X135359981Y-32177000D01*
X135516085Y-32145949D01*
X135663132Y-32085041D01*
X135724900Y-32043769D01*
X135786668Y-32085041D01*
X135933715Y-32145949D01*
X136089819Y-32177000D01*
X136248981Y-32177000D01*
X136405085Y-32145949D01*
X136552132Y-32085041D01*
X136613900Y-32043769D01*
X136675668Y-32085041D01*
X136822715Y-32145949D01*
X136978819Y-32177000D01*
X137137981Y-32177000D01*
X137294085Y-32145949D01*
X137441132Y-32085041D01*
X137573470Y-31996615D01*
X137686015Y-31884070D01*
X137774441Y-31751732D01*
X137835349Y-31604685D01*
X137866400Y-31448581D01*
X137866400Y-31289419D01*
X137835349Y-31133315D01*
X137774441Y-30986268D01*
X137686015Y-30853930D01*
X137573470Y-30741385D01*
X137441132Y-30652959D01*
X137294085Y-30592051D01*
X137137981Y-30561000D01*
X136978819Y-30561000D01*
X136822715Y-30592051D01*
X136675668Y-30652959D01*
X136613900Y-30694231D01*
X136552132Y-30652959D01*
X136405085Y-30592051D01*
X136248981Y-30561000D01*
X136089819Y-30561000D01*
X135933715Y-30592051D01*
X135786668Y-30652959D01*
X135724900Y-30694231D01*
X135663132Y-30652959D01*
X135516085Y-30592051D01*
X135359981Y-30561000D01*
X135200819Y-30561000D01*
X135044715Y-30592051D01*
X134897668Y-30652959D01*
X134765330Y-30741385D01*
X134652785Y-30853930D01*
X134564359Y-30986268D01*
X134503451Y-31133315D01*
X134472400Y-31289419D01*
X124557684Y-31289419D01*
X124554869Y-31282625D01*
X124460972Y-31142097D01*
X124341463Y-31022588D01*
X124200935Y-30928691D01*
X124044789Y-30864013D01*
X123879026Y-30831040D01*
X123710014Y-30831040D01*
X123544251Y-30864013D01*
X123388105Y-30928691D01*
X123247577Y-31022588D01*
X123128068Y-31142097D01*
X123034171Y-31282625D01*
X122969493Y-31438771D01*
X122936520Y-31604534D01*
X121020320Y-31604534D01*
X120987347Y-31438771D01*
X120922669Y-31282625D01*
X120828772Y-31142097D01*
X120709263Y-31022588D01*
X120568735Y-30928691D01*
X120412589Y-30864013D01*
X120246826Y-30831040D01*
X120077814Y-30831040D01*
X119912051Y-30864013D01*
X119755905Y-30928691D01*
X119615377Y-31022588D01*
X119495868Y-31142097D01*
X119401971Y-31282625D01*
X119337293Y-31438771D01*
X119304320Y-31604534D01*
X99388076Y-31604534D01*
X99426949Y-31510685D01*
X99458000Y-31354581D01*
X99458000Y-31195419D01*
X99426949Y-31039315D01*
X99366041Y-30892268D01*
X99277615Y-30759930D01*
X99165070Y-30647385D01*
X99032732Y-30558959D01*
X98885685Y-30498051D01*
X98729581Y-30467000D01*
X98570419Y-30467000D01*
X98414315Y-30498051D01*
X98267268Y-30558959D01*
X98134930Y-30647385D01*
X98022385Y-30759930D01*
X97933959Y-30892268D01*
X97873051Y-31039315D01*
X97842000Y-31195419D01*
X88883271Y-31195419D01*
X88893185Y-31193447D01*
X89040232Y-31132539D01*
X89172570Y-31044113D01*
X89285115Y-30931568D01*
X89373541Y-30799230D01*
X89434449Y-30652183D01*
X89465500Y-30496079D01*
X89465500Y-30336917D01*
X89434449Y-30180813D01*
X89373541Y-30033766D01*
X89285115Y-29901428D01*
X89172570Y-29788883D01*
X89144824Y-29770343D01*
X130306000Y-29770343D01*
X130306000Y-29919657D01*
X130335129Y-30066101D01*
X130392269Y-30204048D01*
X130475223Y-30328197D01*
X130580803Y-30433777D01*
X130704952Y-30516731D01*
X130842899Y-30573871D01*
X130989343Y-30603000D01*
X131138657Y-30603000D01*
X131285101Y-30573871D01*
X131423048Y-30516731D01*
X131444581Y-30502343D01*
X139978800Y-30502343D01*
X139978800Y-30651657D01*
X140007929Y-30798101D01*
X140065069Y-30936048D01*
X140148023Y-31060197D01*
X140253603Y-31165777D01*
X140377752Y-31248731D01*
X140515699Y-31305871D01*
X140662143Y-31335000D01*
X140811457Y-31335000D01*
X140957901Y-31305871D01*
X141095848Y-31248731D01*
X141219997Y-31165777D01*
X141325577Y-31060197D01*
X141408531Y-30936048D01*
X141465671Y-30798101D01*
X141494800Y-30651657D01*
X141494800Y-30502343D01*
X141465671Y-30355899D01*
X141408531Y-30217952D01*
X141325577Y-30093803D01*
X141219997Y-29988223D01*
X141095848Y-29905269D01*
X140957901Y-29848129D01*
X140811457Y-29819000D01*
X140662143Y-29819000D01*
X140515699Y-29848129D01*
X140377752Y-29905269D01*
X140253603Y-29988223D01*
X140148023Y-30093803D01*
X140065069Y-30217952D01*
X140007929Y-30355899D01*
X139978800Y-30502343D01*
X131444581Y-30502343D01*
X131547197Y-30433777D01*
X131652777Y-30328197D01*
X131735731Y-30204048D01*
X131792871Y-30066101D01*
X131822000Y-29919657D01*
X131822000Y-29770343D01*
X131792871Y-29623899D01*
X131735731Y-29485952D01*
X131652777Y-29361803D01*
X131547197Y-29256223D01*
X131423048Y-29173269D01*
X131285101Y-29116129D01*
X131138657Y-29087000D01*
X130989343Y-29087000D01*
X130842899Y-29116129D01*
X130704952Y-29173269D01*
X130580803Y-29256223D01*
X130475223Y-29361803D01*
X130392269Y-29485952D01*
X130335129Y-29623899D01*
X130306000Y-29770343D01*
X89144824Y-29770343D01*
X89088936Y-29733000D01*
X108674675Y-29733000D01*
X108678751Y-29732599D01*
X108687136Y-29732470D01*
X108713398Y-29729488D01*
X108739836Y-29729046D01*
X108747223Y-29728144D01*
X108939485Y-29703318D01*
X108986562Y-29692486D01*
X109033788Y-29682312D01*
X109040857Y-29679994D01*
X109040863Y-29679992D01*
X109224638Y-29618296D01*
X109268713Y-29598527D01*
X109313066Y-29579373D01*
X109319548Y-29575727D01*
X109319552Y-29575725D01*
X109319555Y-29575723D01*
X109487847Y-29479506D01*
X109527243Y-29451552D01*
X109567028Y-29424150D01*
X109572679Y-29419313D01*
X109572684Y-29419310D01*
X109572688Y-29419306D01*
X109700541Y-29308332D01*
X109730770Y-29283215D01*
X110045213Y-28964935D01*
X140404869Y-28964935D01*
X140677739Y-29241460D01*
G04 #@! TA.AperFunction,Conductor*
D19*
G36*
X140677739Y-29241460D02*
G01*
X140710640Y-29275848D01*
X140732756Y-29294848D01*
X140753155Y-29315678D01*
X140758889Y-29320422D01*
X140911807Y-29445139D01*
X140952033Y-29471865D01*
X140991906Y-29499166D01*
X140998452Y-29502706D01*
X141172682Y-29595345D01*
X141217372Y-29613765D01*
X141261745Y-29632783D01*
X141268853Y-29634983D01*
X141268857Y-29634985D01*
X141268861Y-29634986D01*
X141457759Y-29692018D01*
X141505126Y-29701397D01*
X141552400Y-29711445D01*
X141559802Y-29712223D01*
X141756188Y-29731479D01*
X141766582Y-29731479D01*
X141782025Y-29733000D01*
X152937947Y-29733000D01*
X153261116Y-29780300D01*
X153552621Y-29883682D01*
X153818493Y-30041714D01*
X154048612Y-30248382D01*
X154234203Y-30495807D01*
X154368200Y-30774567D01*
X154446708Y-31078724D01*
X154467000Y-31348481D01*
X154465448Y-63965459D01*
X154415055Y-64280824D01*
X154307821Y-64571050D01*
X154146253Y-64834923D01*
X153936513Y-65062386D01*
X153686587Y-65244778D01*
X153405987Y-65375155D01*
X153098404Y-65450257D01*
X152862559Y-65467000D01*
X104507000Y-65467000D01*
X104507000Y-64617000D01*
X108680000Y-64617000D01*
X108704776Y-64614560D01*
X108728601Y-64607333D01*
X108750557Y-64595597D01*
X108769542Y-64580062D01*
X110377900Y-62981000D01*
X112364543Y-62981000D01*
X112364543Y-64781000D01*
X112374351Y-64880585D01*
X112403399Y-64976343D01*
X112450571Y-65064595D01*
X112514052Y-65141948D01*
X112591405Y-65205429D01*
X112679657Y-65252601D01*
X112775415Y-65281649D01*
X112875000Y-65291457D01*
X114675000Y-65291457D01*
X114774585Y-65281649D01*
X114870343Y-65252601D01*
X114958595Y-65205429D01*
X115035948Y-65141948D01*
X115099429Y-65064595D01*
X115146601Y-64976343D01*
X115175649Y-64880585D01*
X115185457Y-64781000D01*
X115185457Y-62981000D01*
X115180689Y-62932583D01*
X120507000Y-62932583D01*
X120507000Y-63126217D01*
X120544776Y-63316130D01*
X120618877Y-63495025D01*
X120726454Y-63656026D01*
X120863374Y-63792946D01*
X121024375Y-63900523D01*
X121203270Y-63974624D01*
X121393183Y-64012400D01*
X121586817Y-64012400D01*
X121776730Y-63974624D01*
X121955625Y-63900523D01*
X122116626Y-63792946D01*
X122253546Y-63656026D01*
X122361123Y-63495025D01*
X122435224Y-63316130D01*
X122473000Y-63126217D01*
X122473000Y-62932583D01*
X127107000Y-62932583D01*
X127107000Y-63126217D01*
X127144776Y-63316130D01*
X127218877Y-63495025D01*
X127326454Y-63656026D01*
X127463374Y-63792946D01*
X127624375Y-63900523D01*
X127803270Y-63974624D01*
X127993183Y-64012400D01*
X128186817Y-64012400D01*
X128373115Y-63975343D01*
X150992000Y-63975343D01*
X150992000Y-64124657D01*
X151021129Y-64271101D01*
X151078269Y-64409048D01*
X151161223Y-64533197D01*
X151266803Y-64638777D01*
X151390952Y-64721731D01*
X151528899Y-64778871D01*
X151675343Y-64808000D01*
X151824657Y-64808000D01*
X151971101Y-64778871D01*
X152109048Y-64721731D01*
X152233197Y-64638777D01*
X152338777Y-64533197D01*
X152421731Y-64409048D01*
X152478871Y-64271101D01*
X152508000Y-64124657D01*
X152508000Y-63975343D01*
X152478871Y-63828899D01*
X152421731Y-63690952D01*
X152338777Y-63566803D01*
X152233197Y-63461223D01*
X152109048Y-63378269D01*
X151971101Y-63321129D01*
X151824657Y-63292000D01*
X151675343Y-63292000D01*
X151528899Y-63321129D01*
X151390952Y-63378269D01*
X151266803Y-63461223D01*
X151161223Y-63566803D01*
X151078269Y-63690952D01*
X151021129Y-63828899D01*
X150992000Y-63975343D01*
X128373115Y-63975343D01*
X128376730Y-63974624D01*
X128555625Y-63900523D01*
X128716626Y-63792946D01*
X128853546Y-63656026D01*
X128961123Y-63495025D01*
X129035224Y-63316130D01*
X129073000Y-63126217D01*
X129073000Y-62932583D01*
X129035224Y-62742670D01*
X128961123Y-62563775D01*
X128853546Y-62402774D01*
X128721191Y-62270419D01*
X138842000Y-62270419D01*
X138842000Y-62429581D01*
X138873051Y-62585685D01*
X138933959Y-62732732D01*
X139022385Y-62865070D01*
X139134930Y-62977615D01*
X139267268Y-63066041D01*
X139414315Y-63126949D01*
X139570419Y-63158000D01*
X139729581Y-63158000D01*
X139885685Y-63126949D01*
X140032732Y-63066041D01*
X140165070Y-62977615D01*
X140277615Y-62865070D01*
X140366041Y-62732732D01*
X140426949Y-62585685D01*
X140458000Y-62429581D01*
X140458000Y-62270419D01*
X140426949Y-62114315D01*
X140366041Y-61967268D01*
X140277615Y-61834930D01*
X140165070Y-61722385D01*
X140032732Y-61633959D01*
X139885685Y-61573051D01*
X139729581Y-61542000D01*
X139570419Y-61542000D01*
X139414315Y-61573051D01*
X139267268Y-61633959D01*
X139134930Y-61722385D01*
X139022385Y-61834930D01*
X138933959Y-61967268D01*
X138873051Y-62114315D01*
X138842000Y-62270419D01*
X128721191Y-62270419D01*
X128716626Y-62265854D01*
X128555625Y-62158277D01*
X128376730Y-62084176D01*
X128186817Y-62046400D01*
X127993183Y-62046400D01*
X127803270Y-62084176D01*
X127624375Y-62158277D01*
X127463374Y-62265854D01*
X127326454Y-62402774D01*
X127218877Y-62563775D01*
X127144776Y-62742670D01*
X127107000Y-62932583D01*
X122473000Y-62932583D01*
X122435224Y-62742670D01*
X122361123Y-62563775D01*
X122253546Y-62402774D01*
X122116626Y-62265854D01*
X121955625Y-62158277D01*
X121776730Y-62084176D01*
X121586817Y-62046400D01*
X121393183Y-62046400D01*
X121203270Y-62084176D01*
X121024375Y-62158277D01*
X120863374Y-62265854D01*
X120726454Y-62402774D01*
X120618877Y-62563775D01*
X120544776Y-62742670D01*
X120507000Y-62932583D01*
X115180689Y-62932583D01*
X115175649Y-62881415D01*
X115146601Y-62785657D01*
X115099429Y-62697405D01*
X115035948Y-62620052D01*
X114958595Y-62556571D01*
X114923337Y-62537725D01*
X115022754Y-62388938D01*
X115128892Y-62132699D01*
X115183000Y-61860676D01*
X115183000Y-61583324D01*
X115128892Y-61311301D01*
X115022754Y-61055062D01*
X114868665Y-60824452D01*
X114860144Y-60815931D01*
X116882588Y-60815931D01*
X116882588Y-60965245D01*
X116911717Y-61111689D01*
X116968857Y-61249636D01*
X117051811Y-61373785D01*
X117157391Y-61479365D01*
X117281540Y-61562319D01*
X117419487Y-61619459D01*
X117565931Y-61648588D01*
X117715245Y-61648588D01*
X117861689Y-61619459D01*
X117999636Y-61562319D01*
X118123785Y-61479365D01*
X118229365Y-61373785D01*
X118312319Y-61249636D01*
X118369459Y-61111689D01*
X118398588Y-60965245D01*
X118398588Y-60815931D01*
X118369459Y-60669487D01*
X118312319Y-60531540D01*
X118229365Y-60407391D01*
X118123785Y-60301811D01*
X117999636Y-60218857D01*
X117861689Y-60161717D01*
X117715245Y-60132588D01*
X117565931Y-60132588D01*
X117419487Y-60161717D01*
X117281540Y-60218857D01*
X117157391Y-60301811D01*
X117051811Y-60407391D01*
X116968857Y-60531540D01*
X116911717Y-60669487D01*
X116882588Y-60815931D01*
X114860144Y-60815931D01*
X114686713Y-60642500D01*
X114868665Y-60460548D01*
X115022754Y-60229938D01*
X115128892Y-59973699D01*
X115183000Y-59701676D01*
X115183000Y-59615343D01*
X130559986Y-59615343D01*
X130559986Y-59764657D01*
X130589115Y-59911101D01*
X130646255Y-60049048D01*
X130729209Y-60173197D01*
X130834789Y-60278777D01*
X130958938Y-60361731D01*
X131096885Y-60418871D01*
X131243329Y-60448000D01*
X131392643Y-60448000D01*
X131539087Y-60418871D01*
X131677034Y-60361731D01*
X131801183Y-60278777D01*
X131906763Y-60173197D01*
X131989717Y-60049048D01*
X132046857Y-59911101D01*
X132075986Y-59764657D01*
X132075986Y-59615343D01*
X132046857Y-59468899D01*
X131997744Y-59350329D01*
X143817002Y-59350329D01*
X143817002Y-59499643D01*
X143846131Y-59646087D01*
X143903271Y-59784034D01*
X143986225Y-59908183D01*
X144091805Y-60013763D01*
X144215954Y-60096717D01*
X144353901Y-60153857D01*
X144500345Y-60182986D01*
X144649659Y-60182986D01*
X144796103Y-60153857D01*
X144934050Y-60096717D01*
X145058199Y-60013763D01*
X145163779Y-59908183D01*
X145219131Y-59825343D01*
X145742000Y-59825343D01*
X145742000Y-59974657D01*
X145771129Y-60121101D01*
X145828269Y-60259048D01*
X145911223Y-60383197D01*
X146016803Y-60488777D01*
X146140952Y-60571731D01*
X146278899Y-60628871D01*
X146425343Y-60658000D01*
X146574657Y-60658000D01*
X146721101Y-60628871D01*
X146859048Y-60571731D01*
X146983197Y-60488777D01*
X147088777Y-60383197D01*
X147171731Y-60259048D01*
X147228871Y-60121101D01*
X147258000Y-59974657D01*
X147258000Y-59925341D01*
X152042002Y-59925341D01*
X152042002Y-60074655D01*
X152071131Y-60221099D01*
X152128271Y-60359046D01*
X152211225Y-60483195D01*
X152316805Y-60588775D01*
X152440954Y-60671729D01*
X152578901Y-60728869D01*
X152725345Y-60757998D01*
X152874659Y-60757998D01*
X153021103Y-60728869D01*
X153159050Y-60671729D01*
X153283199Y-60588775D01*
X153388779Y-60483195D01*
X153471733Y-60359046D01*
X153528873Y-60221099D01*
X153558002Y-60074655D01*
X153558002Y-59925341D01*
X153528873Y-59778897D01*
X153471733Y-59640950D01*
X153388779Y-59516801D01*
X153283199Y-59411221D01*
X153159050Y-59328267D01*
X153021103Y-59271127D01*
X152874659Y-59241998D01*
X152725345Y-59241998D01*
X152578901Y-59271127D01*
X152440954Y-59328267D01*
X152316805Y-59411221D01*
X152211225Y-59516801D01*
X152128271Y-59640950D01*
X152071131Y-59778897D01*
X152042002Y-59925341D01*
X147258000Y-59925341D01*
X147258000Y-59825343D01*
X147228871Y-59678899D01*
X147171731Y-59540952D01*
X147088777Y-59416803D01*
X146983197Y-59311223D01*
X146859048Y-59228269D01*
X146721101Y-59171129D01*
X146574657Y-59142000D01*
X146425343Y-59142000D01*
X146278899Y-59171129D01*
X146140952Y-59228269D01*
X146016803Y-59311223D01*
X145911223Y-59416803D01*
X145828269Y-59540952D01*
X145771129Y-59678899D01*
X145742000Y-59825343D01*
X145219131Y-59825343D01*
X145246733Y-59784034D01*
X145303873Y-59646087D01*
X145333002Y-59499643D01*
X145333002Y-59350329D01*
X145303873Y-59203885D01*
X145246733Y-59065938D01*
X145163779Y-58941789D01*
X145058199Y-58836209D01*
X144934050Y-58753255D01*
X144796103Y-58696115D01*
X144649659Y-58666986D01*
X144500345Y-58666986D01*
X144353901Y-58696115D01*
X144215954Y-58753255D01*
X144091805Y-58836209D01*
X143986225Y-58941789D01*
X143903271Y-59065938D01*
X143846131Y-59203885D01*
X143817002Y-59350329D01*
X131997744Y-59350329D01*
X131989717Y-59330952D01*
X131906763Y-59206803D01*
X131801183Y-59101223D01*
X131677034Y-59018269D01*
X131539087Y-58961129D01*
X131392643Y-58932000D01*
X131243329Y-58932000D01*
X131096885Y-58961129D01*
X130958938Y-59018269D01*
X130834789Y-59101223D01*
X130729209Y-59206803D01*
X130646255Y-59330952D01*
X130589115Y-59468899D01*
X130559986Y-59615343D01*
X115183000Y-59615343D01*
X115183000Y-59424324D01*
X115128892Y-59152301D01*
X115022754Y-58896062D01*
X114868665Y-58665452D01*
X114686713Y-58483500D01*
X114868665Y-58301548D01*
X115022754Y-58070938D01*
X115128892Y-57814699D01*
X115133482Y-57791623D01*
X131494720Y-57791623D01*
X131494720Y-57940937D01*
X131523849Y-58087381D01*
X131580989Y-58225328D01*
X131663943Y-58349477D01*
X131769523Y-58455057D01*
X131893672Y-58538011D01*
X132031619Y-58595151D01*
X132178063Y-58624280D01*
X132327377Y-58624280D01*
X132473821Y-58595151D01*
X132611768Y-58538011D01*
X132735917Y-58455057D01*
X132841497Y-58349477D01*
X132924451Y-58225328D01*
X132981591Y-58087381D01*
X133010720Y-57940937D01*
X133010720Y-57791623D01*
X132981591Y-57645179D01*
X132924451Y-57507232D01*
X132841497Y-57383083D01*
X132735917Y-57277503D01*
X132611768Y-57194549D01*
X132473821Y-57137409D01*
X132327377Y-57108280D01*
X132178063Y-57108280D01*
X132031619Y-57137409D01*
X131893672Y-57194549D01*
X131769523Y-57277503D01*
X131663943Y-57383083D01*
X131580989Y-57507232D01*
X131523849Y-57645179D01*
X131494720Y-57791623D01*
X115133482Y-57791623D01*
X115183000Y-57542676D01*
X115183000Y-57265324D01*
X115128892Y-56993301D01*
X115022754Y-56737062D01*
X114868665Y-56506452D01*
X114672548Y-56310335D01*
X114441938Y-56156246D01*
X114185699Y-56050108D01*
X113913676Y-55996000D01*
X113636324Y-55996000D01*
X113364301Y-56050108D01*
X113108062Y-56156246D01*
X112877452Y-56310335D01*
X112681335Y-56506452D01*
X112527246Y-56737062D01*
X112421108Y-56993301D01*
X112367000Y-57265324D01*
X112367000Y-57542676D01*
X112421108Y-57814699D01*
X112527246Y-58070938D01*
X112681335Y-58301548D01*
X112863287Y-58483500D01*
X112681335Y-58665452D01*
X112527246Y-58896062D01*
X112421108Y-59152301D01*
X112367000Y-59424324D01*
X112367000Y-59701676D01*
X112421108Y-59973699D01*
X112527246Y-60229938D01*
X112681335Y-60460548D01*
X112863287Y-60642500D01*
X112681335Y-60824452D01*
X112527246Y-61055062D01*
X112421108Y-61311301D01*
X112367000Y-61583324D01*
X112367000Y-61860676D01*
X112421108Y-62132699D01*
X112527246Y-62388938D01*
X112626663Y-62537725D01*
X112591405Y-62556571D01*
X112514052Y-62620052D01*
X112450571Y-62697405D01*
X112403399Y-62785657D01*
X112374351Y-62881415D01*
X112364543Y-62981000D01*
X110377900Y-62981000D01*
X110499542Y-62860062D01*
X110515392Y-62840863D01*
X110527191Y-62818941D01*
X110534487Y-62795137D01*
X110537000Y-62770000D01*
X110537000Y-56460000D01*
X110534560Y-56435224D01*
X110527333Y-56411399D01*
X110515597Y-56389443D01*
X110499406Y-56369803D01*
X110117170Y-55990919D01*
X139343006Y-55990919D01*
X139343006Y-56150081D01*
X139374057Y-56306185D01*
X139434965Y-56453232D01*
X139523391Y-56585570D01*
X139635936Y-56698115D01*
X139768274Y-56786541D01*
X139915321Y-56847449D01*
X140071425Y-56878500D01*
X140155000Y-56878500D01*
X140155000Y-56970657D01*
X140184129Y-57117101D01*
X140241269Y-57255048D01*
X140324223Y-57379197D01*
X140429803Y-57484777D01*
X140553952Y-57567731D01*
X140691899Y-57624871D01*
X140838343Y-57654000D01*
X140987657Y-57654000D01*
X141134101Y-57624871D01*
X141272048Y-57567731D01*
X141396197Y-57484777D01*
X141501777Y-57379197D01*
X141584731Y-57255048D01*
X141597035Y-57225343D01*
X152242000Y-57225343D01*
X152242000Y-57374657D01*
X152271129Y-57521101D01*
X152328269Y-57659048D01*
X152411223Y-57783197D01*
X152516803Y-57888777D01*
X152640952Y-57971731D01*
X152778899Y-58028871D01*
X152925343Y-58058000D01*
X153074657Y-58058000D01*
X153221101Y-58028871D01*
X153359048Y-57971731D01*
X153483197Y-57888777D01*
X153588777Y-57783197D01*
X153671731Y-57659048D01*
X153728871Y-57521101D01*
X153758000Y-57374657D01*
X153758000Y-57225343D01*
X153728871Y-57078899D01*
X153671731Y-56940952D01*
X153588777Y-56816803D01*
X153483197Y-56711223D01*
X153359048Y-56628269D01*
X153221101Y-56571129D01*
X153074657Y-56542000D01*
X152925343Y-56542000D01*
X152778899Y-56571129D01*
X152640952Y-56628269D01*
X152516803Y-56711223D01*
X152411223Y-56816803D01*
X152328269Y-56940952D01*
X152271129Y-57078899D01*
X152242000Y-57225343D01*
X141597035Y-57225343D01*
X141641871Y-57117101D01*
X141671000Y-56970657D01*
X141671000Y-56821343D01*
X141670161Y-56817126D01*
X141727343Y-56828500D01*
X141876657Y-56828500D01*
X142023101Y-56799371D01*
X142161048Y-56742231D01*
X142285197Y-56659277D01*
X142390777Y-56553697D01*
X142473731Y-56429548D01*
X142530871Y-56291601D01*
X142560000Y-56145157D01*
X142560000Y-55995843D01*
X142530871Y-55849399D01*
X142473731Y-55711452D01*
X142390777Y-55587303D01*
X142285197Y-55481723D01*
X142161048Y-55398769D01*
X142023101Y-55341629D01*
X141876657Y-55312500D01*
X141727343Y-55312500D01*
X141580899Y-55341629D01*
X141442952Y-55398769D01*
X141318803Y-55481723D01*
X141213223Y-55587303D01*
X141130269Y-55711452D01*
X141073129Y-55849399D01*
X141044000Y-55995843D01*
X141044000Y-56145157D01*
X141044839Y-56149374D01*
X140987657Y-56138000D01*
X140959006Y-56138000D01*
X140959006Y-55990919D01*
X140927955Y-55834815D01*
X140867047Y-55687768D01*
X140778621Y-55555430D01*
X140666076Y-55442885D01*
X140533738Y-55354459D01*
X140386691Y-55293551D01*
X140230587Y-55262500D01*
X140071425Y-55262500D01*
X139915321Y-55293551D01*
X139768274Y-55354459D01*
X139635936Y-55442885D01*
X139523391Y-55555430D01*
X139434965Y-55687768D01*
X139374057Y-55834815D01*
X139343006Y-55990919D01*
X110117170Y-55990919D01*
X109359406Y-55239803D01*
X109340092Y-55224094D01*
X109318083Y-55212454D01*
X109294228Y-55205332D01*
X109270000Y-55203000D01*
X104522870Y-55203000D01*
X104424874Y-55104303D01*
X120613360Y-55104303D01*
X120613360Y-55253617D01*
X120642489Y-55400061D01*
X120699629Y-55538008D01*
X120782583Y-55662157D01*
X120888163Y-55767737D01*
X121012312Y-55850691D01*
X121150259Y-55907831D01*
X121296703Y-55936960D01*
X121446017Y-55936960D01*
X121592461Y-55907831D01*
X121730408Y-55850691D01*
X121854557Y-55767737D01*
X121960137Y-55662157D01*
X122043091Y-55538008D01*
X122100231Y-55400061D01*
X122129360Y-55253617D01*
X122129360Y-55104303D01*
X122100231Y-54957859D01*
X122043091Y-54819912D01*
X121960137Y-54695763D01*
X121854557Y-54590183D01*
X121730408Y-54507229D01*
X121592461Y-54450089D01*
X121446017Y-54420960D01*
X121296703Y-54420960D01*
X121150259Y-54450089D01*
X121012312Y-54507229D01*
X120888163Y-54590183D01*
X120782583Y-54695763D01*
X120699629Y-54819912D01*
X120642489Y-54957859D01*
X120613360Y-55104303D01*
X104424874Y-55104303D01*
X103197000Y-53867659D01*
X103197000Y-53011343D01*
X110430500Y-53011343D01*
X110430500Y-53160657D01*
X110459629Y-53307101D01*
X110516769Y-53445048D01*
X110599723Y-53569197D01*
X110705303Y-53674777D01*
X110829452Y-53757731D01*
X110967399Y-53814871D01*
X111113843Y-53844000D01*
X111263157Y-53844000D01*
X111409601Y-53814871D01*
X111506000Y-53774941D01*
X111602399Y-53814871D01*
X111748843Y-53844000D01*
X111898157Y-53844000D01*
X112044601Y-53814871D01*
X112182548Y-53757731D01*
X112306697Y-53674777D01*
X112412277Y-53569197D01*
X112487687Y-53456337D01*
X117973794Y-53456337D01*
X117973794Y-53605651D01*
X118002923Y-53752095D01*
X118060063Y-53890042D01*
X118143017Y-54014191D01*
X118248597Y-54119771D01*
X118372746Y-54202725D01*
X118510693Y-54259865D01*
X118657137Y-54288994D01*
X118806451Y-54288994D01*
X118952895Y-54259865D01*
X119090842Y-54202725D01*
X119214991Y-54119771D01*
X119320571Y-54014191D01*
X119403525Y-53890042D01*
X119460665Y-53752095D01*
X119489794Y-53605651D01*
X119489794Y-53456337D01*
X119460665Y-53309893D01*
X119403525Y-53171946D01*
X119320571Y-53047797D01*
X119214991Y-52942217D01*
X119090842Y-52859263D01*
X118952895Y-52802123D01*
X118806451Y-52772994D01*
X118657137Y-52772994D01*
X118510693Y-52802123D01*
X118372746Y-52859263D01*
X118248597Y-52942217D01*
X118143017Y-53047797D01*
X118060063Y-53171946D01*
X118002923Y-53309893D01*
X117973794Y-53456337D01*
X112487687Y-53456337D01*
X112495231Y-53445048D01*
X112552371Y-53307101D01*
X112581500Y-53160657D01*
X112581500Y-53011343D01*
X112552371Y-52864899D01*
X112504920Y-52750343D01*
X125142000Y-52750343D01*
X125142000Y-52899657D01*
X125171129Y-53046101D01*
X125228269Y-53184048D01*
X125311223Y-53308197D01*
X125416803Y-53413777D01*
X125540952Y-53496731D01*
X125678899Y-53553871D01*
X125825343Y-53583000D01*
X125974657Y-53583000D01*
X126121101Y-53553871D01*
X126259048Y-53496731D01*
X126383197Y-53413777D01*
X126419871Y-53377103D01*
X127578040Y-53377103D01*
X127578040Y-53526417D01*
X127607169Y-53672861D01*
X127664309Y-53810808D01*
X127747263Y-53934957D01*
X127852843Y-54040537D01*
X127976992Y-54123491D01*
X128114939Y-54180631D01*
X128261383Y-54209760D01*
X128410697Y-54209760D01*
X128557141Y-54180631D01*
X128695088Y-54123491D01*
X128819237Y-54040537D01*
X128924817Y-53934957D01*
X129007771Y-53810808D01*
X129064911Y-53672861D01*
X129094040Y-53526417D01*
X129094040Y-53377103D01*
X129064911Y-53230659D01*
X129007771Y-53092712D01*
X128924817Y-52968563D01*
X128819237Y-52862983D01*
X128695088Y-52780029D01*
X128557141Y-52722889D01*
X128410697Y-52693760D01*
X128261383Y-52693760D01*
X128114939Y-52722889D01*
X127976992Y-52780029D01*
X127852843Y-52862983D01*
X127747263Y-52968563D01*
X127664309Y-53092712D01*
X127607169Y-53230659D01*
X127578040Y-53377103D01*
X126419871Y-53377103D01*
X126488777Y-53308197D01*
X126571731Y-53184048D01*
X126628871Y-53046101D01*
X126658000Y-52899657D01*
X126658000Y-52750343D01*
X126628871Y-52603899D01*
X126571731Y-52465952D01*
X126508566Y-52371419D01*
X146392000Y-52371419D01*
X146392000Y-52530581D01*
X146423051Y-52686685D01*
X146483959Y-52833732D01*
X146572385Y-52966070D01*
X146684930Y-53078615D01*
X146817268Y-53167041D01*
X146952461Y-53223039D01*
X147008459Y-53358232D01*
X147096885Y-53490570D01*
X147209430Y-53603115D01*
X147341768Y-53691541D01*
X147488815Y-53752449D01*
X147496102Y-53753898D01*
X147497551Y-53761185D01*
X147558459Y-53908232D01*
X147646885Y-54040570D01*
X147759430Y-54153115D01*
X147891768Y-54241541D01*
X148038815Y-54302449D01*
X148194919Y-54333500D01*
X148354081Y-54333500D01*
X148510185Y-54302449D01*
X148657232Y-54241541D01*
X148789570Y-54153115D01*
X148902115Y-54040570D01*
X148990541Y-53908232D01*
X149051449Y-53761185D01*
X149082500Y-53605081D01*
X149082500Y-53445919D01*
X149051449Y-53289815D01*
X148990541Y-53142768D01*
X148902115Y-53010430D01*
X148789570Y-52897885D01*
X148657232Y-52809459D01*
X148510185Y-52748551D01*
X148502898Y-52747102D01*
X148501449Y-52739815D01*
X148440541Y-52592768D01*
X148352115Y-52460430D01*
X148239570Y-52347885D01*
X148107232Y-52259459D01*
X147972039Y-52203461D01*
X147916041Y-52068268D01*
X147827615Y-51935930D01*
X147715070Y-51823385D01*
X147582732Y-51734959D01*
X147435685Y-51674051D01*
X147279581Y-51643000D01*
X147120419Y-51643000D01*
X146964315Y-51674051D01*
X146817268Y-51734959D01*
X146684930Y-51823385D01*
X146572385Y-51935930D01*
X146483959Y-52068268D01*
X146423051Y-52215315D01*
X146392000Y-52371419D01*
X126508566Y-52371419D01*
X126488777Y-52341803D01*
X126383197Y-52236223D01*
X126259048Y-52153269D01*
X126121101Y-52096129D01*
X125974657Y-52067000D01*
X125825343Y-52067000D01*
X125678899Y-52096129D01*
X125540952Y-52153269D01*
X125416803Y-52236223D01*
X125311223Y-52341803D01*
X125228269Y-52465952D01*
X125171129Y-52603899D01*
X125142000Y-52750343D01*
X112504920Y-52750343D01*
X112495231Y-52726952D01*
X112412277Y-52602803D01*
X112306697Y-52497223D01*
X112182548Y-52414269D01*
X112044601Y-52357129D01*
X111898157Y-52328000D01*
X111748843Y-52328000D01*
X111602399Y-52357129D01*
X111506000Y-52397059D01*
X111409601Y-52357129D01*
X111263157Y-52328000D01*
X111113843Y-52328000D01*
X110967399Y-52357129D01*
X110829452Y-52414269D01*
X110705303Y-52497223D01*
X110599723Y-52602803D01*
X110516769Y-52726952D01*
X110459629Y-52864899D01*
X110430500Y-53011343D01*
X103197000Y-53011343D01*
X103197000Y-51672919D01*
X118572000Y-51672919D01*
X118572000Y-51832081D01*
X118603051Y-51988185D01*
X118663959Y-52135232D01*
X118752385Y-52267570D01*
X118864930Y-52380115D01*
X118997268Y-52468541D01*
X119144315Y-52529449D01*
X119300419Y-52560500D01*
X119459581Y-52560500D01*
X119615685Y-52529449D01*
X119762732Y-52468541D01*
X119895070Y-52380115D01*
X120007615Y-52267570D01*
X120096041Y-52135232D01*
X120156949Y-51988185D01*
X120188000Y-51832081D01*
X120188000Y-51672919D01*
X120156949Y-51516815D01*
X120096041Y-51369768D01*
X120007615Y-51237430D01*
X119895070Y-51124885D01*
X119762732Y-51036459D01*
X119615685Y-50975551D01*
X119459581Y-50944500D01*
X119300419Y-50944500D01*
X119144315Y-50975551D01*
X118997268Y-51036459D01*
X118864930Y-51124885D01*
X118752385Y-51237430D01*
X118663959Y-51369768D01*
X118603051Y-51516815D01*
X118572000Y-51672919D01*
X103197000Y-51672919D01*
X103197000Y-50250343D01*
X121842000Y-50250343D01*
X121842000Y-50399657D01*
X121871129Y-50546101D01*
X121928269Y-50684048D01*
X122011223Y-50808197D01*
X122116803Y-50913777D01*
X122240952Y-50996731D01*
X122378899Y-51053871D01*
X122525343Y-51083000D01*
X122674657Y-51083000D01*
X122821101Y-51053871D01*
X122959048Y-50996731D01*
X123083197Y-50913777D01*
X123188777Y-50808197D01*
X123271731Y-50684048D01*
X123328871Y-50546101D01*
X123358000Y-50399657D01*
X123358000Y-50250343D01*
X124042000Y-50250343D01*
X124042000Y-50399657D01*
X124071129Y-50546101D01*
X124128269Y-50684048D01*
X124211223Y-50808197D01*
X124316803Y-50913777D01*
X124440952Y-50996731D01*
X124578899Y-51053871D01*
X124725343Y-51083000D01*
X124874657Y-51083000D01*
X125021101Y-51053871D01*
X125159048Y-50996731D01*
X125283197Y-50913777D01*
X125388777Y-50808197D01*
X125471731Y-50684048D01*
X125528871Y-50546101D01*
X125558000Y-50399657D01*
X125558000Y-50268143D01*
X126231840Y-50268143D01*
X126231840Y-50417457D01*
X126260969Y-50563901D01*
X126318109Y-50701848D01*
X126401063Y-50825997D01*
X126506643Y-50931577D01*
X126630792Y-51014531D01*
X126768739Y-51071671D01*
X126915183Y-51100800D01*
X127064497Y-51100800D01*
X127210941Y-51071671D01*
X127348888Y-51014531D01*
X127473037Y-50931577D01*
X127578617Y-50825997D01*
X127661571Y-50701848D01*
X127718711Y-50563901D01*
X127747840Y-50417457D01*
X127747840Y-50275343D01*
X128417000Y-50275343D01*
X128417000Y-50424657D01*
X128446129Y-50571101D01*
X128503269Y-50709048D01*
X128586223Y-50833197D01*
X128691803Y-50938777D01*
X128815952Y-51021731D01*
X128953899Y-51078871D01*
X129100343Y-51108000D01*
X129249657Y-51108000D01*
X129396101Y-51078871D01*
X129534048Y-51021731D01*
X129658197Y-50938777D01*
X129737500Y-50859474D01*
X129841803Y-50963777D01*
X129965952Y-51046731D01*
X130103899Y-51103871D01*
X130250343Y-51133000D01*
X130399657Y-51133000D01*
X130546101Y-51103871D01*
X130684048Y-51046731D01*
X130808197Y-50963777D01*
X130913777Y-50858197D01*
X130996731Y-50734048D01*
X131053871Y-50596101D01*
X131083000Y-50449657D01*
X131083000Y-50300343D01*
X131053871Y-50153899D01*
X130996731Y-50015952D01*
X130913777Y-49891803D01*
X130808197Y-49786223D01*
X130684048Y-49703269D01*
X130546101Y-49646129D01*
X130399657Y-49617000D01*
X130250343Y-49617000D01*
X130103899Y-49646129D01*
X129965952Y-49703269D01*
X129841803Y-49786223D01*
X129762500Y-49865526D01*
X129658197Y-49761223D01*
X129534048Y-49678269D01*
X129396101Y-49621129D01*
X129249657Y-49592000D01*
X129100343Y-49592000D01*
X128953899Y-49621129D01*
X128815952Y-49678269D01*
X128691803Y-49761223D01*
X128586223Y-49866803D01*
X128503269Y-49990952D01*
X128446129Y-50128899D01*
X128417000Y-50275343D01*
X127747840Y-50275343D01*
X127747840Y-50268143D01*
X127718711Y-50121699D01*
X127661571Y-49983752D01*
X127578617Y-49859603D01*
X127473037Y-49754023D01*
X127348888Y-49671069D01*
X127210941Y-49613929D01*
X127064497Y-49584800D01*
X126915183Y-49584800D01*
X126768739Y-49613929D01*
X126630792Y-49671069D01*
X126506643Y-49754023D01*
X126401063Y-49859603D01*
X126318109Y-49983752D01*
X126260969Y-50121699D01*
X126231840Y-50268143D01*
X125558000Y-50268143D01*
X125558000Y-50250343D01*
X125528871Y-50103899D01*
X125471731Y-49965952D01*
X125388777Y-49841803D01*
X125283197Y-49736223D01*
X125159048Y-49653269D01*
X125021101Y-49596129D01*
X124874657Y-49567000D01*
X124725343Y-49567000D01*
X124578899Y-49596129D01*
X124440952Y-49653269D01*
X124316803Y-49736223D01*
X124211223Y-49841803D01*
X124128269Y-49965952D01*
X124071129Y-50103899D01*
X124042000Y-50250343D01*
X123358000Y-50250343D01*
X123328871Y-50103899D01*
X123271731Y-49965952D01*
X123188777Y-49841803D01*
X123083197Y-49736223D01*
X122959048Y-49653269D01*
X122821101Y-49596129D01*
X122674657Y-49567000D01*
X122525343Y-49567000D01*
X122378899Y-49596129D01*
X122240952Y-49653269D01*
X122116803Y-49736223D01*
X122011223Y-49841803D01*
X121928269Y-49965952D01*
X121871129Y-50103899D01*
X121842000Y-50250343D01*
X103197000Y-50250343D01*
X103197000Y-50090000D01*
X103194560Y-50065224D01*
X103187333Y-50041399D01*
X103175597Y-50019443D01*
X103159359Y-49999756D01*
X102139359Y-48989756D01*
X102120036Y-48974057D01*
X102098022Y-48962429D01*
X102074163Y-48955320D01*
X102050000Y-48953000D01*
X96590000Y-48953000D01*
X96565224Y-48955440D01*
X96541399Y-48962667D01*
X96519443Y-48974403D01*
X96499321Y-48991082D01*
X95489321Y-50021082D01*
X95473717Y-50040481D01*
X95462196Y-50062552D01*
X95455203Y-50086446D01*
X95453000Y-50110000D01*
X95453000Y-56807288D01*
X92000326Y-60250069D01*
X91984505Y-60269291D01*
X91972737Y-60291231D01*
X91965476Y-60315045D01*
X91963000Y-60340000D01*
X91963000Y-65467000D01*
X68463160Y-65467000D01*
X68463160Y-60256420D01*
X68460720Y-60231644D01*
X68453493Y-60207819D01*
X68441757Y-60185863D01*
X68425900Y-60166555D01*
X67466964Y-59208943D01*
X75458400Y-59208943D01*
X75458400Y-59358257D01*
X75487529Y-59504701D01*
X75544669Y-59642648D01*
X75627623Y-59766797D01*
X75733203Y-59872377D01*
X75857352Y-59955331D01*
X75995299Y-60012471D01*
X76141743Y-60041600D01*
X76291057Y-60041600D01*
X76437501Y-60012471D01*
X76575448Y-59955331D01*
X76699597Y-59872377D01*
X76805177Y-59766797D01*
X76888131Y-59642648D01*
X76945271Y-59504701D01*
X76974400Y-59358257D01*
X76974400Y-59208943D01*
X76945271Y-59062499D01*
X76888131Y-58924552D01*
X76885370Y-58920419D01*
X81692000Y-58920419D01*
X81692000Y-59079581D01*
X81723051Y-59235685D01*
X81783959Y-59382732D01*
X81872385Y-59515070D01*
X81984930Y-59627615D01*
X82117268Y-59716041D01*
X82264315Y-59776949D01*
X82420419Y-59808000D01*
X82579581Y-59808000D01*
X82735685Y-59776949D01*
X82882732Y-59716041D01*
X83015070Y-59627615D01*
X83127615Y-59515070D01*
X83216041Y-59382732D01*
X83276949Y-59235685D01*
X83308000Y-59079581D01*
X83308000Y-58920419D01*
X83276949Y-58764315D01*
X83216041Y-58617268D01*
X83127615Y-58484930D01*
X83015070Y-58372385D01*
X82882732Y-58283959D01*
X82735685Y-58223051D01*
X82579581Y-58192000D01*
X82420419Y-58192000D01*
X82264315Y-58223051D01*
X82117268Y-58283959D01*
X81984930Y-58372385D01*
X81872385Y-58484930D01*
X81783959Y-58617268D01*
X81723051Y-58764315D01*
X81692000Y-58920419D01*
X76885370Y-58920419D01*
X76805177Y-58800403D01*
X76699597Y-58694823D01*
X76575448Y-58611869D01*
X76437501Y-58554729D01*
X76291057Y-58525600D01*
X76141743Y-58525600D01*
X75995299Y-58554729D01*
X75857352Y-58611869D01*
X75733203Y-58694823D01*
X75627623Y-58800403D01*
X75544669Y-58924552D01*
X75487529Y-59062499D01*
X75458400Y-59208943D01*
X67466964Y-59208943D01*
X66624200Y-58367344D01*
X66624200Y-56820419D01*
X69292000Y-56820419D01*
X69292000Y-56979581D01*
X69323051Y-57135685D01*
X69383959Y-57282732D01*
X69472385Y-57415070D01*
X69584930Y-57527615D01*
X69717268Y-57616041D01*
X69864315Y-57676949D01*
X70020419Y-57708000D01*
X70179581Y-57708000D01*
X70335685Y-57676949D01*
X70482732Y-57616041D01*
X70615070Y-57527615D01*
X70727615Y-57415070D01*
X70816041Y-57282732D01*
X70876949Y-57135685D01*
X70908000Y-56979581D01*
X70908000Y-56820419D01*
X70876949Y-56664315D01*
X70816041Y-56517268D01*
X70727615Y-56384930D01*
X70615070Y-56272385D01*
X70482732Y-56183959D01*
X70335685Y-56123051D01*
X70179581Y-56092000D01*
X70020419Y-56092000D01*
X69864315Y-56123051D01*
X69717268Y-56183959D01*
X69584930Y-56272385D01*
X69472385Y-56384930D01*
X69383959Y-56517268D01*
X69323051Y-56664315D01*
X69292000Y-56820419D01*
X66624200Y-56820419D01*
X66624200Y-55118000D01*
X66621760Y-55093224D01*
X66614533Y-55069399D01*
X66602797Y-55047443D01*
X66586890Y-55028085D01*
X65568350Y-54012085D01*
X65549086Y-53996315D01*
X65527114Y-53984607D01*
X65503281Y-53977409D01*
X65478660Y-53975000D01*
X58877200Y-53975000D01*
X58852424Y-53977440D01*
X58828599Y-53984667D01*
X58806643Y-53996403D01*
X58787397Y-54012197D01*
X57771397Y-55028197D01*
X57755603Y-55047443D01*
X57743867Y-55069399D01*
X57736640Y-55093224D01*
X57734200Y-55118000D01*
X57734200Y-58397874D01*
X55962917Y-60169157D01*
X55947123Y-60188403D01*
X55935387Y-60210359D01*
X55928160Y-60234184D01*
X55925720Y-60258960D01*
X55925720Y-65467000D01*
X55742355Y-65467000D01*
X55393309Y-65450833D01*
X55092830Y-65376740D01*
X54812463Y-65245693D01*
X54562897Y-65062690D01*
X54353621Y-64834690D01*
X54192620Y-64570389D01*
X54086021Y-64279850D01*
X54034634Y-63953490D01*
X54033000Y-63911234D01*
X54033000Y-52455343D01*
X81732000Y-52455343D01*
X81732000Y-52604657D01*
X81761129Y-52751101D01*
X81818269Y-52889048D01*
X81901223Y-53013197D01*
X82006803Y-53118777D01*
X82130952Y-53201731D01*
X82268899Y-53258871D01*
X82415343Y-53288000D01*
X82564657Y-53288000D01*
X82711101Y-53258871D01*
X82849048Y-53201731D01*
X82973197Y-53118777D01*
X83078777Y-53013197D01*
X83161731Y-52889048D01*
X83218871Y-52751101D01*
X83248000Y-52604657D01*
X83248000Y-52455343D01*
X83218871Y-52308899D01*
X83161731Y-52170952D01*
X83078777Y-52046803D01*
X82973197Y-51941223D01*
X82849048Y-51858269D01*
X82711101Y-51801129D01*
X82564657Y-51772000D01*
X82415343Y-51772000D01*
X82268899Y-51801129D01*
X82130952Y-51858269D01*
X82006803Y-51941223D01*
X81901223Y-52046803D01*
X81818269Y-52170952D01*
X81761129Y-52308899D01*
X81732000Y-52455343D01*
X54033000Y-52455343D01*
X54033000Y-51515343D01*
X71562000Y-51515343D01*
X71562000Y-51664657D01*
X71591129Y-51811101D01*
X71648269Y-51949048D01*
X71731223Y-52073197D01*
X71836803Y-52178777D01*
X71960952Y-52261731D01*
X72098899Y-52318871D01*
X72245343Y-52348000D01*
X72394657Y-52348000D01*
X72541101Y-52318871D01*
X72679048Y-52261731D01*
X72803197Y-52178777D01*
X72908777Y-52073197D01*
X72991731Y-51949048D01*
X73048871Y-51811101D01*
X73078000Y-51664657D01*
X73078000Y-51515343D01*
X73048871Y-51368899D01*
X72991731Y-51230952D01*
X72908777Y-51106803D01*
X72803197Y-51001223D01*
X72679048Y-50918269D01*
X72541101Y-50861129D01*
X72394657Y-50832000D01*
X72245343Y-50832000D01*
X72098899Y-50861129D01*
X71960952Y-50918269D01*
X71836803Y-51001223D01*
X71731223Y-51106803D01*
X71648269Y-51230952D01*
X71591129Y-51368899D01*
X71562000Y-51515343D01*
X54033000Y-51515343D01*
X54033000Y-50725343D01*
X74069200Y-50725343D01*
X74069200Y-50874657D01*
X74098329Y-51021101D01*
X74155469Y-51159048D01*
X74238423Y-51283197D01*
X74344003Y-51388777D01*
X74468152Y-51471731D01*
X74606099Y-51528871D01*
X74752543Y-51558000D01*
X74901857Y-51558000D01*
X75048301Y-51528871D01*
X75186248Y-51471731D01*
X75310397Y-51388777D01*
X75415977Y-51283197D01*
X75498931Y-51159048D01*
X75556071Y-51021101D01*
X75585200Y-50874657D01*
X75585200Y-50725343D01*
X75556071Y-50578899D01*
X75498931Y-50440952D01*
X75415977Y-50316803D01*
X75310397Y-50211223D01*
X75186248Y-50128269D01*
X75048301Y-50071129D01*
X74901857Y-50042000D01*
X74752543Y-50042000D01*
X74606099Y-50071129D01*
X74468152Y-50128269D01*
X74344003Y-50211223D01*
X74238423Y-50316803D01*
X74155469Y-50440952D01*
X74098329Y-50578899D01*
X74069200Y-50725343D01*
X54033000Y-50725343D01*
X54033000Y-49760143D01*
X76710800Y-49760143D01*
X76710800Y-49909457D01*
X76739929Y-50055901D01*
X76797069Y-50193848D01*
X76880023Y-50317997D01*
X76985603Y-50423577D01*
X77109752Y-50506531D01*
X77247699Y-50563671D01*
X77394143Y-50592800D01*
X77543457Y-50592800D01*
X77689901Y-50563671D01*
X77827848Y-50506531D01*
X77951997Y-50423577D01*
X78057577Y-50317997D01*
X78140531Y-50193848D01*
X78197671Y-50055901D01*
X78226800Y-49909457D01*
X78226800Y-49760143D01*
X79708000Y-49760143D01*
X79708000Y-49909457D01*
X79737129Y-50055901D01*
X79794269Y-50193848D01*
X79877223Y-50317997D01*
X79982803Y-50423577D01*
X80106952Y-50506531D01*
X80244899Y-50563671D01*
X80391343Y-50592800D01*
X80540657Y-50592800D01*
X80687101Y-50563671D01*
X80825048Y-50506531D01*
X80949197Y-50423577D01*
X81054777Y-50317997D01*
X81137731Y-50193848D01*
X81194871Y-50055901D01*
X81224000Y-49909457D01*
X81224000Y-49760143D01*
X81194871Y-49613699D01*
X81137731Y-49475752D01*
X81054777Y-49351603D01*
X80949197Y-49246023D01*
X80825048Y-49163069D01*
X80687101Y-49105929D01*
X80540657Y-49076800D01*
X80391343Y-49076800D01*
X80244899Y-49105929D01*
X80106952Y-49163069D01*
X79982803Y-49246023D01*
X79877223Y-49351603D01*
X79794269Y-49475752D01*
X79737129Y-49613699D01*
X79708000Y-49760143D01*
X78226800Y-49760143D01*
X78197671Y-49613699D01*
X78140531Y-49475752D01*
X78057577Y-49351603D01*
X77951997Y-49246023D01*
X77827848Y-49163069D01*
X77689901Y-49105929D01*
X77543457Y-49076800D01*
X77394143Y-49076800D01*
X77247699Y-49105929D01*
X77109752Y-49163069D01*
X76985603Y-49246023D01*
X76880023Y-49351603D01*
X76797069Y-49475752D01*
X76739929Y-49613699D01*
X76710800Y-49760143D01*
X54033000Y-49760143D01*
X54033000Y-45899343D01*
X57852500Y-45899343D01*
X57852500Y-46048657D01*
X57881629Y-46195101D01*
X57938769Y-46333048D01*
X58021723Y-46457197D01*
X58127303Y-46562777D01*
X58251452Y-46645731D01*
X58389399Y-46702871D01*
X58535843Y-46732000D01*
X58685157Y-46732000D01*
X58831601Y-46702871D01*
X58969548Y-46645731D01*
X59093697Y-46562777D01*
X59199277Y-46457197D01*
X59282231Y-46333048D01*
X59339371Y-46195101D01*
X59368500Y-46048657D01*
X59368500Y-45899343D01*
X59503500Y-45899343D01*
X59503500Y-46048657D01*
X59532629Y-46195101D01*
X59589769Y-46333048D01*
X59672723Y-46457197D01*
X59778303Y-46562777D01*
X59902452Y-46645731D01*
X60040399Y-46702871D01*
X60186843Y-46732000D01*
X60336157Y-46732000D01*
X60482601Y-46702871D01*
X60620548Y-46645731D01*
X60744697Y-46562777D01*
X60850277Y-46457197D01*
X60933231Y-46333048D01*
X60990371Y-46195101D01*
X61019500Y-46048657D01*
X61019500Y-45899343D01*
X60990371Y-45752899D01*
X60933231Y-45614952D01*
X60850277Y-45490803D01*
X60744697Y-45385223D01*
X60655720Y-45325770D01*
X99471400Y-45325770D01*
X99471400Y-45504630D01*
X99506294Y-45680054D01*
X99574741Y-45845299D01*
X99674111Y-45994016D01*
X99800584Y-46120489D01*
X99949301Y-46219859D01*
X100114546Y-46288306D01*
X100289970Y-46323200D01*
X100468830Y-46323200D01*
X100644254Y-46288306D01*
X100809499Y-46219859D01*
X100958216Y-46120489D01*
X101084689Y-45994016D01*
X101184059Y-45845299D01*
X101252506Y-45680054D01*
X101287400Y-45504630D01*
X101287400Y-45325770D01*
X101252506Y-45150346D01*
X101184059Y-44985101D01*
X101084689Y-44836384D01*
X100958216Y-44709911D01*
X100809499Y-44610541D01*
X100644254Y-44542094D01*
X100468830Y-44507200D01*
X100289970Y-44507200D01*
X100114546Y-44542094D01*
X99949301Y-44610541D01*
X99800584Y-44709911D01*
X99674111Y-44836384D01*
X99574741Y-44985101D01*
X99506294Y-45150346D01*
X99471400Y-45325770D01*
X60655720Y-45325770D01*
X60620548Y-45302269D01*
X60482601Y-45245129D01*
X60336157Y-45216000D01*
X60186843Y-45216000D01*
X60040399Y-45245129D01*
X59902452Y-45302269D01*
X59778303Y-45385223D01*
X59672723Y-45490803D01*
X59589769Y-45614952D01*
X59532629Y-45752899D01*
X59503500Y-45899343D01*
X59368500Y-45899343D01*
X59339371Y-45752899D01*
X59282231Y-45614952D01*
X59199277Y-45490803D01*
X59093697Y-45385223D01*
X58969548Y-45302269D01*
X58831601Y-45245129D01*
X58685157Y-45216000D01*
X58535843Y-45216000D01*
X58389399Y-45245129D01*
X58251452Y-45302269D01*
X58127303Y-45385223D01*
X58021723Y-45490803D01*
X57938769Y-45614952D01*
X57881629Y-45752899D01*
X57852500Y-45899343D01*
X54033000Y-45899343D01*
X54033000Y-40560419D01*
X84212000Y-40560419D01*
X84212000Y-40719581D01*
X84243051Y-40875685D01*
X84303959Y-41022732D01*
X84392385Y-41155070D01*
X84504930Y-41267615D01*
X84637268Y-41356041D01*
X84784315Y-41416949D01*
X84940419Y-41448000D01*
X85099581Y-41448000D01*
X85255685Y-41416949D01*
X85402732Y-41356041D01*
X85535070Y-41267615D01*
X85647615Y-41155070D01*
X85736041Y-41022732D01*
X85796949Y-40875685D01*
X85828000Y-40719581D01*
X85828000Y-40560419D01*
X86772000Y-40560419D01*
X86772000Y-40719581D01*
X86803051Y-40875685D01*
X86863959Y-41022732D01*
X86952385Y-41155070D01*
X87064930Y-41267615D01*
X87197268Y-41356041D01*
X87344315Y-41416949D01*
X87500419Y-41448000D01*
X87659581Y-41448000D01*
X87815685Y-41416949D01*
X87962732Y-41356041D01*
X88095070Y-41267615D01*
X88207615Y-41155070D01*
X88296041Y-41022732D01*
X88356949Y-40875685D01*
X88388000Y-40719581D01*
X88388000Y-40565343D01*
X96397000Y-40565343D01*
X96397000Y-40714657D01*
X96426129Y-40861101D01*
X96483269Y-40999048D01*
X96497000Y-41019598D01*
X96497000Y-41115681D01*
X96493817Y-41148000D01*
X96497000Y-41180319D01*
X96506521Y-41276990D01*
X96544147Y-41401024D01*
X96605246Y-41515334D01*
X96687474Y-41615527D01*
X96712575Y-41636127D01*
X99079870Y-44003423D01*
X99100473Y-44028527D01*
X99200666Y-44110754D01*
X99314976Y-44171853D01*
X99439010Y-44209479D01*
X99535681Y-44219000D01*
X99535691Y-44219000D01*
X99567999Y-44222182D01*
X99600308Y-44219000D01*
X102216448Y-44219000D01*
X103863000Y-45865553D01*
X103863001Y-48044403D01*
X103804959Y-48131268D01*
X103744051Y-48278315D01*
X103713000Y-48434419D01*
X103713000Y-48593581D01*
X103744051Y-48749685D01*
X103804959Y-48896732D01*
X103893385Y-49029070D01*
X104005930Y-49141615D01*
X104138268Y-49230041D01*
X104285315Y-49290949D01*
X104441419Y-49322000D01*
X104600581Y-49322000D01*
X104756685Y-49290949D01*
X104903732Y-49230041D01*
X105036070Y-49141615D01*
X105148615Y-49029070D01*
X105237041Y-48896732D01*
X105297949Y-48749685D01*
X105329000Y-48593581D01*
X105329000Y-48434419D01*
X105297949Y-48278315D01*
X105237041Y-48131268D01*
X105179000Y-48044404D01*
X105179000Y-47540494D01*
X138016500Y-47540494D01*
X138016500Y-47709506D01*
X138049473Y-47875269D01*
X138114151Y-48031415D01*
X138208048Y-48171943D01*
X138327557Y-48291452D01*
X138468085Y-48385349D01*
X138624231Y-48450027D01*
X138789994Y-48483000D01*
X138959006Y-48483000D01*
X139124769Y-48450027D01*
X139280915Y-48385349D01*
X139350750Y-48338687D01*
X139392000Y-48366249D01*
X139392000Y-48534506D01*
X139424973Y-48700269D01*
X139489651Y-48856415D01*
X139502069Y-48875000D01*
X139489651Y-48893585D01*
X139424973Y-49049731D01*
X139392000Y-49215494D01*
X139392000Y-49384506D01*
X139424973Y-49550269D01*
X139489651Y-49706415D01*
X139518773Y-49750000D01*
X139489651Y-49793585D01*
X139424973Y-49949731D01*
X139392000Y-50115494D01*
X139392000Y-50284506D01*
X139424973Y-50450269D01*
X139489651Y-50606415D01*
X139583548Y-50746943D01*
X139703057Y-50866452D01*
X139843585Y-50960349D01*
X139999731Y-51025027D01*
X140165494Y-51058000D01*
X140334506Y-51058000D01*
X140500269Y-51025027D01*
X140656415Y-50960349D01*
X140796943Y-50866452D01*
X140916452Y-50746943D01*
X141010349Y-50606415D01*
X141075027Y-50450269D01*
X141108000Y-50284506D01*
X141108000Y-50115494D01*
X141078531Y-49967343D01*
X152392000Y-49967343D01*
X152392000Y-50116657D01*
X152421129Y-50263101D01*
X152478269Y-50401048D01*
X152561223Y-50525197D01*
X152666803Y-50630777D01*
X152790952Y-50713731D01*
X152928899Y-50770871D01*
X153075343Y-50800000D01*
X153224657Y-50800000D01*
X153371101Y-50770871D01*
X153509048Y-50713731D01*
X153633197Y-50630777D01*
X153738777Y-50525197D01*
X153821731Y-50401048D01*
X153878871Y-50263101D01*
X153908000Y-50116657D01*
X153908000Y-49967343D01*
X153878871Y-49820899D01*
X153821731Y-49682952D01*
X153738777Y-49558803D01*
X153633197Y-49453223D01*
X153509048Y-49370269D01*
X153371101Y-49313129D01*
X153224657Y-49284000D01*
X153075343Y-49284000D01*
X152928899Y-49313129D01*
X152790952Y-49370269D01*
X152666803Y-49453223D01*
X152561223Y-49558803D01*
X152478269Y-49682952D01*
X152421129Y-49820899D01*
X152392000Y-49967343D01*
X141078531Y-49967343D01*
X141075027Y-49949731D01*
X141010349Y-49793585D01*
X140981227Y-49750000D01*
X141010349Y-49706415D01*
X141075027Y-49550269D01*
X141108000Y-49384506D01*
X141108000Y-49215494D01*
X141075027Y-49049731D01*
X141010349Y-48893585D01*
X140997931Y-48875000D01*
X141010349Y-48856415D01*
X141075027Y-48700269D01*
X141108000Y-48534506D01*
X141108000Y-48417623D01*
X141185915Y-48385349D01*
X141326443Y-48291452D01*
X141432552Y-48185343D01*
X146689000Y-48185343D01*
X146689000Y-48334657D01*
X146718129Y-48481101D01*
X146775269Y-48619048D01*
X146858223Y-48743197D01*
X146963803Y-48848777D01*
X147087952Y-48931731D01*
X147225899Y-48988871D01*
X147372343Y-49018000D01*
X147521657Y-49018000D01*
X147668101Y-48988871D01*
X147806048Y-48931731D01*
X147930197Y-48848777D01*
X148035777Y-48743197D01*
X148118731Y-48619048D01*
X148175871Y-48481101D01*
X148205000Y-48334657D01*
X148205000Y-48185343D01*
X148175871Y-48038899D01*
X148118731Y-47900952D01*
X148035777Y-47776803D01*
X147930197Y-47671223D01*
X147806048Y-47588269D01*
X147668101Y-47531129D01*
X147521657Y-47502000D01*
X147372343Y-47502000D01*
X147225899Y-47531129D01*
X147087952Y-47588269D01*
X146963803Y-47671223D01*
X146858223Y-47776803D01*
X146775269Y-47900952D01*
X146718129Y-48038899D01*
X146689000Y-48185343D01*
X141432552Y-48185343D01*
X141445952Y-48171943D01*
X141539849Y-48031415D01*
X141604527Y-47875269D01*
X141637500Y-47709506D01*
X141637500Y-47540494D01*
X141604527Y-47374731D01*
X141539849Y-47218585D01*
X141445952Y-47078057D01*
X141326443Y-46958548D01*
X141185915Y-46864651D01*
X141029769Y-46799973D01*
X140864006Y-46767000D01*
X140694994Y-46767000D01*
X140529231Y-46799973D01*
X140373085Y-46864651D01*
X140303250Y-46911313D01*
X140233415Y-46864651D01*
X140077269Y-46799973D01*
X139911506Y-46767000D01*
X139742494Y-46767000D01*
X139576731Y-46799973D01*
X139420585Y-46864651D01*
X139350750Y-46911313D01*
X139280915Y-46864651D01*
X139124769Y-46799973D01*
X138959006Y-46767000D01*
X138789994Y-46767000D01*
X138624231Y-46799973D01*
X138468085Y-46864651D01*
X138327557Y-46958548D01*
X138208048Y-47078057D01*
X138114151Y-47218585D01*
X138049473Y-47374731D01*
X138016500Y-47540494D01*
X105179000Y-47540494D01*
X105179000Y-46402419D01*
X148290000Y-46402419D01*
X148290000Y-46561581D01*
X148321051Y-46717685D01*
X148381242Y-46863000D01*
X148321051Y-47008315D01*
X148290000Y-47164419D01*
X148290000Y-47323581D01*
X148321051Y-47479685D01*
X148381242Y-47625000D01*
X148321051Y-47770315D01*
X148290000Y-47926419D01*
X148290000Y-48085581D01*
X148321051Y-48241685D01*
X148381242Y-48387000D01*
X148321051Y-48532315D01*
X148290000Y-48688419D01*
X148290000Y-48847581D01*
X148321051Y-49003685D01*
X148381959Y-49150732D01*
X148470385Y-49283070D01*
X148582930Y-49395615D01*
X148715268Y-49484041D01*
X148862315Y-49544949D01*
X149018419Y-49576000D01*
X149177581Y-49576000D01*
X149333685Y-49544949D01*
X149480732Y-49484041D01*
X149613070Y-49395615D01*
X149725615Y-49283070D01*
X149814041Y-49150732D01*
X149874949Y-49003685D01*
X149906000Y-48847581D01*
X149906000Y-48688419D01*
X149874949Y-48532315D01*
X149814758Y-48387000D01*
X149874949Y-48241685D01*
X149906000Y-48085581D01*
X149906000Y-47926419D01*
X149874949Y-47770315D01*
X149814758Y-47625000D01*
X149874949Y-47479685D01*
X149906000Y-47323581D01*
X149906000Y-47164419D01*
X149874949Y-47008315D01*
X149814758Y-46863000D01*
X149874949Y-46717685D01*
X149906000Y-46561581D01*
X149906000Y-46402419D01*
X149874949Y-46246315D01*
X149814041Y-46099268D01*
X149725615Y-45966930D01*
X149613070Y-45854385D01*
X149480732Y-45765959D01*
X149333685Y-45705051D01*
X149177581Y-45674000D01*
X149018419Y-45674000D01*
X148862315Y-45705051D01*
X148715268Y-45765959D01*
X148582930Y-45854385D01*
X148470385Y-45966930D01*
X148381959Y-46099268D01*
X148321051Y-46246315D01*
X148290000Y-46402419D01*
X105179000Y-46402419D01*
X105179000Y-45865552D01*
X105526209Y-45518343D01*
X119892000Y-45518343D01*
X119892000Y-45667657D01*
X119921129Y-45814101D01*
X119978269Y-45952048D01*
X120061223Y-46076197D01*
X120166803Y-46181777D01*
X120290952Y-46264731D01*
X120428899Y-46321871D01*
X120575343Y-46351000D01*
X120724657Y-46351000D01*
X120871101Y-46321871D01*
X121009048Y-46264731D01*
X121133197Y-46181777D01*
X121238777Y-46076197D01*
X121321731Y-45952048D01*
X121378871Y-45814101D01*
X121408000Y-45667657D01*
X121408000Y-45518343D01*
X121381760Y-45386419D01*
X135907500Y-45386419D01*
X135907500Y-45545581D01*
X135938551Y-45701685D01*
X135999459Y-45848732D01*
X136087885Y-45981070D01*
X136200430Y-46093615D01*
X136332768Y-46182041D01*
X136479815Y-46242949D01*
X136635919Y-46274000D01*
X136795081Y-46274000D01*
X136951185Y-46242949D01*
X137098232Y-46182041D01*
X137230570Y-46093615D01*
X137343115Y-45981070D01*
X137431541Y-45848732D01*
X137492449Y-45701685D01*
X137523500Y-45545581D01*
X137523500Y-45386419D01*
X137501406Y-45275343D01*
X140242000Y-45275343D01*
X140242000Y-45424657D01*
X140271129Y-45571101D01*
X140328269Y-45709048D01*
X140411223Y-45833197D01*
X140516803Y-45938777D01*
X140640952Y-46021731D01*
X140778899Y-46078871D01*
X140925343Y-46108000D01*
X141074657Y-46108000D01*
X141221101Y-46078871D01*
X141359048Y-46021731D01*
X141483197Y-45938777D01*
X141588777Y-45833197D01*
X141671731Y-45709048D01*
X141728871Y-45571101D01*
X141758000Y-45424657D01*
X141758000Y-45275343D01*
X141728871Y-45128899D01*
X141671731Y-44990952D01*
X141588777Y-44866803D01*
X141483197Y-44761223D01*
X141359048Y-44678269D01*
X141221101Y-44621129D01*
X141074657Y-44592000D01*
X140925343Y-44592000D01*
X140778899Y-44621129D01*
X140640952Y-44678269D01*
X140516803Y-44761223D01*
X140411223Y-44866803D01*
X140328269Y-44990952D01*
X140271129Y-45128899D01*
X140242000Y-45275343D01*
X137501406Y-45275343D01*
X137492449Y-45230315D01*
X137431541Y-45083268D01*
X137343115Y-44950930D01*
X137230570Y-44838385D01*
X137098232Y-44749959D01*
X136951185Y-44689051D01*
X136795081Y-44658000D01*
X136635919Y-44658000D01*
X136479815Y-44689051D01*
X136332768Y-44749959D01*
X136200430Y-44838385D01*
X136087885Y-44950930D01*
X135999459Y-45083268D01*
X135938551Y-45230315D01*
X135907500Y-45386419D01*
X121381760Y-45386419D01*
X121378871Y-45371899D01*
X121321731Y-45233952D01*
X121238777Y-45109803D01*
X121133197Y-45004223D01*
X121009048Y-44921269D01*
X120871101Y-44864129D01*
X120724657Y-44835000D01*
X120575343Y-44835000D01*
X120428899Y-44864129D01*
X120290952Y-44921269D01*
X120166803Y-45004223D01*
X120061223Y-45109803D01*
X119978269Y-45233952D01*
X119921129Y-45371899D01*
X119892000Y-45518343D01*
X105526209Y-45518343D01*
X106549207Y-44495345D01*
X118762000Y-44495345D01*
X118762000Y-44644659D01*
X118791129Y-44791103D01*
X118848269Y-44929050D01*
X118931223Y-45053199D01*
X119036803Y-45158779D01*
X119160952Y-45241733D01*
X119298899Y-45298873D01*
X119445343Y-45328002D01*
X119594657Y-45328002D01*
X119741101Y-45298873D01*
X119879048Y-45241733D01*
X120003197Y-45158779D01*
X120108777Y-45053199D01*
X120191731Y-44929050D01*
X120248871Y-44791103D01*
X120278000Y-44644659D01*
X120278000Y-44495345D01*
X120248871Y-44348901D01*
X120191731Y-44210954D01*
X120108777Y-44086805D01*
X120003197Y-43981225D01*
X119879048Y-43898271D01*
X119741101Y-43841131D01*
X119594657Y-43812002D01*
X119445343Y-43812002D01*
X119298899Y-43841131D01*
X119160952Y-43898271D01*
X119036803Y-43981225D01*
X118931223Y-44086805D01*
X118848269Y-44210954D01*
X118791129Y-44348901D01*
X118762000Y-44495345D01*
X106549207Y-44495345D01*
X107253409Y-43791143D01*
X143958500Y-43791143D01*
X143958500Y-43940457D01*
X143987629Y-44086901D01*
X144044769Y-44224848D01*
X144127723Y-44348997D01*
X144233303Y-44454577D01*
X144357452Y-44537531D01*
X144495399Y-44594671D01*
X144641843Y-44623800D01*
X144791157Y-44623800D01*
X144937601Y-44594671D01*
X145075548Y-44537531D01*
X145199697Y-44454577D01*
X145305277Y-44348997D01*
X145388231Y-44224848D01*
X145445371Y-44086901D01*
X145474500Y-43940457D01*
X145474500Y-43791143D01*
X145445371Y-43644699D01*
X145388231Y-43506752D01*
X145305277Y-43382603D01*
X145199697Y-43277023D01*
X145075548Y-43194069D01*
X144937601Y-43136929D01*
X144791157Y-43107800D01*
X144641843Y-43107800D01*
X144495399Y-43136929D01*
X144357452Y-43194069D01*
X144233303Y-43277023D01*
X144127723Y-43382603D01*
X144044769Y-43506752D01*
X143987629Y-43644699D01*
X143958500Y-43791143D01*
X107253409Y-43791143D01*
X107333552Y-43711000D01*
X109695681Y-43711000D01*
X109728000Y-43714183D01*
X109856990Y-43701479D01*
X109894863Y-43689990D01*
X109981024Y-43663853D01*
X110095334Y-43602754D01*
X110195527Y-43520527D01*
X110216132Y-43495420D01*
X112456427Y-41255126D01*
X112481527Y-41234527D01*
X112563754Y-41134334D01*
X112624853Y-41020024D01*
X112662479Y-40895990D01*
X112672000Y-40799319D01*
X112672000Y-40799309D01*
X112675182Y-40767001D01*
X112672000Y-40734692D01*
X112672000Y-40692339D01*
X113592796Y-40692339D01*
X113592796Y-40841653D01*
X113621925Y-40988097D01*
X113679065Y-41126044D01*
X113762019Y-41250193D01*
X113867599Y-41355773D01*
X113936779Y-41401998D01*
X113867599Y-41448223D01*
X113762019Y-41553803D01*
X113679065Y-41677952D01*
X113621925Y-41815899D01*
X113592796Y-41962343D01*
X113592796Y-42111657D01*
X113621925Y-42258101D01*
X113679065Y-42396048D01*
X113762019Y-42520197D01*
X113867599Y-42625777D01*
X113991748Y-42708731D01*
X114129695Y-42765871D01*
X114276139Y-42795000D01*
X114425453Y-42795000D01*
X114571897Y-42765871D01*
X114709844Y-42708731D01*
X114833993Y-42625777D01*
X114939573Y-42520197D01*
X115022527Y-42396048D01*
X115065400Y-42292542D01*
X120247600Y-42292542D01*
X120247600Y-42441856D01*
X120276729Y-42588300D01*
X120333869Y-42726247D01*
X120416823Y-42850396D01*
X120522403Y-42955976D01*
X120646552Y-43038930D01*
X120784499Y-43096070D01*
X120930943Y-43125199D01*
X121080257Y-43125199D01*
X121226701Y-43096070D01*
X121364648Y-43038930D01*
X121488797Y-42955976D01*
X121594377Y-42850396D01*
X121677331Y-42726247D01*
X121734471Y-42588300D01*
X121763600Y-42441856D01*
X121763600Y-42292542D01*
X121734471Y-42146098D01*
X121677331Y-42008151D01*
X121594377Y-41884002D01*
X121488797Y-41778422D01*
X121364648Y-41695468D01*
X121226701Y-41638328D01*
X121080257Y-41609199D01*
X120930943Y-41609199D01*
X120784499Y-41638328D01*
X120646552Y-41695468D01*
X120522403Y-41778422D01*
X120416823Y-41884002D01*
X120333869Y-42008151D01*
X120276729Y-42146098D01*
X120247600Y-42292542D01*
X115065400Y-42292542D01*
X115079667Y-42258101D01*
X115108796Y-42111657D01*
X115108796Y-41962343D01*
X115079667Y-41815899D01*
X115022527Y-41677952D01*
X114939573Y-41553803D01*
X114833993Y-41448223D01*
X114764813Y-41401998D01*
X114833993Y-41355773D01*
X114939573Y-41250193D01*
X115022527Y-41126044D01*
X115079667Y-40988097D01*
X115108796Y-40841653D01*
X115108796Y-40692339D01*
X115079667Y-40545895D01*
X115022527Y-40407948D01*
X114939573Y-40283799D01*
X114833993Y-40178219D01*
X114709844Y-40095265D01*
X114675886Y-40081199D01*
X114709848Y-40067131D01*
X114833997Y-39984177D01*
X114939577Y-39878597D01*
X115022531Y-39754448D01*
X115044362Y-39701743D01*
X131118798Y-39701743D01*
X131118798Y-39851057D01*
X131147927Y-39997501D01*
X131205067Y-40135448D01*
X131270651Y-40233601D01*
X131205069Y-40331752D01*
X131147929Y-40469699D01*
X131118800Y-40616143D01*
X131118800Y-40765457D01*
X131147929Y-40911901D01*
X131205069Y-41049848D01*
X131288023Y-41173997D01*
X131393603Y-41279577D01*
X131517752Y-41362531D01*
X131655699Y-41419671D01*
X131802143Y-41448800D01*
X131951457Y-41448800D01*
X132097901Y-41419671D01*
X132235848Y-41362531D01*
X132359997Y-41279577D01*
X132465577Y-41173997D01*
X132548531Y-41049848D01*
X132605671Y-40911901D01*
X132634800Y-40765457D01*
X132634800Y-40616143D01*
X132605671Y-40469699D01*
X132548531Y-40331752D01*
X132482947Y-40233599D01*
X132548529Y-40135448D01*
X132605669Y-39997501D01*
X132634798Y-39851057D01*
X132634798Y-39701743D01*
X132605669Y-39555299D01*
X132548529Y-39417352D01*
X132465575Y-39293203D01*
X132359995Y-39187623D01*
X132235846Y-39104669D01*
X132097899Y-39047529D01*
X131951455Y-39018400D01*
X131802141Y-39018400D01*
X131655697Y-39047529D01*
X131517750Y-39104669D01*
X131393601Y-39187623D01*
X131288021Y-39293203D01*
X131205067Y-39417352D01*
X131147927Y-39555299D01*
X131118798Y-39701743D01*
X115044362Y-39701743D01*
X115079671Y-39616501D01*
X115108800Y-39470057D01*
X115108800Y-39320743D01*
X115079671Y-39174299D01*
X115022531Y-39036352D01*
X114939577Y-38912203D01*
X114833997Y-38806623D01*
X114709848Y-38723669D01*
X114571901Y-38666529D01*
X114425457Y-38637400D01*
X114276143Y-38637400D01*
X114129699Y-38666529D01*
X113991752Y-38723669D01*
X113867603Y-38806623D01*
X113762023Y-38912203D01*
X113679069Y-39036352D01*
X113621929Y-39174299D01*
X113592800Y-39320743D01*
X113592800Y-39470057D01*
X113621929Y-39616501D01*
X113679069Y-39754448D01*
X113762023Y-39878597D01*
X113867603Y-39984177D01*
X113991752Y-40067131D01*
X114025710Y-40081197D01*
X113991748Y-40095265D01*
X113867599Y-40178219D01*
X113762019Y-40283799D01*
X113679065Y-40407948D01*
X113621925Y-40545895D01*
X113592796Y-40692339D01*
X112672000Y-40692339D01*
X112672000Y-38569596D01*
X112730041Y-38482732D01*
X112790949Y-38335685D01*
X112822000Y-38179581D01*
X112822000Y-38101543D01*
X117961600Y-38101543D01*
X117961600Y-38250857D01*
X117990729Y-38397301D01*
X118047869Y-38535248D01*
X118130823Y-38659397D01*
X118236403Y-38764977D01*
X118360552Y-38847931D01*
X118498499Y-38905071D01*
X118644943Y-38934200D01*
X118794257Y-38934200D01*
X118940701Y-38905071D01*
X119078648Y-38847931D01*
X119202797Y-38764977D01*
X119303800Y-38663974D01*
X119404803Y-38764977D01*
X119528952Y-38847931D01*
X119666899Y-38905071D01*
X119813343Y-38934200D01*
X119962657Y-38934200D01*
X120109101Y-38905071D01*
X120247048Y-38847931D01*
X120371197Y-38764977D01*
X120459501Y-38676673D01*
X120522405Y-38739577D01*
X120646554Y-38822531D01*
X120784501Y-38879671D01*
X120930945Y-38908800D01*
X121080259Y-38908800D01*
X121226703Y-38879671D01*
X121364650Y-38822531D01*
X121488799Y-38739577D01*
X121577882Y-38650494D01*
X134879600Y-38650494D01*
X134879600Y-38819506D01*
X134912573Y-38985269D01*
X134977251Y-39141415D01*
X135071148Y-39281943D01*
X135190657Y-39401452D01*
X135331185Y-39495349D01*
X135487331Y-39560027D01*
X135653094Y-39593000D01*
X135822106Y-39593000D01*
X135987869Y-39560027D01*
X136144015Y-39495349D01*
X136284543Y-39401452D01*
X136404052Y-39281943D01*
X136497949Y-39141415D01*
X136562627Y-38985269D01*
X136595600Y-38819506D01*
X136595600Y-38650494D01*
X136562627Y-38484731D01*
X136497949Y-38328585D01*
X136404052Y-38188057D01*
X136284543Y-38068548D01*
X136144015Y-37974651D01*
X135987869Y-37909973D01*
X135822106Y-37877000D01*
X135653094Y-37877000D01*
X135487331Y-37909973D01*
X135331185Y-37974651D01*
X135190657Y-38068548D01*
X135071148Y-38188057D01*
X134977251Y-38328585D01*
X134912573Y-38484731D01*
X134879600Y-38650494D01*
X121577882Y-38650494D01*
X121594379Y-38633997D01*
X121677333Y-38509848D01*
X121734473Y-38371901D01*
X121763602Y-38225457D01*
X121763602Y-38076143D01*
X121734473Y-37929699D01*
X121677333Y-37791752D01*
X121594379Y-37667603D01*
X121488799Y-37562023D01*
X121364650Y-37479069D01*
X121226703Y-37421929D01*
X121080259Y-37392800D01*
X120930945Y-37392800D01*
X120784501Y-37421929D01*
X120646554Y-37479069D01*
X120522405Y-37562023D01*
X120434101Y-37650327D01*
X120371197Y-37587423D01*
X120247048Y-37504469D01*
X120109101Y-37447329D01*
X119962657Y-37418200D01*
X119813343Y-37418200D01*
X119666899Y-37447329D01*
X119528952Y-37504469D01*
X119404803Y-37587423D01*
X119303800Y-37688426D01*
X119202797Y-37587423D01*
X119078648Y-37504469D01*
X118940701Y-37447329D01*
X118794257Y-37418200D01*
X118644943Y-37418200D01*
X118498499Y-37447329D01*
X118360552Y-37504469D01*
X118236403Y-37587423D01*
X118130823Y-37693003D01*
X118047869Y-37817152D01*
X117990729Y-37955099D01*
X117961600Y-38101543D01*
X112822000Y-38101543D01*
X112822000Y-38020419D01*
X112790949Y-37864315D01*
X112730041Y-37717268D01*
X112641615Y-37584930D01*
X112529070Y-37472385D01*
X112396732Y-37383959D01*
X112249685Y-37323051D01*
X112093581Y-37292000D01*
X111934419Y-37292000D01*
X111778315Y-37323051D01*
X111631268Y-37383959D01*
X111498930Y-37472385D01*
X111386385Y-37584930D01*
X111297959Y-37717268D01*
X111237051Y-37864315D01*
X111206000Y-38020419D01*
X111206000Y-38179581D01*
X111237051Y-38335685D01*
X111297959Y-38482732D01*
X111356001Y-38569597D01*
X111356000Y-40494447D01*
X109455448Y-42395000D01*
X107093308Y-42395000D01*
X107060999Y-42391818D01*
X107028691Y-42395000D01*
X107028681Y-42395000D01*
X106932010Y-42404521D01*
X106807976Y-42442147D01*
X106693666Y-42503246D01*
X106593473Y-42585473D01*
X106572868Y-42610580D01*
X104521000Y-44662448D01*
X102977132Y-43118580D01*
X102956527Y-43093473D01*
X102856334Y-43011246D01*
X102742024Y-42950147D01*
X102617990Y-42912521D01*
X102521319Y-42903000D01*
X102489000Y-42899817D01*
X102456681Y-42903000D01*
X99840553Y-42903000D01*
X97858911Y-40921359D01*
X97883871Y-40861101D01*
X97913000Y-40714657D01*
X97913000Y-40565343D01*
X97912021Y-40560419D01*
X108666000Y-40560419D01*
X108666000Y-40719581D01*
X108697051Y-40875685D01*
X108757959Y-41022732D01*
X108846385Y-41155070D01*
X108958930Y-41267615D01*
X109091268Y-41356041D01*
X109238315Y-41416949D01*
X109394419Y-41448000D01*
X109553581Y-41448000D01*
X109709685Y-41416949D01*
X109856732Y-41356041D01*
X109989070Y-41267615D01*
X110101615Y-41155070D01*
X110190041Y-41022732D01*
X110250949Y-40875685D01*
X110282000Y-40719581D01*
X110282000Y-40560419D01*
X110250949Y-40404315D01*
X110190041Y-40257268D01*
X110101615Y-40124930D01*
X109989070Y-40012385D01*
X109856732Y-39923959D01*
X109709685Y-39863051D01*
X109553581Y-39832000D01*
X109394419Y-39832000D01*
X109238315Y-39863051D01*
X109091268Y-39923959D01*
X108958930Y-40012385D01*
X108846385Y-40124930D01*
X108757959Y-40257268D01*
X108697051Y-40404315D01*
X108666000Y-40560419D01*
X97912021Y-40560419D01*
X97883871Y-40418899D01*
X97826731Y-40280952D01*
X97743777Y-40156803D01*
X97638197Y-40051223D01*
X97514048Y-39968269D01*
X97376101Y-39911129D01*
X97229657Y-39882000D01*
X97080343Y-39882000D01*
X96933899Y-39911129D01*
X96795952Y-39968269D01*
X96671803Y-40051223D01*
X96566223Y-40156803D01*
X96483269Y-40280952D01*
X96426129Y-40418899D01*
X96397000Y-40565343D01*
X88388000Y-40565343D01*
X88388000Y-40560419D01*
X88356949Y-40404315D01*
X88296041Y-40257268D01*
X88207615Y-40124930D01*
X88095070Y-40012385D01*
X87962732Y-39923959D01*
X87815685Y-39863051D01*
X87659581Y-39832000D01*
X87500419Y-39832000D01*
X87344315Y-39863051D01*
X87197268Y-39923959D01*
X87064930Y-40012385D01*
X86952385Y-40124930D01*
X86863959Y-40257268D01*
X86803051Y-40404315D01*
X86772000Y-40560419D01*
X85828000Y-40560419D01*
X85796949Y-40404315D01*
X85736041Y-40257268D01*
X85647615Y-40124930D01*
X85535070Y-40012385D01*
X85402732Y-39923959D01*
X85255685Y-39863051D01*
X85099581Y-39832000D01*
X84940419Y-39832000D01*
X84784315Y-39863051D01*
X84637268Y-39923959D01*
X84504930Y-40012385D01*
X84392385Y-40124930D01*
X84303959Y-40257268D01*
X84243051Y-40404315D01*
X84212000Y-40560419D01*
X54033000Y-40560419D01*
X54033000Y-37321919D01*
X55389500Y-37321919D01*
X55389500Y-37481081D01*
X55420551Y-37637185D01*
X55481459Y-37784232D01*
X55569885Y-37916570D01*
X55682430Y-38029115D01*
X55814768Y-38117541D01*
X55961815Y-38178449D01*
X56117919Y-38209500D01*
X56277081Y-38209500D01*
X56433185Y-38178449D01*
X56580232Y-38117541D01*
X56712570Y-38029115D01*
X56825115Y-37916570D01*
X56913541Y-37784232D01*
X56974449Y-37637185D01*
X57005500Y-37481081D01*
X57005500Y-37321919D01*
X56997922Y-37283819D01*
X97842000Y-37283819D01*
X97842000Y-37442981D01*
X97873051Y-37599085D01*
X97933959Y-37746132D01*
X98022385Y-37878470D01*
X98134930Y-37991015D01*
X98267268Y-38079441D01*
X98414315Y-38140349D01*
X98570419Y-38171400D01*
X98729581Y-38171400D01*
X98885685Y-38140349D01*
X99032732Y-38079441D01*
X99165070Y-37991015D01*
X99277615Y-37878470D01*
X99366041Y-37746132D01*
X99376774Y-37720219D01*
X109220200Y-37720219D01*
X109220200Y-37879381D01*
X109251251Y-38035485D01*
X109312159Y-38182532D01*
X109400585Y-38314870D01*
X109513130Y-38427415D01*
X109645468Y-38515841D01*
X109792515Y-38576749D01*
X109948619Y-38607800D01*
X110107781Y-38607800D01*
X110263885Y-38576749D01*
X110410932Y-38515841D01*
X110543270Y-38427415D01*
X110655815Y-38314870D01*
X110744241Y-38182532D01*
X110805149Y-38035485D01*
X110836200Y-37879381D01*
X110836200Y-37720219D01*
X110805149Y-37564115D01*
X110744241Y-37417068D01*
X110655815Y-37284730D01*
X110543270Y-37172185D01*
X110410932Y-37083759D01*
X110263885Y-37022851D01*
X110107781Y-36991800D01*
X109948619Y-36991800D01*
X109792515Y-37022851D01*
X109645468Y-37083759D01*
X109513130Y-37172185D01*
X109400585Y-37284730D01*
X109312159Y-37417068D01*
X109251251Y-37564115D01*
X109220200Y-37720219D01*
X99376774Y-37720219D01*
X99426949Y-37599085D01*
X99458000Y-37442981D01*
X99458000Y-37283819D01*
X99426949Y-37127715D01*
X99366041Y-36980668D01*
X99277615Y-36848330D01*
X99165070Y-36735785D01*
X99032732Y-36647359D01*
X98885685Y-36586451D01*
X98729581Y-36555400D01*
X98570419Y-36555400D01*
X98414315Y-36586451D01*
X98267268Y-36647359D01*
X98134930Y-36735785D01*
X98022385Y-36848330D01*
X97933959Y-36980668D01*
X97873051Y-37127715D01*
X97842000Y-37283819D01*
X56997922Y-37283819D01*
X56974449Y-37165815D01*
X56913541Y-37018768D01*
X56825115Y-36886430D01*
X56712570Y-36773885D01*
X56580232Y-36685459D01*
X56433185Y-36624551D01*
X56277081Y-36593500D01*
X56117919Y-36593500D01*
X55961815Y-36624551D01*
X55814768Y-36685459D01*
X55682430Y-36773885D01*
X55569885Y-36886430D01*
X55481459Y-37018768D01*
X55420551Y-37165815D01*
X55389500Y-37321919D01*
X54033000Y-37321919D01*
X54033000Y-35294851D01*
X55757000Y-35294851D01*
X55757000Y-35444165D01*
X55786129Y-35590609D01*
X55843269Y-35728556D01*
X55926223Y-35852705D01*
X56031803Y-35958285D01*
X56155952Y-36041239D01*
X56293899Y-36098379D01*
X56440343Y-36127508D01*
X56589657Y-36127508D01*
X56736101Y-36098379D01*
X56874048Y-36041239D01*
X56998197Y-35958285D01*
X57007504Y-35948978D01*
X57016803Y-35958277D01*
X57140952Y-36041231D01*
X57278899Y-36098371D01*
X57425343Y-36127500D01*
X57574657Y-36127500D01*
X57721101Y-36098371D01*
X57859048Y-36041231D01*
X57983197Y-35958277D01*
X57991746Y-35949728D01*
X58000303Y-35958285D01*
X58124452Y-36041239D01*
X58262399Y-36098379D01*
X58408843Y-36127508D01*
X58558157Y-36127508D01*
X58704601Y-36098379D01*
X58842548Y-36041239D01*
X58966697Y-35958285D01*
X59072277Y-35852705D01*
X59155231Y-35728556D01*
X59212371Y-35590609D01*
X59241500Y-35444165D01*
X59241500Y-35294851D01*
X59212371Y-35148407D01*
X59204641Y-35129743D01*
X79962000Y-35129743D01*
X79962000Y-35279057D01*
X79991129Y-35425501D01*
X80048269Y-35563448D01*
X80131223Y-35687597D01*
X80168726Y-35725100D01*
X80131223Y-35762603D01*
X80048269Y-35886752D01*
X79991129Y-36024699D01*
X79962000Y-36171143D01*
X79962000Y-36320457D01*
X79991129Y-36466901D01*
X80048269Y-36604848D01*
X80131223Y-36728997D01*
X80236803Y-36834577D01*
X80360952Y-36917531D01*
X80498899Y-36974671D01*
X80645343Y-37003800D01*
X80794657Y-37003800D01*
X80941101Y-36974671D01*
X81079048Y-36917531D01*
X81203197Y-36834577D01*
X81308777Y-36728997D01*
X81391731Y-36604848D01*
X81448871Y-36466901D01*
X81478000Y-36320457D01*
X81478000Y-36171143D01*
X81448871Y-36024699D01*
X81391731Y-35886752D01*
X81308777Y-35762603D01*
X81271274Y-35725100D01*
X81308777Y-35687597D01*
X81342089Y-35637741D01*
X83329602Y-35637741D01*
X83329602Y-35787055D01*
X83358731Y-35933499D01*
X83415871Y-36071446D01*
X83498825Y-36195595D01*
X83604405Y-36301175D01*
X83728554Y-36384129D01*
X83866501Y-36441269D01*
X84012945Y-36470398D01*
X84162259Y-36470398D01*
X84308703Y-36441269D01*
X84446650Y-36384129D01*
X84570799Y-36301175D01*
X84676379Y-36195595D01*
X84759333Y-36071446D01*
X84816473Y-35933499D01*
X84845602Y-35787055D01*
X84845602Y-35637741D01*
X84816473Y-35491297D01*
X84759333Y-35353350D01*
X84676379Y-35229201D01*
X84570799Y-35123621D01*
X84446650Y-35040667D01*
X84308703Y-34983527D01*
X84162259Y-34954398D01*
X84012945Y-34954398D01*
X83866501Y-34983527D01*
X83728554Y-35040667D01*
X83604405Y-35123621D01*
X83498825Y-35229201D01*
X83415871Y-35353350D01*
X83358731Y-35491297D01*
X83329602Y-35637741D01*
X81342089Y-35637741D01*
X81391731Y-35563448D01*
X81448871Y-35425501D01*
X81478000Y-35279057D01*
X81478000Y-35129743D01*
X81448871Y-34983299D01*
X81391731Y-34845352D01*
X81308777Y-34721203D01*
X81203197Y-34615623D01*
X81079048Y-34532669D01*
X80941101Y-34475529D01*
X80794657Y-34446400D01*
X80645343Y-34446400D01*
X80498899Y-34475529D01*
X80360952Y-34532669D01*
X80236803Y-34615623D01*
X80131223Y-34721203D01*
X80048269Y-34845352D01*
X79991129Y-34983299D01*
X79962000Y-35129743D01*
X59204641Y-35129743D01*
X59155231Y-35010460D01*
X59072277Y-34886311D01*
X58966697Y-34780731D01*
X58842548Y-34697777D01*
X58704601Y-34640637D01*
X58558157Y-34611508D01*
X58408843Y-34611508D01*
X58262399Y-34640637D01*
X58124452Y-34697777D01*
X58000303Y-34780731D01*
X57991754Y-34789280D01*
X57983197Y-34780723D01*
X57859048Y-34697769D01*
X57721101Y-34640629D01*
X57574657Y-34611500D01*
X57425343Y-34611500D01*
X57278899Y-34640629D01*
X57140952Y-34697769D01*
X57016803Y-34780723D01*
X57007496Y-34790030D01*
X56998197Y-34780731D01*
X56874048Y-34697777D01*
X56736101Y-34640637D01*
X56589657Y-34611508D01*
X56440343Y-34611508D01*
X56293899Y-34640637D01*
X56155952Y-34697777D01*
X56031803Y-34780731D01*
X55926223Y-34886311D01*
X55843269Y-35010460D01*
X55786129Y-35148407D01*
X55757000Y-35294851D01*
X54033000Y-35294851D01*
X54033000Y-34127843D01*
X58956000Y-34127843D01*
X58956000Y-34277157D01*
X58985129Y-34423601D01*
X59042269Y-34561548D01*
X59125223Y-34685697D01*
X59230803Y-34791277D01*
X59354952Y-34874231D01*
X59492899Y-34931371D01*
X59639343Y-34960500D01*
X59788657Y-34960500D01*
X59935101Y-34931371D01*
X60073048Y-34874231D01*
X60197197Y-34791277D01*
X60302777Y-34685697D01*
X60385731Y-34561548D01*
X60442871Y-34423601D01*
X60472000Y-34277157D01*
X60472000Y-34127843D01*
X60442871Y-33981399D01*
X60385731Y-33843452D01*
X60302777Y-33719303D01*
X60197197Y-33613723D01*
X60073048Y-33530769D01*
X59935101Y-33473629D01*
X59788657Y-33444500D01*
X59639343Y-33444500D01*
X59492899Y-33473629D01*
X59354952Y-33530769D01*
X59230803Y-33613723D01*
X59125223Y-33719303D01*
X59042269Y-33843452D01*
X58985129Y-33981399D01*
X58956000Y-34127843D01*
X54033000Y-34127843D01*
X54033000Y-31264270D01*
X54052357Y-31127843D01*
X55415500Y-31127843D01*
X55415500Y-31277157D01*
X55444629Y-31423601D01*
X55501769Y-31561548D01*
X55584723Y-31685697D01*
X55690303Y-31791277D01*
X55814452Y-31874231D01*
X55952399Y-31931371D01*
X56098843Y-31960500D01*
X56248157Y-31960500D01*
X56394601Y-31931371D01*
X56532548Y-31874231D01*
X56656697Y-31791277D01*
X56762277Y-31685697D01*
X56845231Y-31561548D01*
X56902371Y-31423601D01*
X56931500Y-31277157D01*
X56931500Y-31127843D01*
X56902371Y-30981399D01*
X56845231Y-30843452D01*
X56762277Y-30719303D01*
X56656697Y-30613723D01*
X56532548Y-30530769D01*
X56394601Y-30473629D01*
X56248157Y-30444500D01*
X56098843Y-30444500D01*
X55952399Y-30473629D01*
X55814452Y-30530769D01*
X55690303Y-30613723D01*
X55584723Y-30719303D01*
X55501769Y-30843452D01*
X55444629Y-30981399D01*
X55415500Y-31127843D01*
X54052357Y-31127843D01*
X54078147Y-30946083D01*
X54180285Y-30654026D01*
X54337210Y-30387364D01*
X54542938Y-30156262D01*
X54789631Y-29969525D01*
X55067908Y-29834255D01*
X55371858Y-29754378D01*
X55639774Y-29733000D01*
X59620316Y-29733000D01*
X59478899Y-29761129D01*
X59340952Y-29818269D01*
X59216803Y-29901223D01*
X59111223Y-30006803D01*
X59028269Y-30130952D01*
X58971129Y-30268899D01*
X58942000Y-30415343D01*
X58942000Y-30564657D01*
X58971129Y-30711101D01*
X59028269Y-30849048D01*
X59111223Y-30973197D01*
X59216803Y-31078777D01*
X59340952Y-31161731D01*
X59478899Y-31218871D01*
X59625343Y-31248000D01*
X59774657Y-31248000D01*
X59921101Y-31218871D01*
X60059048Y-31161731D01*
X60183197Y-31078777D01*
X60288777Y-30973197D01*
X60371731Y-30849048D01*
X60428871Y-30711101D01*
X60458000Y-30564657D01*
X60458000Y-30415343D01*
X60428871Y-30268899D01*
X60371731Y-30130952D01*
X60288777Y-30006803D01*
X60183197Y-29901223D01*
X60059048Y-29818269D01*
X59921101Y-29761129D01*
X59779684Y-29733000D01*
X85945862Y-29733000D01*
X85862228Y-29788883D01*
X85749683Y-29901428D01*
X85661257Y-30033766D01*
X85600349Y-30180813D01*
X85569298Y-30336917D01*
X85569298Y-30496079D01*
X85600349Y-30652183D01*
X85661257Y-30799230D01*
X85749683Y-30931568D01*
X85862228Y-31044113D01*
X85994566Y-31132539D01*
X86141613Y-31193447D01*
X86297717Y-31224498D01*
X86456879Y-31224498D01*
X86612983Y-31193447D01*
X86757332Y-31133657D01*
X86901680Y-31193447D01*
X87057784Y-31224498D01*
X87216946Y-31224498D01*
X87373050Y-31193447D01*
X87517399Y-31133657D01*
X87661747Y-31193447D01*
X87817851Y-31224498D01*
X87977013Y-31224498D01*
X88133117Y-31193447D01*
X88277466Y-31133657D01*
X88421815Y-31193447D01*
X88577919Y-31224498D01*
X88737081Y-31224498D01*
X88883271Y-31195419D01*
X97842000Y-31195419D01*
X97842000Y-31354581D01*
X97873051Y-31510685D01*
X97933959Y-31657732D01*
X98022385Y-31790070D01*
X98134930Y-31902615D01*
X98267268Y-31991041D01*
X98414315Y-32051949D01*
X98570419Y-32083000D01*
X98729581Y-32083000D01*
X98885685Y-32051949D01*
X99032732Y-31991041D01*
X99165070Y-31902615D01*
X99277615Y-31790070D01*
X99366041Y-31657732D01*
X99388076Y-31604534D01*
X119304320Y-31604534D01*
X119304320Y-31773546D01*
X119337293Y-31939309D01*
X119401971Y-32095455D01*
X119495868Y-32235983D01*
X119615377Y-32355492D01*
X119755905Y-32449389D01*
X119912051Y-32514067D01*
X120077814Y-32547040D01*
X120246826Y-32547040D01*
X120412589Y-32514067D01*
X120568735Y-32449389D01*
X120709263Y-32355492D01*
X120828772Y-32235983D01*
X120922669Y-32095455D01*
X120987347Y-31939309D01*
X121020320Y-31773546D01*
X121020320Y-31604534D01*
X122936520Y-31604534D01*
X122936520Y-31773546D01*
X122969493Y-31939309D01*
X123034171Y-32095455D01*
X123128068Y-32235983D01*
X123247577Y-32355492D01*
X123388105Y-32449389D01*
X123544251Y-32514067D01*
X123710014Y-32547040D01*
X123879026Y-32547040D01*
X124044789Y-32514067D01*
X124200935Y-32449389D01*
X124341463Y-32355492D01*
X124386608Y-32310347D01*
X128934400Y-32310347D01*
X128934400Y-32459661D01*
X128963529Y-32606105D01*
X129020669Y-32744052D01*
X129103623Y-32868201D01*
X129209203Y-32973781D01*
X129333352Y-33056735D01*
X129471299Y-33113875D01*
X129617743Y-33143004D01*
X129706011Y-33143004D01*
X129725523Y-33241101D01*
X129782663Y-33379048D01*
X129865617Y-33503197D01*
X129971197Y-33608777D01*
X130095346Y-33691731D01*
X130233293Y-33748871D01*
X130379737Y-33778000D01*
X130523868Y-33778000D01*
X130538329Y-33850701D01*
X130595469Y-33988648D01*
X130678423Y-34112797D01*
X130784003Y-34218377D01*
X130908152Y-34301331D01*
X131046099Y-34358471D01*
X131192543Y-34387600D01*
X131220402Y-34387600D01*
X131220402Y-34390059D01*
X131249531Y-34536503D01*
X131306671Y-34674450D01*
X131389625Y-34798599D01*
X131439828Y-34848802D01*
X131389625Y-34899004D01*
X131306671Y-35023153D01*
X131249531Y-35161100D01*
X131220402Y-35307544D01*
X131220402Y-35456858D01*
X131249531Y-35603302D01*
X131306671Y-35741249D01*
X131389625Y-35865398D01*
X131439828Y-35915601D01*
X131389625Y-35965803D01*
X131306671Y-36089952D01*
X131249531Y-36227899D01*
X131220402Y-36374343D01*
X131220402Y-36523657D01*
X131249531Y-36670101D01*
X131306671Y-36808048D01*
X131389625Y-36932197D01*
X131495205Y-37037777D01*
X131619354Y-37120731D01*
X131757301Y-37177871D01*
X131903745Y-37207000D01*
X132053059Y-37207000D01*
X132199503Y-37177871D01*
X132337450Y-37120731D01*
X132461599Y-37037777D01*
X132567179Y-36932197D01*
X132600490Y-36882343D01*
X139196000Y-36882343D01*
X139196000Y-37031657D01*
X139225129Y-37178101D01*
X139282269Y-37316048D01*
X139365223Y-37440197D01*
X139470803Y-37545777D01*
X139594952Y-37628731D01*
X139732899Y-37685871D01*
X139879343Y-37715000D01*
X140028657Y-37715000D01*
X140175101Y-37685871D01*
X140313048Y-37628731D01*
X140437197Y-37545777D01*
X140542777Y-37440197D01*
X140625731Y-37316048D01*
X140682871Y-37178101D01*
X140712000Y-37031657D01*
X140712000Y-36882343D01*
X140682871Y-36735899D01*
X140625731Y-36597952D01*
X140542777Y-36473803D01*
X140437197Y-36368223D01*
X140313048Y-36285269D01*
X140175101Y-36228129D01*
X140028657Y-36199000D01*
X139879343Y-36199000D01*
X139732899Y-36228129D01*
X139594952Y-36285269D01*
X139470803Y-36368223D01*
X139365223Y-36473803D01*
X139282269Y-36597952D01*
X139225129Y-36735899D01*
X139196000Y-36882343D01*
X132600490Y-36882343D01*
X132650133Y-36808048D01*
X132707273Y-36670101D01*
X132736402Y-36523657D01*
X132736402Y-36374343D01*
X132707273Y-36227899D01*
X132650133Y-36089952D01*
X132567179Y-35965803D01*
X132516977Y-35915601D01*
X132525283Y-35907294D01*
X134879600Y-35907294D01*
X134879600Y-36076306D01*
X134912573Y-36242069D01*
X134977251Y-36398215D01*
X135071148Y-36538743D01*
X135190657Y-36658252D01*
X135331185Y-36752149D01*
X135487331Y-36816827D01*
X135653094Y-36849800D01*
X135822106Y-36849800D01*
X135987869Y-36816827D01*
X136144015Y-36752149D01*
X136284543Y-36658252D01*
X136404052Y-36538743D01*
X136497949Y-36398215D01*
X136562627Y-36242069D01*
X136595600Y-36076306D01*
X136595600Y-35907294D01*
X136562627Y-35741531D01*
X136558617Y-35731850D01*
X148398507Y-35731850D01*
X148398507Y-35881164D01*
X148427636Y-36027608D01*
X148484776Y-36165555D01*
X148567730Y-36289704D01*
X148673310Y-36395284D01*
X148797459Y-36478238D01*
X148935406Y-36535378D01*
X149081850Y-36564507D01*
X149231164Y-36564507D01*
X149377608Y-36535378D01*
X149401834Y-36525343D01*
X150702000Y-36525343D01*
X150702000Y-36674657D01*
X150731129Y-36821101D01*
X150788269Y-36959048D01*
X150871223Y-37083197D01*
X150976803Y-37188777D01*
X151100952Y-37271731D01*
X151238899Y-37328871D01*
X151385343Y-37358000D01*
X151534657Y-37358000D01*
X151681101Y-37328871D01*
X151819048Y-37271731D01*
X151943197Y-37188777D01*
X152048777Y-37083197D01*
X152131731Y-36959048D01*
X152188871Y-36821101D01*
X152218000Y-36674657D01*
X152218000Y-36525343D01*
X152188871Y-36378899D01*
X152131731Y-36240952D01*
X152048777Y-36116803D01*
X151943197Y-36011223D01*
X151819048Y-35928269D01*
X151681101Y-35871129D01*
X151534657Y-35842000D01*
X151385343Y-35842000D01*
X151238899Y-35871129D01*
X151100952Y-35928269D01*
X150976803Y-36011223D01*
X150871223Y-36116803D01*
X150788269Y-36240952D01*
X150731129Y-36378899D01*
X150702000Y-36525343D01*
X149401834Y-36525343D01*
X149515555Y-36478238D01*
X149639704Y-36395284D01*
X149745284Y-36289704D01*
X149828238Y-36165555D01*
X149885378Y-36027608D01*
X149914507Y-35881164D01*
X149914507Y-35731850D01*
X149885378Y-35585406D01*
X149828238Y-35447459D01*
X149745284Y-35323310D01*
X149639704Y-35217730D01*
X149515555Y-35134776D01*
X149377608Y-35077636D01*
X149231164Y-35048507D01*
X149081850Y-35048507D01*
X148935406Y-35077636D01*
X148797459Y-35134776D01*
X148673310Y-35217730D01*
X148567730Y-35323310D01*
X148484776Y-35447459D01*
X148427636Y-35585406D01*
X148398507Y-35731850D01*
X136558617Y-35731850D01*
X136497949Y-35585385D01*
X136404052Y-35444857D01*
X136284543Y-35325348D01*
X136144015Y-35231451D01*
X135987869Y-35166773D01*
X135822106Y-35133800D01*
X135653094Y-35133800D01*
X135487331Y-35166773D01*
X135331185Y-35231451D01*
X135190657Y-35325348D01*
X135071148Y-35444857D01*
X134977251Y-35585385D01*
X134912573Y-35741531D01*
X134879600Y-35907294D01*
X132525283Y-35907294D01*
X132567179Y-35865398D01*
X132650133Y-35741249D01*
X132707273Y-35603302D01*
X132736402Y-35456858D01*
X132736402Y-35307544D01*
X132707273Y-35161100D01*
X132650133Y-35023153D01*
X132567179Y-34899004D01*
X132516977Y-34848802D01*
X132567179Y-34798599D01*
X132650133Y-34674450D01*
X132707273Y-34536503D01*
X132736402Y-34390059D01*
X132736402Y-34240745D01*
X132707273Y-34094301D01*
X132650133Y-33956354D01*
X132567179Y-33832205D01*
X132547317Y-33812343D01*
X140041000Y-33812343D01*
X140041000Y-33961657D01*
X140070129Y-34108101D01*
X140127269Y-34246048D01*
X140210223Y-34370197D01*
X140315803Y-34475777D01*
X140439952Y-34558731D01*
X140577899Y-34615871D01*
X140724343Y-34645000D01*
X140873657Y-34645000D01*
X141020101Y-34615871D01*
X141158048Y-34558731D01*
X141282197Y-34475777D01*
X141387777Y-34370197D01*
X141470731Y-34246048D01*
X141527871Y-34108101D01*
X141557000Y-33961657D01*
X141557000Y-33812343D01*
X141527871Y-33665899D01*
X141470731Y-33527952D01*
X141387777Y-33403803D01*
X141282197Y-33298223D01*
X141158048Y-33215269D01*
X141020101Y-33158129D01*
X140873657Y-33129000D01*
X140724343Y-33129000D01*
X140577899Y-33158129D01*
X140439952Y-33215269D01*
X140315803Y-33298223D01*
X140210223Y-33403803D01*
X140127269Y-33527952D01*
X140070129Y-33665899D01*
X140041000Y-33812343D01*
X132547317Y-33812343D01*
X132461599Y-33726625D01*
X132337450Y-33643671D01*
X132199503Y-33586531D01*
X132053059Y-33557402D01*
X132025200Y-33557402D01*
X132025200Y-33554943D01*
X131996071Y-33408499D01*
X131938931Y-33270552D01*
X131855977Y-33146403D01*
X131750397Y-33040823D01*
X131626248Y-32957869D01*
X131488301Y-32900729D01*
X131341857Y-32871600D01*
X131197726Y-32871600D01*
X131183265Y-32798899D01*
X131126125Y-32660952D01*
X131043171Y-32536803D01*
X130937591Y-32431223D01*
X130813442Y-32348269D01*
X130675495Y-32291129D01*
X130529051Y-32262000D01*
X130440783Y-32262000D01*
X130421271Y-32163903D01*
X130364131Y-32025956D01*
X130281177Y-31901807D01*
X130175597Y-31796227D01*
X130051448Y-31713273D01*
X129913501Y-31656133D01*
X129767057Y-31627004D01*
X129617743Y-31627004D01*
X129471299Y-31656133D01*
X129333352Y-31713273D01*
X129209203Y-31796227D01*
X129103623Y-31901807D01*
X129020669Y-32025956D01*
X128963529Y-32163903D01*
X128934400Y-32310347D01*
X124386608Y-32310347D01*
X124460972Y-32235983D01*
X124554869Y-32095455D01*
X124619547Y-31939309D01*
X124652520Y-31773546D01*
X124652520Y-31604534D01*
X124619547Y-31438771D01*
X124557684Y-31289419D01*
X134472400Y-31289419D01*
X134472400Y-31448581D01*
X134503451Y-31604685D01*
X134564359Y-31751732D01*
X134652785Y-31884070D01*
X134765330Y-31996615D01*
X134897668Y-32085041D01*
X135044715Y-32145949D01*
X135200819Y-32177000D01*
X135359981Y-32177000D01*
X135516085Y-32145949D01*
X135663132Y-32085041D01*
X135724900Y-32043769D01*
X135786668Y-32085041D01*
X135933715Y-32145949D01*
X136089819Y-32177000D01*
X136248981Y-32177000D01*
X136405085Y-32145949D01*
X136552132Y-32085041D01*
X136613900Y-32043769D01*
X136675668Y-32085041D01*
X136822715Y-32145949D01*
X136978819Y-32177000D01*
X137137981Y-32177000D01*
X137294085Y-32145949D01*
X137441132Y-32085041D01*
X137573470Y-31996615D01*
X137686015Y-31884070D01*
X137774441Y-31751732D01*
X137835349Y-31604685D01*
X137866400Y-31448581D01*
X137866400Y-31289419D01*
X137835349Y-31133315D01*
X137774441Y-30986268D01*
X137686015Y-30853930D01*
X137573470Y-30741385D01*
X137441132Y-30652959D01*
X137294085Y-30592051D01*
X137137981Y-30561000D01*
X136978819Y-30561000D01*
X136822715Y-30592051D01*
X136675668Y-30652959D01*
X136613900Y-30694231D01*
X136552132Y-30652959D01*
X136405085Y-30592051D01*
X136248981Y-30561000D01*
X136089819Y-30561000D01*
X135933715Y-30592051D01*
X135786668Y-30652959D01*
X135724900Y-30694231D01*
X135663132Y-30652959D01*
X135516085Y-30592051D01*
X135359981Y-30561000D01*
X135200819Y-30561000D01*
X135044715Y-30592051D01*
X134897668Y-30652959D01*
X134765330Y-30741385D01*
X134652785Y-30853930D01*
X134564359Y-30986268D01*
X134503451Y-31133315D01*
X134472400Y-31289419D01*
X124557684Y-31289419D01*
X124554869Y-31282625D01*
X124460972Y-31142097D01*
X124341463Y-31022588D01*
X124200935Y-30928691D01*
X124044789Y-30864013D01*
X123879026Y-30831040D01*
X123710014Y-30831040D01*
X123544251Y-30864013D01*
X123388105Y-30928691D01*
X123247577Y-31022588D01*
X123128068Y-31142097D01*
X123034171Y-31282625D01*
X122969493Y-31438771D01*
X122936520Y-31604534D01*
X121020320Y-31604534D01*
X120987347Y-31438771D01*
X120922669Y-31282625D01*
X120828772Y-31142097D01*
X120709263Y-31022588D01*
X120568735Y-30928691D01*
X120412589Y-30864013D01*
X120246826Y-30831040D01*
X120077814Y-30831040D01*
X119912051Y-30864013D01*
X119755905Y-30928691D01*
X119615377Y-31022588D01*
X119495868Y-31142097D01*
X119401971Y-31282625D01*
X119337293Y-31438771D01*
X119304320Y-31604534D01*
X99388076Y-31604534D01*
X99426949Y-31510685D01*
X99458000Y-31354581D01*
X99458000Y-31195419D01*
X99426949Y-31039315D01*
X99366041Y-30892268D01*
X99277615Y-30759930D01*
X99165070Y-30647385D01*
X99032732Y-30558959D01*
X98885685Y-30498051D01*
X98729581Y-30467000D01*
X98570419Y-30467000D01*
X98414315Y-30498051D01*
X98267268Y-30558959D01*
X98134930Y-30647385D01*
X98022385Y-30759930D01*
X97933959Y-30892268D01*
X97873051Y-31039315D01*
X97842000Y-31195419D01*
X88883271Y-31195419D01*
X88893185Y-31193447D01*
X89040232Y-31132539D01*
X89172570Y-31044113D01*
X89285115Y-30931568D01*
X89373541Y-30799230D01*
X89434449Y-30652183D01*
X89465500Y-30496079D01*
X89465500Y-30336917D01*
X89434449Y-30180813D01*
X89373541Y-30033766D01*
X89285115Y-29901428D01*
X89172570Y-29788883D01*
X89144824Y-29770343D01*
X130306000Y-29770343D01*
X130306000Y-29919657D01*
X130335129Y-30066101D01*
X130392269Y-30204048D01*
X130475223Y-30328197D01*
X130580803Y-30433777D01*
X130704952Y-30516731D01*
X130842899Y-30573871D01*
X130989343Y-30603000D01*
X131138657Y-30603000D01*
X131285101Y-30573871D01*
X131423048Y-30516731D01*
X131444581Y-30502343D01*
X139978800Y-30502343D01*
X139978800Y-30651657D01*
X140007929Y-30798101D01*
X140065069Y-30936048D01*
X140148023Y-31060197D01*
X140253603Y-31165777D01*
X140377752Y-31248731D01*
X140515699Y-31305871D01*
X140662143Y-31335000D01*
X140811457Y-31335000D01*
X140957901Y-31305871D01*
X141095848Y-31248731D01*
X141219997Y-31165777D01*
X141325577Y-31060197D01*
X141408531Y-30936048D01*
X141465671Y-30798101D01*
X141494800Y-30651657D01*
X141494800Y-30502343D01*
X141465671Y-30355899D01*
X141408531Y-30217952D01*
X141325577Y-30093803D01*
X141219997Y-29988223D01*
X141095848Y-29905269D01*
X140957901Y-29848129D01*
X140811457Y-29819000D01*
X140662143Y-29819000D01*
X140515699Y-29848129D01*
X140377752Y-29905269D01*
X140253603Y-29988223D01*
X140148023Y-30093803D01*
X140065069Y-30217952D01*
X140007929Y-30355899D01*
X139978800Y-30502343D01*
X131444581Y-30502343D01*
X131547197Y-30433777D01*
X131652777Y-30328197D01*
X131735731Y-30204048D01*
X131792871Y-30066101D01*
X131822000Y-29919657D01*
X131822000Y-29770343D01*
X131792871Y-29623899D01*
X131735731Y-29485952D01*
X131652777Y-29361803D01*
X131547197Y-29256223D01*
X131423048Y-29173269D01*
X131285101Y-29116129D01*
X131138657Y-29087000D01*
X130989343Y-29087000D01*
X130842899Y-29116129D01*
X130704952Y-29173269D01*
X130580803Y-29256223D01*
X130475223Y-29361803D01*
X130392269Y-29485952D01*
X130335129Y-29623899D01*
X130306000Y-29770343D01*
X89144824Y-29770343D01*
X89088936Y-29733000D01*
X108674675Y-29733000D01*
X108678751Y-29732599D01*
X108687136Y-29732470D01*
X108713398Y-29729488D01*
X108739836Y-29729046D01*
X108747223Y-29728144D01*
X108939485Y-29703318D01*
X108986562Y-29692486D01*
X109033788Y-29682312D01*
X109040857Y-29679994D01*
X109040863Y-29679992D01*
X109224638Y-29618296D01*
X109268713Y-29598527D01*
X109313066Y-29579373D01*
X109319548Y-29575727D01*
X109319552Y-29575725D01*
X109319555Y-29575723D01*
X109487847Y-29479506D01*
X109527243Y-29451552D01*
X109567028Y-29424150D01*
X109572679Y-29419313D01*
X109572684Y-29419310D01*
X109572688Y-29419306D01*
X109700541Y-29308332D01*
X109730770Y-29283215D01*
X110045213Y-28964935D01*
X140404869Y-28964935D01*
X140677739Y-29241460D01*
G37*
G04 #@! TD.AperFunction*
M02*
