M48
; DRILL file {KiCad (5.1.10)-1} date 02/22/22 01:05:43
; FORMAT={-:-/ absolute / inch / decimal}
; #@! TF.CreationDate,2022-02-22T01:05:43-03:00
; #@! TF.GenerationSoftware,Kicad,Pcbnew,(5.1.10)-1
; #@! TF.FileFunction,Plated,1,4,PTH
FMAT,2
INCH
T1C0.0079
T2C0.0098
T3C0.0118
T4C0.0157
T5C0.0197
T6C0.0354
%
G90
G05
T1
X5.9063Y-1.2854
X5.9063Y-1.3287
X5.9063Y-1.372
X5.9496Y-1.2854
X5.9496Y-1.3287
X5.9496Y-1.372
X5.9929Y-1.2854
X5.9929Y-1.3287
X5.9929Y-1.372
T2
X2.2116Y-1.2284
X2.225Y-1.3925
X2.2638Y-1.3925
X2.3025Y-1.3925
X2.3075Y-1.81
X2.3504Y-1.2004
X2.3509Y-1.3466
X2.3725Y-1.81
X2.46Y-1.42
X2.8472Y-2.0311
X2.946Y-2.0
X3.0006Y-2.334
X3.05Y-1.962
X3.168Y-1.962
X3.178Y-1.386
X3.178Y-1.427
X3.2476Y-2.0681
X3.3105Y-1.406
X3.825Y-1.6
X3.9339Y-1.602
X4.2239Y-1.601
X4.372Y-1.234
X4.3775Y-2.09
X4.4025Y-2.09
X4.42Y-1.234
X4.5Y-1.71
X4.502Y-1.605
X4.502Y-1.655
X4.502Y-1.51
X4.502Y-1.551
X4.6315Y-2.3973
X4.674Y-1.503
X4.6745Y-2.1075
X4.7055Y-1.7547
X4.72Y-1.503
X4.75Y-1.795
X4.764Y-1.668
X4.764Y-1.502
X4.7784Y-2.1724
X4.8268Y-1.9813
X4.9134Y-1.9813
X4.9567Y-2.0797
X4.9996Y-1.982
X5.0428Y-1.9824
X5.0526Y-2.1044
X5.0856Y-1.9823
X5.106Y-1.275
X5.1309Y-1.9833
X5.136Y-1.3
X5.138Y-1.266
X5.16Y-1.175
X5.168Y-1.29
X5.168Y-1.324
X5.17Y-2.35
X5.192Y-1.566
X5.192Y-1.602
X5.196Y-1.351
X5.196Y-1.393
X5.196Y-1.435
X5.2068Y-2.2782
X5.51Y-1.455
X5.5408Y-1.2038
X5.5433Y-1.3341
X5.5478Y-2.24
X5.5512Y-1.7854
X5.5828Y-2.2075
X5.6919Y-2.3396
X5.6975Y-1.727
X5.76Y-1.5975
X5.7677Y-2.3583
X5.805Y-1.9
X5.8723Y-1.4097
X5.8878Y-2.2461
X5.963Y-1.4409
X5.9744Y-2.5217
X6.0157Y-2.3622
X6.0236Y-2.2559
X6.0295Y-1.9702
T3
X2.2Y-1.91
X2.2Y-1.99
X2.2Y-2.07
X2.3Y-1.91
X2.3Y-1.99
X2.38Y-1.91
X2.38Y-1.99
X2.46Y-1.91
X2.46Y-1.99
X2.54Y-1.91
X2.54Y-1.99
X2.62Y-1.36
X2.62Y-1.56
X2.62Y-1.64
X2.62Y-1.72
X2.62Y-1.8
X2.62Y-1.91
X2.62Y-1.99
X2.7Y-1.28
X2.7Y-1.36
X2.7Y-1.56
X2.7Y-1.64
X2.7Y-1.72
X2.7Y-1.8
X2.7Y-1.91
X2.7Y-1.99
X2.7Y-2.07
X2.7598Y-2.2402
X2.78Y-1.28
X2.78Y-1.36
X2.78Y-1.56
X2.78Y-1.64
X2.78Y-1.72
X2.78Y-1.8
X2.78Y-1.91
X2.78Y-1.99
X2.78Y-2.07
X2.86Y-1.56
X2.86Y-1.64
X2.86Y-1.72
X2.86Y-1.8
X2.86Y-1.91
X2.86Y-1.99
X2.9Y-2.07
X2.94Y-1.56
X2.94Y-1.64
X2.94Y-1.72
X2.94Y-1.8
X2.94Y-1.91
X3.0Y-2.07
X3.02Y-1.56
X3.02Y-1.64
X3.02Y-1.72
X3.02Y-1.8
X3.02Y-1.91
X3.0375Y-2.475
X3.1Y-1.56
X3.1Y-1.64
X3.1Y-1.72
X3.1Y-1.8
X3.1Y-2.07
X3.18Y-1.56
X3.18Y-1.64
X3.18Y-1.72
X3.18Y-1.8
X3.2Y-2.07
X3.26Y-1.56
X3.26Y-1.64
X3.26Y-1.72
X3.26Y-1.8
X3.3472Y-1.6
X3.3975Y-2.365
X3.3975Y-2.4975
X3.4Y-1.56
X3.4Y-1.64
X3.4Y-1.72
X3.448Y-1.6
X3.59Y-2.07
X3.67Y-1.56
X3.75Y-1.56
X3.8839Y-1.2313
X3.8839Y-1.471
X3.9349Y-1.471
X4.048Y-1.471
X4.05Y-1.795
X4.115Y-1.91
X4.18Y-1.795
X4.18Y-1.898
X4.2959Y-1.795
X4.2975Y-1.898
X4.31Y-1.6
X4.3318Y-1.4882
X4.41Y-1.5
X4.415Y-1.898
X4.4159Y-1.795
X4.52Y-2.09
X4.5325Y-1.898
X4.65Y-1.898
X4.6625Y-2.2275
X4.665Y-2.495
X4.67Y-1.58
X4.69Y-1.68
X4.7Y-2.0375
X4.747Y-1.754
X4.7497Y-2.038
X4.78Y-2.2275
X4.793Y-1.754
X4.837Y-1.754
X4.867Y-1.669
X4.876Y-1.755
X4.8917Y-2.496
X4.931Y-1.713
X4.9825Y-2.23
X4.99Y-1.61
X5.0Y-2.3175
X5.04Y-1.61
X5.0525Y-2.23
X5.06Y-1.66
X5.11Y-1.7
X5.1197Y-2.498
X5.15Y-2.23
X5.155Y-1.7425
X5.2125Y-1.985
X5.2125Y-2.1925
X5.3525Y-2.34
X5.3875Y-1.945
X5.3875Y-2.0075
X5.4775Y-2.3
X5.502Y-1.2776
X5.5325Y-2.5275
X5.5975Y-2.5275
X5.66Y-2.5275
X5.6975Y-1.765
X5.7475Y-1.825
X5.7953Y-2.065
X5.8025Y-1.825
X5.8159Y-2.0856
X5.8376Y-2.1073
T4
X2.165Y-1.6825
X2.165Y-1.7325
X2.165Y-1.7925
X2.1818Y-2.4025
X2.1818Y-2.4525
X2.1818Y-2.5025
X2.1818Y-2.5525
X2.185Y-1.7075
X2.185Y-1.7625
X2.1913Y-2.352
X2.205Y-1.6825
X2.205Y-1.7325
X2.205Y-1.7925
X2.2075Y-1.3
X2.2125Y-1.4725
X2.2268Y-2.3175
X2.2543Y-2.18
X2.2543Y-2.23
X2.2543Y-2.28
X2.2793Y-2.135
X2.3193Y-2.105
X2.366Y-2.389
X2.366Y-2.439
X2.366Y-2.489
X2.366Y-2.539
X2.3694Y-2.105
X2.399Y-2.301
X2.399Y-2.351
X2.4195Y-2.105
X2.4697Y-2.105
X2.499Y-2.3005
X2.499Y-2.3505
X2.5198Y-2.105
X2.532Y-2.3885
X2.532Y-2.4385
X2.532Y-2.4885
X2.532Y-2.5385
X2.57Y-2.105
X2.616Y-2.134
X2.62Y-1.28
X2.643Y-2.18
X2.643Y-2.23
X2.643Y-2.28
X2.6705Y-2.3175
X2.706Y-2.352
X2.7155Y-2.4025
X2.7155Y-2.4525
X2.7155Y-2.5025
X2.7155Y-2.5525
X3.248Y-2.3228
X3.4007Y-1.1975
X3.4306Y-1.1975
X3.4605Y-1.1975
X3.4905Y-1.1975
X3.6005Y-2.392
X3.6005Y-2.4451
X3.6005Y-2.4983
X3.6005Y-2.5514
X3.6205Y-2.3457
X3.6556Y-2.3105
X3.6912Y-2.2748
X3.7266Y-2.2395
X3.738Y-1.9912
X3.738Y-2.0412
X3.738Y-2.0912
X3.738Y-2.1412
X3.738Y-2.1912
X3.7571Y-1.9424
X3.7835Y-2.5314
X3.7838Y-2.4314
X3.7838Y-2.4814
X3.7898Y-1.9102
X3.8102Y-2.3816
X3.8262Y-2.0816
X3.8262Y-2.1316
X3.8262Y-2.1816
X3.8262Y-2.2316
X3.8262Y-2.2816
X3.8262Y-2.3316
X3.8371Y-1.9076
X3.887Y-1.9076
X3.9049Y-2.3316
X3.9051Y-2.0817
X3.9051Y-2.1317
X3.9051Y-2.1817
X3.9239Y-2.3814
X3.937Y-1.9076
X3.9511Y-2.4315
X3.9511Y-2.4815
X3.9511Y-2.5315
X3.9519Y-1.788
X3.9672Y-2.277
X3.9676Y-2.3593
X3.987Y-1.9076
X4.0173Y-2.2827
X4.0177Y-2.3617
X4.0659Y-1.945
X4.0672Y-2.2827
X4.0677Y-2.3617
X4.0829Y-2.091
X4.1033Y-2.133
X4.1173Y-2.2827
X4.1177Y-2.3617
X4.1347Y-2.5645
X4.149Y-2.1534
X4.1545Y-2.2545
X4.1547Y-2.3917
X4.1847Y-2.5645
X4.2066Y-2.1534
X4.2347Y-2.5645
X4.2643Y-2.1534
X4.2847Y-2.5645
X4.3184Y-2.1592
X4.3259Y-2.531
X4.3521Y-2.193
X4.3632Y-2.4896
X4.3719Y-2.2398
X4.3719Y-2.2898
X4.3719Y-2.3398
X4.3719Y-2.3898
X4.3719Y-2.4398
X5.155Y-1.78
X5.155Y-1.815
X5.326Y-1.235
X5.3425Y-1.335
X5.343Y-1.186
X5.361Y-1.235
X5.378Y-1.186
X5.3825Y-1.79
X5.396Y-1.235
X5.413Y-1.186
X5.4325Y-1.365
X5.448Y-1.186
X5.475Y-1.455
X5.498Y-2.4547
X5.5178Y-2.2075
X5.5289Y-2.0809
X5.575Y-1.9025
X5.5925Y-2.02
X5.6625Y-1.995
X5.681Y-2.1924
X5.87Y-1.83
X5.87Y-1.86
X5.87Y-1.89
X5.87Y-1.92
X5.95Y-1.1975
X6.0075Y-1.1975
T5
X4.7308Y-1.2476
X4.8738Y-1.2476
X5.344Y-1.417
X5.344Y-1.525
X5.4675Y-1.875
X5.505Y-1.875
X5.5217Y-1.9075
X5.5217Y-1.9409
X5.5217Y-1.9764
X5.5425Y-1.875
X6.025Y-1.42
T6
X4.4793Y-2.26
X4.4793Y-2.345
X4.4793Y-2.43
X4.4793Y-2.515
T0
M30
